<svg width="21" height="21" viewBox="0 0 21 21" fill="none" xmlns="http://www.w3.org/2000/svg">
<path fill-rule="evenodd" clip-rule="evenodd" d="M13.2072 15.207C13.3947 15.0195 13.5 14.7652 13.5 14.5C13.5 14.2349 13.3947 13.9806 13.2072 13.793L9.91421 10.5L13.2072 7.20704C13.3894 7.01844 13.4902 6.76584 13.4879 6.50364C13.4856 6.24144 13.3804 5.99063 13.195 5.80522C13.0096 5.61981 12.7588 5.51465 12.4966 5.51237C12.2344 5.51009 11.9818 5.61088 11.7932 5.79304L7.79321 9.79304C7.60574 9.98057 7.50043 10.2349 7.50043 10.5C7.50043 10.7652 7.60574 11.0195 7.79321 11.207L11.7932 15.207C11.9807 15.3945 12.235 15.4998 12.5002 15.4998C12.7654 15.4998 13.0197 15.3945 13.2072 15.207Z" fill="black"/>
</svg>
