<svg width="47" height="47" viewBox="0 0 47 47" fill="none" xmlns="http://www.w3.org/2000/svg">
<rect x="1" y="1" width="45" height="45" fill="white"/>
<rect x="1" y="1" width="45" height="45" stroke="#D9D9D9"/>
<path fill-rule="evenodd" clip-rule="evenodd" d="M26.2072 28.207C26.3947 28.0195 26.5 27.7652 26.5 27.5C26.5 27.2349 26.3947 26.9806 26.2072 26.793L22.9142 23.5L26.2072 20.207C26.3894 20.0184 26.4902 19.7658 26.4879 19.5036C26.4856 19.2414 26.3804 18.9906 26.195 18.8052C26.0096 18.6198 25.7588 18.5146 25.4966 18.5124C25.2344 18.5101 24.9818 18.6109 24.7932 18.793L20.7932 22.793C20.6057 22.9806 20.5004 23.2349 20.5004 23.5C20.5004 23.7652 20.6057 24.0195 20.7932 24.207L24.7932 28.207C24.9807 28.3945 25.235 28.4998 25.5002 28.4998C25.7654 28.4998 26.0197 28.3945 26.2072 28.207Z" fill="black"/>
</svg>
