<svg width="52" height="47" viewBox="0 0 52 47" fill="none" xmlns="http://www.w3.org/2000/svg">
<rect x="1" y="1" width="50" height="45" fill="white"/>
<rect x="1" y="1" width="50" height="45" stroke="#D9D9D9"/>
<path fill-rule="evenodd" clip-rule="evenodd" d="M23.2928 28.207C23.1053 28.0195 23 27.7652 23 27.5C23 27.2349 23.1053 26.9806 23.2928 26.793L26.5858 23.5L23.2928 20.207C23.1106 20.0184 23.0098 19.7658 23.0121 19.5036C23.0144 19.2414 23.1196 18.9906 23.305 18.8052C23.4904 18.6198 23.7412 18.5146 24.0034 18.5124C24.2656 18.5101 24.5182 18.6109 24.7068 18.793L28.7068 22.793C28.8943 22.9806 28.9996 23.2349 28.9996 23.5C28.9996 23.7652 28.8943 24.0195 28.7068 24.207L24.7068 28.207C24.5193 28.3945 24.265 28.4998 23.9998 28.4998C23.7346 28.4998 23.4803 28.3945 23.2928 28.207Z" fill="black"/>
</svg>
