<svg width="20" height="21" viewBox="0 0 20 21" fill="none" xmlns="http://www.w3.org/2000/svg">
<path fill-rule="evenodd" clip-rule="evenodd" d="M7.29279 15.207C7.10532 15.0195 7 14.7652 7 14.5C7 14.2349 7.10532 13.9806 7.29279 13.793L10.5858 10.5L7.29279 7.20704C7.11063 7.01844 7.00983 6.76584 7.01211 6.50364C7.01439 6.24144 7.11956 5.99063 7.30497 5.80522C7.49038 5.61981 7.74119 5.51465 8.00339 5.51237C8.26558 5.51009 8.51818 5.61088 8.70679 5.79304L12.7068 9.79304C12.8943 9.98057 12.9996 10.2349 12.9996 10.5C12.9996 10.7652 12.8943 11.0195 12.7068 11.207L8.70679 15.207C8.51926 15.3945 8.26495 15.4998 7.99979 15.4998C7.73462 15.4998 7.48031 15.3945 7.29279 15.207Z" fill="black"/>
</svg>
