<svg width="15" height="9" viewBox="0 0 15 9" fill="none" xmlns="http://www.w3.org/2000/svg">
<path fill-rule="evenodd" clip-rule="evenodd" d="M13.3927 0.286932L7.62822 6.28493L1.8447 0.30967L1.84402 0.308966C1.47628 -0.0729046 0.878962 -0.0726703 0.511505 0.30967C0.345057 0.482861 0.25 0.733384 0.25 0.960626C0.25 1.18787 0.345058 1.43839 0.511505 1.61158L6.9521 8.31307C7.31978 8.69564 7.91761 8.69564 8.2853 8.31307L14.7259 1.61158C15.0818 1.24121 15.0818 0.657301 14.7259 0.286932C14.3582 -0.095644 13.7604 -0.095644 13.3927 0.286932ZM14.3322 1.23319L7.89161 7.93467C7.73879 8.09369 7.49863 8.09369 7.3458 7.93467L0.905202 1.23318C0.839704 1.16503 0.79604 1.05146 0.79604 0.960593V0.960593C0.79604 1.05146 0.839704 1.16503 0.905202 1.23318L7.3458 7.93467C7.49863 8.09369 7.73879 8.09369 7.89161 7.93467L14.3322 1.23319Z" fill="#ED9523"/>
</svg>
