<svg width="70" height="70" viewBox="0 0 70 70" fill="none" xmlns="http://www.w3.org/2000/svg">
<rect width="70" height="70" rx="35" fill="#F2F7F9"/>
<path d="M22.5 35L25.2778 32.2222M25.2778 32.2222L35 22.5L44.7222 32.2222M25.2778 32.2222V46.1111C25.2778 46.4795 25.4241 46.8327 25.6846 47.0932C25.945 47.3537 26.2983 47.5 26.6667 47.5H30.8333M44.7222 32.2222L47.5 35M44.7222 32.2222V46.1111C44.7222 46.4795 44.5759 46.8327 44.3154 47.0932C44.055 47.3537 43.7017 47.5 43.3333 47.5H39.1667M30.8333 47.5C31.2017 47.5 31.555 47.3537 31.8154 47.0932C32.0759 46.8327 32.2222 46.4795 32.2222 46.1111V40.5556C32.2222 40.1872 32.3686 39.8339 32.629 39.5735C32.8895 39.313 33.2428 39.1667 33.6111 39.1667H36.3889C36.7572 39.1667 37.1105 39.313 37.371 39.5735C37.6314 39.8339 37.7778 40.1872 37.7778 40.5556V46.1111C37.7778 46.4795 37.9241 46.8327 38.1846 47.0932C38.445 47.3537 38.7983 47.5 39.1667 47.5M30.8333 47.5H39.1667" stroke="#232325" stroke-width="2" stroke-linecap="round" stroke-linejoin="round"/>
</svg>
