<svg width="70" height="70" viewBox="0 0 70 70" fill="none" xmlns="http://www.w3.org/2000/svg">
<rect width="70" height="70" rx="35" fill="#F2F7F9"/>
<path d="M39.8889 35C39.8889 33.7034 39.3738 32.4599 38.457 31.543C37.5401 30.6262 36.2966 30.1111 35 30.1111C33.7034 30.1111 32.4599 30.6262 31.543 31.543C30.6262 32.4599 30.1111 33.7034 30.1111 35C30.1111 36.2966 30.6262 37.5401 31.543 38.457C32.4599 39.3738 33.7034 39.8889 35 39.8889C36.2966 39.8889 37.5401 39.3738 38.457 38.457C39.3738 37.5401 39.8889 36.2966 39.8889 35ZM39.8889 35V36.8333C39.8889 37.6437 40.2108 38.4209 40.7838 38.9939C41.3569 39.567 42.1341 39.8889 42.9444 39.8889C43.7548 39.8889 44.532 39.567 45.105 38.9939C45.6781 38.4209 46 37.6437 46 36.8333V35C46 32.8244 45.3549 30.6977 44.1462 28.8887C42.9375 27.0798 41.2195 25.6699 39.2095 24.8373C37.1995 24.0048 34.9878 23.7869 32.854 24.2114C30.7202 24.6358 28.7602 25.6835 27.2218 27.2218C25.6835 28.7602 24.6358 30.7202 24.2114 32.854C23.7869 34.9878 24.0048 37.1995 24.8373 39.2095C25.6699 41.2195 27.0798 42.9375 28.8887 44.1462C30.6977 45.3549 32.8244 46 35 46C36.9314 46.0019 38.8288 45.4942 40.5 44.526" stroke="#232325" stroke-width="2" stroke-linecap="round" stroke-linejoin="round"/>
</svg>
