<svg width="70" height="70" viewBox="0 0 70 70" fill="none" xmlns="http://www.w3.org/2000/svg">
<rect width="70" height="70" rx="35" fill="#F2F7F9"/>
<path d="M35 29.8889V35L38.8333 38.8333M46.5 35C46.5 36.5102 46.2025 38.0056 45.6246 39.4009C45.0467 40.7961 44.1996 42.0639 43.1317 43.1317C42.0639 44.1996 40.7961 45.0467 39.4009 45.6246C38.0056 46.2025 36.5102 46.5 35 46.5C33.4898 46.5 31.9944 46.2025 30.5991 45.6246C29.2039 45.0467 27.9361 44.1996 26.8683 43.1317C25.8004 42.0639 24.9533 40.7961 24.3754 39.4009C23.7975 38.0056 23.5 36.5102 23.5 35C23.5 31.95 24.7116 29.0249 26.8683 26.8683C29.0249 24.7116 31.95 23.5 35 23.5C38.05 23.5 40.9751 24.7116 43.1317 26.8683C45.2884 29.0249 46.5 31.95 46.5 35Z" stroke="#232325" stroke-width="2" stroke-linecap="round" stroke-linejoin="round"/>
</svg>
