<svg width="70" height="70" viewBox="0 0 70 70" fill="none" xmlns="http://www.w3.org/2000/svg">
<rect width="70" height="70" rx="35" fill="#F2F7F9"/>
<path d="M25.6509 25.6509C25.2341 26.0676 25 26.6329 25 27.2222V28.3333C25 37.5378 32.4622 45 41.6667 45H42.7778C43.3671 45 43.9324 44.7659 44.3491 44.3491C44.7659 43.9324 45 43.3671 45 42.7778V39.1344C45.0001 38.9012 44.9267 38.6738 44.7903 38.4845C44.6539 38.2952 44.4613 38.1537 44.24 38.08L39.2478 36.4156C38.9941 36.3312 38.7185 36.3412 38.4715 36.4436C38.2246 36.5461 38.0228 36.7342 37.9033 36.9733L36.6478 39.4811C33.9272 38.2519 31.7481 36.0728 30.5189 33.3522L33.0267 32.0967C33.2658 31.9772 33.4539 31.7754 33.5564 31.5285C33.6588 31.2815 33.6688 31.0059 33.5844 30.7522L31.92 25.76C31.8463 25.5388 31.705 25.3464 31.516 25.2101C31.3269 25.0737 31.0998 25.0002 30.8667 25H27.2222C26.6329 25 26.0676 25.2341 25.6509 25.6509Z" stroke="black" stroke-width="2" stroke-linecap="round" stroke-linejoin="round"/>
</svg>
