<svg width="71" height="70" viewBox="0 0 71 70" fill="none" xmlns="http://www.w3.org/2000/svg">
<rect x="1" y="0.5" width="69" height="69" rx="34.5" stroke="#08B1F3"/>
<path d="M51.945 29.6L29.2307 52.3143C28.545 53 27.0022 52.4857 25.7164 51.2C24.4307 49.9143 23.9164 48.2857 24.6022 47.6857L47.3164 24.9714" stroke="#08B1F3" stroke-width="1.5" stroke-miterlimit="10" stroke-linecap="round" stroke-linejoin="round"/>
<path d="M51.9316 29.5875C52.5676 28.9515 52.0521 27.4048 50.7801 26.1328C49.5081 24.8608 47.9614 24.3453 47.3254 24.9812C46.6894 25.6172 47.205 27.1639 48.4769 28.4359C49.7489 29.7079 51.2956 30.2235 51.9316 29.5875Z" stroke="#08B1F3" stroke-width="1.5" stroke-miterlimit="10" stroke-linecap="round" stroke-linejoin="round"/>
<path d="M41.1453 40.3144C40.4596 41.0001 38.9168 40.4858 37.631 39.2001C36.3453 37.9144 35.831 36.2858 36.5168 35.6858" stroke="#08B1F3" stroke-width="1.5" stroke-miterlimit="10" stroke-linecap="round" stroke-linejoin="round"/>
<path d="M41.0594 47.8571V41C42.5166 41 43.6309 42.2 43.6309 43.5714V53" stroke="#08B1F3" stroke-width="1.5" stroke-miterlimit="10" stroke-linecap="round" stroke-linejoin="round"/>
<path d="M22.2023 46.1429H17.9166V17H41.0594V27.2857" stroke="#08B1F3" stroke-width="1.5" stroke-miterlimit="10" stroke-linecap="round" stroke-linejoin="round"/>
<path d="M22.2023 26.4285H35.9166" stroke="#08B1F3" stroke-width="1.5" stroke-miterlimit="10" stroke-linecap="round" stroke-linejoin="round"/>
<path d="M22.2023 23H35.9166" stroke="#08B1F3" stroke-width="1.5" stroke-miterlimit="10" stroke-linecap="round" stroke-linejoin="round"/>
<path d="M22.2023 29.8572H35.9166" stroke="#08B1F3" stroke-width="1.5" stroke-miterlimit="10" stroke-linecap="round" stroke-linejoin="round"/>
<path d="M22.2023 33.2856H31.6308" stroke="#08B1F3" stroke-width="1.5" stroke-miterlimit="10" stroke-linecap="round" stroke-linejoin="round"/>
<path d="M24.7737 41.857C25.7205 41.857 26.488 41.0895 26.488 40.1428C26.488 39.196 25.7205 38.4285 24.7737 38.4285C23.827 38.4285 23.0594 39.196 23.0594 40.1428C23.0594 41.0895 23.827 41.857 24.7737 41.857Z" stroke="#08B1F3" stroke-width="1.5" stroke-miterlimit="10" stroke-linecap="round" stroke-linejoin="round"/>
</svg>
