<svg width="71" height="70" viewBox="0 0 71 70" fill="none" xmlns="http://www.w3.org/2000/svg">
<rect x="1" y="0.5" width="69" height="69" rx="34.5" stroke="#08B1F3"/>
<path d="M28.427 43.4786H16.2759C15.9131 43.4786 15.6411 43.2065 15.6411 42.8438C15.6411 42.4811 15.9131 42.209 16.2759 42.209H28.427C28.7897 42.209 29.0617 42.4811 29.0617 42.8438C29.0617 43.2065 28.7897 43.4786 28.427 43.4786Z" fill="#08B1F3"/>
<path d="M54.7242 43.4786H42.5731C42.2103 43.4786 41.9383 43.2065 41.9383 42.8438C41.9383 42.4811 42.2103 42.209 42.5731 42.209H54.7242C55.0869 42.209 55.3589 42.4811 55.3589 42.8438C55.2682 43.2065 54.9962 43.4786 54.7242 43.4786Z" fill="#08B1F3"/>
<path d="M35.4999 53.0001C33.5049 53.0001 15.7317 52.9094 15.7317 49.5542V42.0278C15.7317 40.5769 16.9105 39.3074 18.4521 39.3074H26.4319C27.8828 39.3074 29.1523 40.4863 29.1523 42.0278V46.2898C29.1523 46.8338 29.6057 47.1966 30.0591 47.1966H41.0314C41.5754 47.1966 41.9382 46.7432 41.9382 46.2898V42.0278C41.9382 40.5769 43.117 39.3074 44.6586 39.3074H52.6384C54.0893 39.3074 55.3588 40.4863 55.3588 42.0278V49.5542C55.2681 52.9094 37.4948 53.0001 35.4999 53.0001ZM16.9105 49.5542C17.5453 50.461 24.4369 51.7306 35.4999 51.7306C46.5628 51.7306 53.4545 50.461 54.0893 49.5542V42.0278C54.0893 41.2117 53.4545 40.5769 52.6384 40.5769H44.6586C43.8424 40.5769 43.2077 41.2117 43.2077 42.0278V46.2898C43.2077 47.4686 42.2102 48.4661 41.0314 48.4661H30.0591C28.8803 48.4661 27.8828 47.4686 27.8828 46.2898V42.0278C27.8828 41.2117 27.248 40.5769 26.4319 40.5769H18.4521C17.636 40.5769 17.0012 41.2117 17.0012 42.0278V49.5542H16.9105Z" fill="#08B1F3"/>
<path d="M35.5 38.7631C33.1423 38.7631 30.966 38.0377 29.0617 36.5868C28.8804 36.4961 28.7897 36.3147 28.7897 36.1334V32.5062C28.7897 30.3299 30.5126 28.6069 32.6889 28.6069H38.3111C40.4874 28.6069 42.2103 30.3299 42.2103 32.5062V36.1334C42.2103 36.3147 42.1196 36.4961 41.9383 36.5868C40.1247 38.0377 37.8577 38.7631 35.5 38.7631ZM30.0592 35.7707C31.6914 36.8588 33.5957 37.4936 35.5 37.4936C37.4949 37.4936 39.3992 36.8588 40.9408 35.7707V32.5062C40.9408 31.0553 39.7619 29.7858 38.2204 29.7858H32.5982C31.1474 29.7858 29.8779 30.9646 29.8779 32.5062V35.7707H30.0592Z" fill="#08B1F3"/>
<path d="M35.5 38.7631C29.5151 38.7631 24.6182 33.8665 24.6182 27.8816C24.6182 21.8967 29.5149 17 35.4998 17C41.4847 17 46.3814 21.8967 46.3814 27.8816C46.3814 33.8665 41.4849 38.7631 35.5 38.7631ZM35.4998 18.2695C30.1497 18.2695 25.8877 22.6222 25.8877 27.8816C25.8877 33.2317 30.2406 37.4936 35.5 37.4936C40.8501 37.4936 45.1119 33.141 45.1119 27.8816C45.1119 22.5315 40.8499 18.2695 35.4998 18.2695Z" fill="#08B1F3"/>
<path d="M31.9632 38.1284C31.6005 38.1284 31.3284 37.8563 31.3284 37.4936V33.3223C31.3284 32.9596 31.6005 32.6876 31.9632 32.6876C32.3259 32.6876 32.598 32.9596 32.598 33.3223V37.4936C32.598 37.8563 32.3259 38.1284 31.9632 38.1284Z" fill="#08B1F3"/>
<path d="M39.0367 38.1284C38.674 38.1284 38.402 37.8563 38.402 37.4936V33.3223C38.402 32.9596 38.674 32.6876 39.0367 32.6876C39.3995 32.6876 39.6715 32.9596 39.6715 33.3223V37.4936C39.6715 37.8563 39.3995 38.1284 39.0367 38.1284Z" fill="#08B1F3"/>
<path d="M35.5 27.8815C33.5957 27.8815 32.0542 26.3399 32.0542 24.4356C32.0542 22.5313 33.5957 20.9898 35.5 20.9898C37.4043 20.9898 38.9459 22.5313 38.9459 24.4356C38.9459 26.3399 37.4043 27.8815 35.5 27.8815ZM35.5 22.2593C34.3212 22.2593 33.3237 23.2568 33.3237 24.4356C33.3237 25.6145 34.3212 26.6119 35.5 26.6119C36.6788 26.6119 37.6763 25.6145 37.6763 24.4356C37.6763 23.2568 36.6788 22.2593 35.5 22.2593Z" fill="#08B1F3"/>
<path d="M23.7118 38.4007C23.3491 38.4007 23.0771 38.1286 23.0771 37.7659V34.8641C23.0771 34.5921 23.2584 34.4107 23.4398 34.3201C23.6211 34.2294 23.8932 34.2294 24.0745 34.4107L24.9813 35.2269C25.2533 35.4082 25.2534 35.8616 25.072 36.1337C24.8906 36.4057 24.5279 36.4057 24.2559 36.2243V37.7659C24.3466 38.1286 24.0745 38.4007 23.7118 38.4007Z" fill="#08B1F3"/>
<path d="M23.7118 38.4007C23.3491 38.4007 23.0771 38.1286 23.0771 37.7659L23.0772 36.2243C22.8051 36.4057 22.5331 36.315 22.261 36.1337C22.0797 35.8616 22.0797 35.4989 22.3517 35.2269L23.2585 34.4107C23.4399 34.2294 23.7119 34.2294 23.8933 34.3201C24.0746 34.4107 24.256 34.6828 24.256 34.8641L24.2559 37.7659C24.3466 38.1286 24.0745 38.4007 23.7118 38.4007Z" fill="#08B1F3"/>
<path d="M20.1745 35.0453C19.8118 35.0453 19.5398 34.7733 19.5398 34.4105V31.5088C19.5398 31.2368 19.7212 31.0554 19.9025 30.9647C20.0839 30.874 20.3559 30.874 20.5373 31.0554L21.4441 31.8715C21.7161 32.0529 21.7161 32.5063 21.5347 32.7783C21.3534 33.0503 20.9907 33.0504 20.7186 32.869V34.4105C20.8093 34.7733 20.5373 35.0453 20.1745 35.0453Z" fill="#08B1F3"/>
<path d="M20.1756 35.0453C19.8129 35.0453 19.5408 34.7733 19.5408 34.4105V32.869C19.2688 33.0504 18.9968 32.9597 18.7247 32.7783C18.5434 32.5063 18.5434 32.1435 18.8154 31.8715L19.7222 31.0554C19.9036 30.874 20.1756 30.874 20.357 30.9647C20.5383 31.0554 20.7197 31.3274 20.7197 31.5088V34.4105C20.8104 34.7733 20.5383 35.0453 20.1756 35.0453Z" fill="#08B1F3"/>
<path d="M50.8254 35.0454C50.7347 35.0454 50.644 35.0454 50.5533 34.9547C50.372 34.864 50.1906 34.592 50.1906 34.4106V31.5089C50.1906 31.1462 50.4627 30.8741 50.8254 30.8741C51.1881 30.8741 51.4601 31.1462 51.4601 31.5089V33.0504C51.7322 32.8691 52.0042 32.9598 52.2763 33.1411C52.4576 33.4132 52.4576 33.7759 52.1856 34.0479L51.2788 34.864C51.0974 35.0454 51.0067 35.0454 50.8254 35.0454Z" fill="#08B1F3"/>
<path d="M50.8254 35.0454C50.644 35.0454 50.5524 34.9547 50.4617 34.864L49.5549 34.0479C49.2829 33.8666 49.2829 33.4132 49.4642 33.1411C49.6456 32.8691 50.0083 32.8691 50.2804 33.0504V31.5089C50.2804 31.1462 50.5524 30.8741 50.9151 30.8741C51.2778 30.8741 51.5499 31.1462 51.5499 31.5089V34.4106C51.5499 34.6827 51.3685 34.864 51.1872 34.9547C51.0058 35.0454 50.916 35.0454 50.8254 35.0454Z" fill="#08B1F3"/>
<path d="M47.2881 38.4005C47.1974 38.4005 47.1067 38.4005 47.0161 38.3098C46.8347 38.2191 46.6533 37.9471 46.6533 37.7657V34.864C46.6533 34.5013 46.9254 34.2292 47.2881 34.2292C47.6508 34.2292 47.9229 34.5013 47.9229 34.864V36.4055C48.1949 36.2242 48.4669 36.3149 48.739 36.4962C48.9203 36.7683 48.9203 37.131 48.6483 37.403L47.7415 38.2191C47.5601 38.4005 47.4694 38.4005 47.2881 38.4005Z" fill="#08B1F3"/>
<path d="M47.2881 38.4005C47.1067 38.4005 47.0161 38.3098 46.9254 38.2191L46.0186 37.403C45.7466 37.2217 45.7466 36.7683 45.9279 36.4962C46.1093 36.2242 46.472 36.2242 46.744 36.4055V34.864C46.744 34.5013 47.0161 34.2292 47.3788 34.2292C47.7415 34.2292 48.0136 34.5013 48.0136 34.864V37.7657C48.0136 38.0378 47.8322 38.2191 47.6508 38.3098C47.4695 38.4005 47.3788 38.4005 47.2881 38.4005Z" fill="#08B1F3"/>
</svg>
