<svg width="71" height="70" viewBox="0 0 71 70" fill="none" xmlns="http://www.w3.org/2000/svg">
<rect x="1" y="0.5" width="69" height="69" rx="34.5" stroke="#08B1F3"/>
<path d="M27.6812 35.6444C27.3375 35.6444 27.0797 35.3866 27.0797 35.0429V22.4988C27.0797 20.179 25.1895 18.3747 22.9557 18.3747C20.6358 18.3747 18.8315 20.2649 18.8315 22.4988C18.8315 24.8186 20.7218 26.6229 22.9557 26.6229C23.2993 26.6229 23.5571 26.8807 23.5571 27.2243C23.5571 27.568 23.2993 27.8258 22.9557 27.8258C19.9485 27.8258 17.5428 25.42 17.5428 22.4129C17.5428 19.4057 19.9485 17 22.9557 17C25.9628 17 28.3685 19.4057 28.3685 22.4129V34.957C28.3685 35.3866 28.1108 35.6444 27.6812 35.6444Z" fill="#08B1F3"/>
<path d="M22.9553 25.4201C21.3229 25.4201 20.0341 24.1313 20.0341 22.4989C20.0341 22.1552 20.2918 21.8975 20.6355 21.8975C20.9792 21.8975 21.2369 22.1552 21.2369 22.4989C21.2369 23.444 22.0102 24.1313 22.8694 24.1313C23.7286 24.1313 24.5018 23.3581 24.5018 22.4989C24.5018 21.6397 23.7286 20.8664 22.8694 20.8664C22.5257 20.8664 22.268 20.6087 22.268 20.265C22.268 19.9213 22.5257 19.6636 22.8694 19.6636C24.5018 19.6636 25.7906 20.9524 25.7906 22.5848C25.8765 24.0454 24.5019 25.4201 22.9553 25.4201Z" fill="#08B1F3"/>
<path d="M52.8558 52.9997H19.6053C19.2616 52.9997 19.0038 52.742 19.0038 52.3983C19.0038 52.0546 19.2616 51.7969 19.6053 51.7969H52.8558C53.1995 51.7969 53.4573 52.0546 53.4573 52.3983C53.4573 52.742 53.1995 52.9997 52.8558 52.9997Z" fill="#08B1F3"/>
<path d="M38.6788 34.8712C38.3351 34.8712 38.0773 34.6134 38.0773 34.2697V33.5824C38.0773 33.2387 38.3351 32.981 38.6788 32.981C39.0224 32.981 39.2802 33.2387 39.2802 33.5824V34.2697C39.2802 34.6134 39.0224 34.8712 38.6788 34.8712Z" fill="#08B1F3"/>
<path d="M38.6787 44.2363C34.9842 44.2363 31.8912 41.2291 31.8912 37.4487C31.8912 33.7542 34.8983 30.6611 38.6787 30.6611C42.3733 30.6611 45.4663 33.6683 45.4663 37.4487C45.4663 41.1432 42.3733 44.2363 38.6787 44.2363ZM38.6787 31.9499C35.6716 31.9499 33.18 34.4416 33.18 37.4487C33.18 40.4559 35.6716 42.9475 38.6787 42.9475C41.6859 42.9475 44.1775 40.4559 44.1775 37.4487C44.1775 34.4416 41.6859 31.9499 38.6787 31.9499Z" fill="#08B1F3"/>
<path d="M38.6792 46.3838C33.7818 46.3838 29.7437 42.3456 29.7437 37.4482C29.7437 32.5509 33.7818 28.5127 38.6792 28.5127C43.5766 28.5127 47.6147 32.5509 47.6147 37.4482C47.6147 42.3456 43.5766 46.3838 38.6792 46.3838ZM38.6792 29.8015C34.4692 29.8015 31.0324 33.2382 31.0324 37.4482C31.0324 41.6583 34.4692 45.095 38.6792 45.095C42.8892 45.095 46.326 41.6583 46.326 37.4482C46.326 33.2382 42.8892 29.8015 38.6792 29.8015Z" fill="#08B1F3"/>
<path d="M38.6785 41.3147C37.3897 41.3147 36.3586 40.2837 36.3586 39.0808C36.3586 38.7372 36.6164 38.4794 36.9601 38.4794C37.3038 38.4794 37.5615 38.7372 37.5615 39.0808C37.5615 39.5964 38.077 40.026 38.6785 40.026C39.2799 40.026 39.7954 39.5964 39.7954 39.0808C39.7954 38.5653 39.2799 38.1357 38.6785 38.1357C37.3897 38.1357 36.3586 37.1047 36.3586 35.9019C36.3586 34.699 37.3897 33.668 38.6785 33.668C39.9672 33.668 40.9983 34.699 40.9983 35.9019C40.9983 36.2455 40.7405 36.5033 40.3968 36.5033C40.0532 36.5033 39.7954 36.2455 39.7954 35.9019C39.7954 35.3863 39.2799 34.9567 38.6785 34.9567C38.077 34.9567 37.5615 35.3863 37.5615 35.9019C37.5615 36.4174 38.077 36.847 38.6785 36.847C39.9672 36.847 40.9983 37.878 40.9983 39.0808C40.9983 40.2837 39.9672 41.3147 38.6785 41.3147Z" fill="#08B1F3"/>
<path d="M38.6788 42.0025C38.3351 42.0025 38.0773 41.7447 38.0773 41.4011V40.6278C38.0773 40.2841 38.3351 40.0264 38.6788 40.0264C39.0224 40.0264 39.2802 40.2841 39.2802 40.6278V41.4011C39.2802 41.7447 39.0224 42.0025 38.6788 42.0025Z" fill="#08B1F3"/>
<path d="M38.6785 38.0503C37.3897 38.0503 36.3586 37.0193 36.3586 35.8164C36.3586 34.6135 37.3897 33.5825 38.6785 33.5825C39.9672 33.5825 40.9983 34.6135 40.9983 35.8164C40.9983 36.1601 40.7405 36.4178 40.3968 36.4178C40.0532 36.4178 39.7954 36.1601 39.7954 35.8164C39.7954 35.3009 39.2799 34.8713 38.6785 34.8713C38.077 34.8713 37.5615 35.3009 37.5615 35.8164C37.5615 36.3319 38.077 36.7615 38.6785 36.7615C39.0221 36.7615 39.2799 37.0193 39.2799 37.3629C39.2799 37.7925 39.0221 38.0503 38.6785 38.0503Z" fill="#08B1F3"/>
<path d="M38.6785 41.315C37.3897 41.315 36.3586 40.2839 36.3586 39.0811C36.3586 38.7374 36.6164 38.4796 36.9601 38.4796C37.3038 38.4796 37.5615 38.7374 37.5615 39.0811C37.5615 39.5966 38.077 40.0262 38.6785 40.0262C39.2799 40.0262 39.7954 39.5966 39.7954 39.0811C39.7954 38.5656 39.2799 38.136 38.6785 38.136C38.3348 38.136 38.077 37.8782 38.077 37.5345C38.077 37.1909 38.3348 36.9331 38.6785 36.9331C39.9672 36.9331 40.9983 37.9641 40.9983 39.167C40.9983 40.2839 39.9672 41.315 38.6785 41.315Z" fill="#08B1F3"/>
<path d="M38.6788 26.7089C38.3351 26.7089 38.0773 26.4512 38.0773 26.1075V24.7328C38.0773 24.3891 38.3351 24.1313 38.6788 24.1313C39.0224 24.1313 39.2802 24.3891 39.2802 24.7328V26.0216C39.2802 26.3652 39.0224 26.7089 38.6788 26.7089Z" fill="#08B1F3"/>
<path d="M38.6788 23.0146C38.3351 23.0146 38.0773 22.7568 38.0773 22.4131V21.0384C38.0773 20.6948 38.3351 20.437 38.6788 20.437C39.0224 20.437 39.2802 20.6948 39.2802 21.0384V22.3272C39.2802 22.6709 39.0224 23.0146 38.6788 23.0146Z" fill="#08B1F3"/>
<path d="M43.2324 27.9975C42.8887 27.9975 42.631 27.7397 42.631 27.3961V26.1073C42.631 25.7636 42.8887 25.5059 43.2324 25.5059C43.5761 25.5059 43.8338 25.7636 43.8338 26.1073V27.3961C43.8338 27.6538 43.5761 27.9975 43.2324 27.9975Z" fill="#08B1F3"/>
<path d="M43.2324 24.3031C42.8887 24.3031 42.631 24.0454 42.631 23.7017V22.327C42.631 21.9833 42.8887 21.7256 43.2324 21.7256C43.5761 21.7256 43.8338 21.9833 43.8338 22.327V23.6158C43.8338 23.9595 43.5761 24.3031 43.2324 24.3031Z" fill="#08B1F3"/>
<path d="M34.1251 27.9975C33.7814 27.9975 33.5236 27.7397 33.5236 27.3961V26.1073C33.5236 25.7636 33.7814 25.5059 34.1251 25.5059C34.4687 25.5059 34.7265 25.7636 34.7265 26.1073V27.3961C34.7265 27.6538 34.4687 27.9975 34.1251 27.9975Z" fill="#08B1F3"/>
<path d="M34.1251 24.3031C33.7814 24.3031 33.5236 24.0454 33.5236 23.7017V22.327C33.5236 21.9833 33.7814 21.7256 34.1251 21.7256C34.4687 21.7256 34.7265 21.9833 34.7265 22.327V23.6158C34.7265 23.9595 34.4687 24.3031 34.1251 24.3031Z" fill="#08B1F3"/>
<path d="M44.7793 49.6491H37.4762C37.1325 49.6491 36.8748 49.3914 36.8748 49.0477C36.8748 48.704 37.1325 48.4463 37.4762 48.4463H44.7793C45.123 48.4463 45.3807 48.704 45.3807 49.0477C45.3807 49.3914 45.123 49.6491 44.7793 49.6491Z" fill="#08B1F3"/>
<path d="M26.6504 47.6732H18.2304C17.8867 47.6732 17.6289 47.4154 17.6289 47.0718V38.6517C17.6289 38.308 17.8867 38.0503 18.2304 38.0503H26.6504C26.9941 38.0503 27.2518 38.308 27.2518 38.6517V47.0718C27.2518 47.3295 26.9941 47.6732 26.6504 47.6732ZM18.9177 46.3844H26.049V39.2532H18.9177V46.3844Z" fill="#08B1F3"/>
<path d="M49.5902 53H22.9554C22.6117 53 22.3539 52.7423 22.3539 52.3986V49.9069C22.3539 49.5633 22.6117 49.3055 22.9554 49.3055C23.2991 49.3055 23.5568 49.5633 23.5568 49.9069V51.7971H48.9028V22.5848C48.9028 20.265 47.0126 18.4607 44.7787 18.4607H22.9554C22.6117 18.4607 22.3539 18.2029 22.3539 17.8592C22.3539 17.5156 22.6117 17.2578 22.9554 17.2578H44.7787C47.7859 17.2578 50.1916 19.6635 50.1916 22.6707V52.5704C50.1916 52.6563 49.9339 53 49.5902 53Z" fill="#08B1F3"/>
<path d="M22.9554 39.2531C22.6117 39.2531 22.3539 38.9953 22.3539 38.6517V27.2245C22.3539 26.8808 22.6117 26.623 22.9554 26.623C23.2991 26.623 23.5568 26.8808 23.5568 27.2245V38.5658C23.5568 38.9953 23.2991 39.2531 22.9554 39.2531Z" fill="#08B1F3"/>
<path d="M22.44 44.7515C22.2681 44.7515 22.0963 44.6656 21.9244 44.4937L20.1201 42.2598C19.8624 42.0021 19.9483 41.5725 20.2061 41.4007C20.4638 41.1429 20.8934 41.2288 21.0652 41.4866L22.354 43.0331L24.0724 40.3696C24.2442 40.1119 24.6738 40.026 24.9316 40.1978C25.1893 40.3696 25.2753 40.7992 25.1034 41.057L22.8695 44.4937C22.8695 44.5797 22.6977 44.7515 22.44 44.7515Z" fill="#08B1F3"/>
<path d="M29.6578 50.508H22.8702C22.5265 50.508 22.2687 50.2502 22.2687 49.9066C22.2687 49.5629 22.5265 49.3051 22.8702 49.3051H28.9704V45.267C28.9704 44.9233 29.2282 44.6655 29.5718 44.6655C29.9155 44.6655 30.1733 44.9233 30.1733 45.267V49.9066C30.3451 50.1643 30.0873 50.508 29.6578 50.508Z" fill="#08B1F3"/>
</svg>
