<svg width="70" height="70" viewBox="0 0 70 70" fill="none" xmlns="http://www.w3.org/2000/svg">
<rect x="0.5" y="0.5" width="69" height="69" rx="34.5" stroke="#08B1F3"/>
<path d="M29.7059 21.2354H41.353" stroke="#08B1F3" stroke-width="1.5" stroke-miterlimit="10" stroke-linecap="round" stroke-linejoin="round"/>
<path d="M50.8824 21.2354H53V53.0001H17V21.2354H19.1176" stroke="#08B1F3" stroke-width="1.5" stroke-miterlimit="10" stroke-linecap="round" stroke-linejoin="round"/>
<path d="M25.4705 17H22.2941V24.4118H25.4705V17Z" stroke="#08B1F3" stroke-width="1.5" stroke-miterlimit="10" stroke-linecap="round" stroke-linejoin="round"/>
<path d="M47.7059 17H44.5294V24.4118H47.7059V17Z" stroke="#08B1F3" stroke-width="1.5" stroke-miterlimit="10" stroke-linecap="round" stroke-linejoin="round"/>
<path d="M53 29.7058H17" stroke="#08B1F3" stroke-width="1.5" stroke-miterlimit="10" stroke-linecap="round" stroke-linejoin="round"/>
<path d="M27.5882 35H22.2941V39.2353H27.5882V35Z" stroke="#08B1F3" stroke-width="1.5" stroke-miterlimit="10" stroke-linecap="round" stroke-linejoin="round"/>
<path d="M38.1764 35H32.8823V39.2353H38.1764V35Z" stroke="#08B1F3" stroke-width="1.5" stroke-miterlimit="10" stroke-linecap="round" stroke-linejoin="round"/>
<path d="M47.7059 35H42.4117V39.2353H47.7059V35Z" stroke="#08B1F3" stroke-width="1.5" stroke-miterlimit="10" stroke-linecap="round" stroke-linejoin="round"/>
<path d="M27.5882 43.4707H22.2941V47.706H27.5882V43.4707Z" stroke="#08B1F3" stroke-width="1.5" stroke-miterlimit="10" stroke-linecap="round" stroke-linejoin="round"/>
<path d="M38.1764 43.4707H32.8823V47.706H38.1764V43.4707Z" stroke="#08B1F3" stroke-width="1.5" stroke-miterlimit="10" stroke-linecap="round" stroke-linejoin="round"/>
<path d="M47.7059 43.4707H42.4117V47.706H47.7059V43.4707Z" stroke="#08B1F3" stroke-width="1.5" stroke-miterlimit="10" stroke-linecap="round" stroke-linejoin="round"/>
</svg>
