<svg width="71" height="70" viewBox="0 0 71 70" fill="none" xmlns="http://www.w3.org/2000/svg">
<rect x="1" y="0.5" width="69" height="69" rx="34.5" stroke="#08B1F3"/>
<path d="M41.5 44C41.5 41.8 39.7 40 37.5 40H33.5C31.3 40 29.5 41.8 29.5 44M35.5 17C35.5 17 27.4 26 19.5 26C19.5 47.3 34.5 53 34.5 53C34.5 53 51.5 47.3 51.5 26C43.6 26 35.5 17 35.5 17ZM39.5 34C39.5 36.2091 37.7091 38 35.5 38C33.2909 38 31.5 36.2091 31.5 34C31.5 31.7909 33.2909 30 35.5 30C37.7091 30 39.5 31.7909 39.5 34Z" stroke="#08B1F3" stroke-width="1.5" stroke-miterlimit="10" stroke-linecap="round" stroke-linejoin="round"/>
</svg>
