<svg width="71" height="70" viewBox="0 0 71 70" fill="none" xmlns="http://www.w3.org/2000/svg">
<rect x="1" y="0.5" width="69" height="69" rx="34.5" stroke="#D9D9D9"/>
<path d="M56.3847 32.6001L33.6705 55.3143C32.9848 56.0001 31.4419 55.4858 30.1562 54.2C28.8705 52.9143 28.3562 51.2858 29.0419 50.6858L51.7562 27.9715M45.5848 43.3143C44.8991 44.0001 43.3562 43.4858 42.0705 42.2C40.7848 40.9143 40.2705 39.2858 40.9562 38.6858M45.4991 50.8571V44C46.9562 44 48.0705 45.2 48.0705 46.5714V56M26.6419 49.1429H22.3562V20H45.4991V30.2857M26.6419 29.4286H40.3562M26.6419 26H40.3562M26.6419 32.8571H40.3562M26.6419 36.2857H36.0705M55.2199 29.1329C56.4919 30.4049 57.0075 31.9516 56.3715 32.5876C55.7355 33.2235 54.1888 32.708 52.9168 31.436C51.6448 30.164 51.1292 28.6173 51.7652 27.9813C52.4012 27.3453 53.9479 27.8609 55.2199 29.1329ZM30.9276 43.1429C30.9276 44.0896 30.1601 44.8571 29.2133 44.8571C28.2666 44.8571 27.4991 44.0896 27.4991 43.1429C27.4991 42.1961 28.2666 41.4286 29.2133 41.4286C30.1601 41.4286 30.9276 42.1961 30.9276 43.1429Z" stroke="#656C6F" stroke-width="1.5" stroke-miterlimit="10" stroke-linecap="round" stroke-linejoin="round"/>
</svg>
