<svg width="70" height="70" viewBox="0 0 70 70" fill="none" xmlns="http://www.w3.org/2000/svg">
<rect x="0.5" y="0.5" width="69" height="69" rx="34.5" stroke="#D9D9D9"/>
<path d="M46 25.05H42V21.05M30 37.05H44M30 41.05H39M30 33.05H44M40 52.05H24.3C22.5 52.05 21 50.55 21 48.75V24.05M25 45.85V20.15C25 18.95 26 17.95 27.2 17.95H43.8C45.8 19.95 47 21.15 49 23.15V45.75C49 46.95 48 47.95 46.8 47.95H27.2C26 48.05 25 47.05 25 45.85ZM30 25.05H34V29.05H30V25.05Z" stroke="#656C6F" stroke-width="1.5" stroke-miterlimit="10" stroke-linecap="round" stroke-linejoin="round"/>
</svg>
