<svg width="71" height="70" viewBox="0 0 71 70" fill="none" xmlns="http://www.w3.org/2000/svg">
<rect x="1" y="0.5" width="69" height="69" rx="34.5" stroke="#D9D9D9"/>
<path d="M28.3001 50.3H22.7201C21.8201 50.3 21.1001 49.58 21.1001 48.68V22.22C21.1001 21.32 21.8201 20.6 22.7201 20.6H27.4001M39.1001 20.6H43.7801C44.6801 20.6 45.4001 21.32 45.4001 22.22V31.4M26.5001 35H40.9001M26.5001 27.8H41.8001M26.5001 38.6H37.3001M26.5001 31.4H39.1001M44.9501 35.45L48.4601 38.96M38.7401 41.66L42.2501 45.17M46.3001 41.12L47.7401 39.68C48.1901 39.23 49.0001 39.23 49.5401 39.68C49.9901 40.13 49.9901 40.94 49.5401 41.48L44.2301 46.79M32.4401 51.56L30.9101 53M38.2001 21.5H27.4001V18.71C27.4001 17.72 28.2101 17 29.1101 17H36.4001C37.3901 17 38.1101 17.81 38.1101 18.71V21.5H38.2001ZM33.8801 51.74L32.8001 52.01C32.4401 51.65 32.3501 51.56 31.9901 51.2L32.2601 50.12C32.5301 48.59 33.3401 47.24 34.4201 46.16L45.6701 34.91C46.6601 33.92 48.1901 33.92 49.1801 34.91C49.6301 35.36 49.9001 35.99 49.9001 36.62C49.9001 37.25 49.6301 37.88 49.1801 38.33L37.9301 49.58C36.7601 50.66 35.4101 51.38 33.8801 51.74Z" stroke="#656C6F" stroke-width="1.5" stroke-miterlimit="10" stroke-linecap="round" stroke-linejoin="round"/>
</svg>
