<svg width="84" height="84" viewBox="0 0 84 84" fill="none" xmlns="http://www.w3.org/2000/svg">
<circle cx="42" cy="42" r="41" stroke="#5CC9F2" stroke-width="2"/>
<path d="M44.9845 31.4089H33.8045C33.4222 31.4089 33.04 31.1222 33.04 30.6444V25.9622C33.04 25.58 33.3267 25.1978 33.8045 25.1978H44.9845C45.3667 25.1978 45.7489 25.4844 45.7489 25.9622V30.6444C45.6534 31.0266 45.3667 31.4089 44.9845 31.4089ZM34.4734 29.88H44.22V26.7266H34.4734V29.88Z" fill="white"/>
<path d="M47.1824 31.4088H31.5113C31.129 31.4088 30.7468 31.1222 30.7468 30.6444V25.1977C30.7468 23.8599 31.7979 22.8088 33.1357 22.8088H45.4624C46.8002 22.8088 47.8513 23.8599 47.8513 25.1977V30.6444C47.9468 31.0266 47.5646 31.4088 47.1824 31.4088ZM32.2757 29.88H46.4179V25.1977C46.4179 24.7199 46.0357 24.2422 45.4624 24.2422H33.1357C32.6579 24.2422 32.1802 24.6244 32.1802 25.1977V29.88H32.2757Z" fill="white"/>
<path d="M41.6393 49.5643H37.1482C36.766 49.5643 36.3838 49.2776 36.3838 48.7999V39.8177C36.3838 39.4354 36.6704 39.0532 37.1482 39.0532H38.7727C39.1549 39.0532 39.5371 39.3399 39.5371 39.8177C39.5371 40.1999 39.2505 40.5821 38.7727 40.5821H37.9127V48.0354H40.9704V45.6466C40.9704 45.2643 41.2571 44.8821 41.7349 44.8821C42.1171 44.8821 42.4993 45.1688 42.4993 45.6466V48.7999C42.4038 49.2776 42.0216 49.5643 41.6393 49.5643Z" fill="white"/>
<path d="M37.0537 44.7867H26.7337C24.0581 44.7867 21.8604 42.5889 21.8604 39.9134V32.3645C21.8604 31.0267 22.9115 29.9756 24.2492 29.9756H54.4448C55.7826 29.9756 56.8337 31.0267 56.8337 32.3645V33.5111C56.8337 33.8934 56.547 34.2756 56.0693 34.2756C55.687 34.2756 55.3048 33.9889 55.3048 33.5111V32.3645C55.3048 31.8867 54.9226 31.4089 54.3492 31.4089H24.1537C23.6759 31.4089 23.1981 31.7911 23.1981 32.3645V39.9134C23.1981 41.8245 24.727 43.3534 26.6381 43.3534H36.1937V40.0089C36.1937 39.6267 36.4804 39.2445 36.9581 39.2445H38.5826C38.9648 39.2445 39.347 39.5312 39.347 40.0089C39.347 40.3912 39.0604 40.7734 38.5826 40.7734H37.7226V44.1178C37.8181 44.4045 37.5315 44.7867 37.0537 44.7867Z" fill="white"/>
<path d="M45.0809 61.7H26.0653C24.2497 61.7 22.8164 60.2667 22.8164 58.4512V42.5889C22.8164 42.3023 23.0075 42.0156 23.2942 41.9201C23.5809 41.8245 23.9631 41.92 24.1542 42.1112C24.8231 42.8756 25.7786 43.3534 26.8298 43.3534H37.1497C37.532 43.3534 37.9142 43.64 37.9142 44.1178V48.2267H40.972V45.8378C40.972 45.4556 41.2586 45.0734 41.7364 45.0734C42.1186 45.0734 42.5009 45.36 42.5009 45.8378V48.9912C42.5009 49.3734 42.2142 49.7556 41.7364 49.7556H37.2453C36.8631 49.7556 36.4809 49.4689 36.4809 48.9912V44.8823H26.9253C26.0653 44.8823 25.2053 44.6912 24.4409 44.2134V58.5467C24.4409 59.5023 25.2053 60.2667 26.1609 60.2667H45.1764C45.5586 60.2667 45.9409 60.5534 45.9409 61.0312C45.8453 61.3178 45.4631 61.7 45.0809 61.7Z" fill="white"/>
<path d="M42.4996 52.431H36.193C35.8107 52.431 35.4285 52.1443 35.4285 51.6665V48.7998C35.4285 48.4176 35.7152 48.0354 36.193 48.0354H42.4996C42.8819 48.0354 43.2641 48.3221 43.2641 48.7998V51.6665C43.2641 52.1443 42.8819 52.431 42.4996 52.431ZM36.9574 50.9976H41.7352V49.6598H36.9574V50.9976Z" fill="white"/>
<path d="M54.4453 61.7H45.0809C44.6986 61.7 44.3164 61.4134 44.3164 60.9356V57.7823C44.3164 57.4 44.6031 57.0178 45.0809 57.0178H54.4453C54.8275 57.0178 55.2097 57.3045 55.2097 57.7823V60.9356C55.2097 61.3178 54.8275 61.7 54.4453 61.7ZM45.8453 60.1711H53.7764V58.5467H45.8453V60.1711Z" fill="white"/>
<path d="M54.4453 58.5467H45.0809C44.6986 58.5467 44.3164 58.26 44.3164 57.7823V54.6289C44.3164 54.2467 44.6031 53.8645 45.0809 53.8645H54.4453C54.8275 53.8645 55.2097 54.1512 55.2097 54.6289V57.7823C55.2097 58.1645 54.8275 58.5467 54.4453 58.5467ZM45.8453 57.0178H53.7764V55.3934H45.8453V57.0178Z" fill="white"/>
<path d="M54.4453 55.3932H45.0809C44.6986 55.3932 44.3164 55.1065 44.3164 54.6287V51.4754C44.3164 51.0932 44.6031 50.7109 45.0809 50.7109H54.4453C54.8275 50.7109 55.2097 50.9976 55.2097 51.4754V54.6287C55.2097 55.1065 54.8275 55.3932 54.4453 55.3932ZM45.8453 53.9598H53.7764V52.3354H45.8453V53.9598Z" fill="white"/>
<path d="M54.4453 52.3355H45.0809C44.6986 52.3355 44.3164 52.0489 44.3164 51.5711V48.4178C44.3164 48.0355 44.6031 47.6533 45.0809 47.6533H54.4453C54.8275 47.6533 55.2097 47.94 55.2097 48.4178V51.5711C55.2097 51.9533 54.8275 52.3355 54.4453 52.3355ZM45.8453 50.8066H53.7764V49.1822H45.8453V50.8066Z" fill="white"/>
<path d="M54.4453 49.1822H45.0809C44.6986 49.1822 44.3164 48.8956 44.3164 48.4178V45.2645C44.3164 44.8822 44.6031 44.5 45.0809 44.5H54.4453C54.8275 44.5 55.2097 44.7867 55.2097 45.2645V48.4178C55.2097 48.8 54.8275 49.1822 54.4453 49.1822ZM45.8453 47.6534H53.7764V46.0289H45.8453V47.6534Z" fill="white"/>
<path d="M47.278 47.08C46.8958 47.08 46.5135 46.7933 46.5135 46.3155V45.2645C46.5135 44.8822 46.8002 44.5 47.278 44.5C47.6602 44.5 48.0424 44.7867 48.0424 45.2645V46.3155C47.9469 46.7933 47.6602 47.08 47.278 47.08Z" fill="white"/>
<path d="M51.3866 50.4244C51.0044 50.4244 50.6222 50.1377 50.6222 49.66V48.4178C50.6222 48.0355 50.9088 47.6533 51.3866 47.6533C51.7688 47.6533 52.1511 47.94 52.1511 48.4178V49.66C52.0555 50.1377 51.7688 50.4244 51.3866 50.4244Z" fill="white"/>
<path d="M48.0418 53.482C47.6596 53.482 47.2773 53.1954 47.2773 52.7176V51.4754C47.2773 51.0932 47.564 50.7109 48.0418 50.7109C48.424 50.7109 48.8062 50.9976 48.8062 51.4754V52.7176C48.8062 53.1954 48.5196 53.482 48.0418 53.482Z" fill="white"/>
<path d="M50.3359 56.2534C49.9537 56.2534 49.5715 55.9667 49.5715 55.4889V54.6289C49.5715 54.2467 49.8582 53.8645 50.3359 53.8645C50.7182 53.8645 51.1004 54.1512 51.1004 54.6289V55.4889C51.1004 55.9667 50.7182 56.2534 50.3359 56.2534Z" fill="white"/>
<path d="M48.2332 59.5978C47.851 59.5978 47.4688 59.3111 47.4688 58.8334V57.7823C47.4688 57.4 47.7554 57.0178 48.2332 57.0178C48.6154 57.0178 48.9976 57.3045 48.9976 57.7823V58.8334C48.9976 59.3111 48.711 59.5978 48.2332 59.5978Z" fill="white"/>
<path d="M61.134 61.7H54.4451C54.0629 61.7 53.6807 61.4134 53.6807 60.9356V57.7823C53.6807 57.4 53.9673 57.0178 54.4451 57.0178H61.134C61.5162 57.0178 61.8984 57.3045 61.8984 57.7823V60.9356C61.8984 61.3178 61.5162 61.7 61.134 61.7ZM55.2095 60.1711H60.3696V58.5467H55.2095V60.1711Z" fill="white"/>
<path d="M61.134 58.5467H54.4451C54.0629 58.5467 53.6807 58.26 53.6807 57.7823V54.6289C53.6807 54.2467 53.9673 53.8645 54.4451 53.8645H61.134C61.5162 53.8645 61.8984 54.1512 61.8984 54.6289V57.7823C61.8984 58.1645 61.5162 58.5467 61.134 58.5467ZM55.2095 57.0178H60.3696V55.3934H55.2095V57.0178Z" fill="white"/>
<path d="M61.134 55.3932H54.4451C54.0629 55.3932 53.6807 55.1065 53.6807 54.6287V51.4754C53.6807 51.0932 53.9673 50.7109 54.4451 50.7109H61.134C61.5162 50.7109 61.8984 50.9976 61.8984 51.4754V54.6287C61.8984 55.1065 61.5162 55.3932 61.134 55.3932ZM55.2095 53.9598H60.3696V52.3354H55.2095V53.9598Z" fill="white"/>
<path d="M57.0252 56.2534C56.643 56.2534 56.2607 55.9667 56.2607 55.4889V54.6289C56.2607 54.2467 56.5474 53.8645 57.0252 53.8645C57.4074 53.8645 57.7896 54.1512 57.7896 54.6289V55.4889C57.6941 55.9667 57.4074 56.2534 57.0252 56.2534Z" fill="white"/>
<path d="M56.6422 59.5978C56.26 59.5978 55.8778 59.3111 55.8778 58.8334V57.7823C55.8778 57.4 56.1645 57.0178 56.6422 57.0178C57.0245 57.0178 57.4067 57.3045 57.4067 57.7823V58.8334C57.4067 59.3111 57.0245 59.5978 56.6422 59.5978Z" fill="white"/>
<path d="M45.8444 43.9266C42.6911 43.9266 40.1111 41.3466 40.1111 38.1933C40.1111 35.0399 42.6911 32.46 45.8444 32.46C48.9978 32.46 51.5778 35.0399 51.5778 38.1933C51.5778 41.4422 48.9978 43.9266 45.8444 43.9266ZM45.8444 33.9888C43.5511 33.9888 41.64 35.8999 41.64 38.1933C41.64 40.4866 43.5511 42.3977 45.8444 42.3977C48.1378 42.3977 50.0489 40.4866 50.0489 38.1933C50.1444 35.8999 48.2333 33.9888 45.8444 33.9888Z" fill="white"/>
<path d="M45.8443 41.6334C44.6976 41.6334 43.7421 40.6778 43.7421 39.6267C43.7421 39.2445 44.0287 38.8623 44.5065 38.8623C44.8887 38.8623 45.271 39.1489 45.271 39.6267C45.271 39.9134 45.5576 40.2 45.9399 40.2C46.3221 40.2 46.6087 39.9134 46.6087 39.6267C46.6087 39.34 46.3221 39.0534 45.9399 39.0534C44.7932 39.0534 43.8376 38.0978 43.8376 37.0467C43.8376 35.9 44.7932 35.04 45.9399 35.04C47.0865 35.04 48.0421 35.9956 48.0421 37.0467C48.0421 37.4289 47.7554 37.8111 47.2776 37.8111C46.8954 37.8111 46.5132 37.5245 46.5132 37.0467C46.5132 36.76 46.2265 36.4734 45.8443 36.4734C45.4621 36.4734 45.1754 36.76 45.1754 37.0467C45.1754 37.3334 45.4621 37.6201 45.8443 37.6201C46.991 37.6201 47.9465 38.5756 47.9465 39.6267C48.0421 40.6778 47.0865 41.6334 45.8443 41.6334Z" fill="white"/>
<path d="M54.6358 46.0289C54.2536 46.0289 53.8714 45.7423 53.8714 45.2645C53.8714 44.8823 54.1581 44.5 54.6358 44.5C56.9292 44.5 58.8403 42.5889 58.8403 40.2956C58.8403 38.0023 56.9292 36.0912 54.6358 36.0912C54.1581 36.0912 53.6803 36.1867 53.2025 36.2822C52.8203 36.3778 52.4381 36.1867 52.2469 35.8045C52.1514 35.4223 52.3425 35.04 52.7247 34.8489C53.2981 34.6578 53.9669 34.5623 54.6358 34.5623C57.7892 34.5623 60.3692 37.1423 60.3692 40.2956C60.3692 43.4489 57.7892 46.0289 54.6358 46.0289Z" fill="white"/>
<path d="M54.6356 43.7354C53.4889 43.7354 52.5333 42.7799 52.5333 41.7287C52.5333 41.3465 52.82 40.9643 53.2978 40.9643C53.68 40.9643 54.0622 41.251 54.0622 41.7287C54.0622 42.0154 54.3489 42.3021 54.7311 42.3021C55.1133 42.3021 55.4 42.0154 55.4 41.7287C55.4 41.4421 55.1133 41.1554 54.7311 41.1554C53.5844 41.1554 52.6289 40.1998 52.6289 39.1487C52.6289 38.0021 53.5844 37.1421 54.7311 37.1421C55.8778 37.1421 56.8333 38.0976 56.8333 39.1487C56.8333 39.531 56.5467 39.9132 56.0689 39.9132C55.6867 39.9132 55.3044 39.6265 55.3044 39.1487C55.3044 38.8621 55.0178 38.5754 54.6356 38.5754C54.2533 38.5754 53.9667 38.8621 53.9667 39.1487C53.9667 39.4354 54.2533 39.7221 54.6356 39.7221C55.7822 39.7221 56.7378 40.6776 56.7378 41.7287C56.7378 42.7799 55.7822 43.7354 54.6356 43.7354Z" fill="white"/>
<path d="M39.347 35.231H22.6248C22.2426 35.231 21.8604 34.9444 21.8604 34.4666C21.8604 33.9888 22.147 33.7021 22.6248 33.7021H39.347C39.7293 33.7021 40.1115 33.9888 40.1115 34.4666C40.1115 34.9444 39.7293 35.231 39.347 35.231Z" fill="white"/>
<path d="M40.8754 58.1645H26.7332C26.351 58.1645 25.9688 57.8778 25.9688 57.4001V46.8889C25.9688 46.5067 26.2554 46.1245 26.7332 46.1245C27.1154 46.1245 27.4976 46.4112 27.4976 46.8889V56.6356H40.8754C41.2576 56.6356 41.6399 56.9223 41.6399 57.4001C41.6399 57.7823 41.2576 58.1645 40.8754 58.1645Z" fill="white"/>
<path d="M63.2356 61.7H21.7644C21.3822 61.7 21 61.4134 21 60.9356C21 60.5534 21.2867 60.1711 21.7644 60.1711H63.2356C63.6178 60.1711 64 60.4578 64 60.9356C64 61.3178 63.6178 61.7 63.2356 61.7Z" fill="white"/>
</svg>
