<svg width="84" height="84" viewBox="0 0 84 84" fill="none" xmlns="http://www.w3.org/2000/svg">
<circle cx="42" cy="42" r="41" stroke="#5CC9F2" stroke-width="2"/>
<path d="M40.6575 58.5675H26.7175C26.3075 58.5675 26 58.26 26 57.85V23.7175C26 23.3075 26.3075 23 26.7175 23H52.24C52.65 23 52.9575 23.3075 52.9575 23.7175V42.5775C52.9575 42.9875 52.65 43.295 52.24 43.295C51.83 43.295 51.5225 42.9875 51.5225 42.5775V24.3325H27.3325V57.235H40.6575C41.0675 57.235 41.375 57.5425 41.375 57.9525C41.375 58.26 41.0675 58.5675 40.6575 58.5675Z" fill="white"/>
<path d="M42.0926 61.4374H29.5876C29.1776 61.4374 28.8701 61.1299 28.8701 60.7199V57.9524C28.8701 57.5424 29.1776 57.2349 29.5876 57.2349C29.9976 57.2349 30.3051 57.5424 30.3051 57.9524V60.1049H42.0926C42.5026 60.1049 42.8101 60.4124 42.8101 60.8224C42.8101 61.1299 42.5026 61.4374 42.0926 61.4374Z" fill="white"/>
<path d="M55.11 45.96C54.7 45.96 54.3925 45.6525 54.3925 45.2425V27.1H52.24C51.83 27.1 51.5225 26.7925 51.5225 26.3825C51.5225 25.9725 51.83 25.665 52.24 25.665H55.11C55.52 25.665 55.8275 25.9725 55.8275 26.3825V45.2425C55.725 45.6525 55.4175 45.96 55.11 45.96Z" fill="white"/>
<path d="M41.2718 27.9201H37.5818C37.1718 27.9201 36.8643 27.6126 36.8643 27.2026C36.8643 26.7926 37.1718 26.4851 37.5818 26.4851H41.2718C41.6818 26.4851 41.9893 26.7926 41.9893 27.2026C41.9893 27.6126 41.6818 27.9201 41.2718 27.9201Z" fill="white"/>
<path d="M47.525 30.9951H31.33C30.92 30.9951 30.6125 30.6876 30.6125 30.2776C30.6125 29.8676 30.92 29.5601 31.33 29.5601H47.525C47.935 29.5601 48.2425 29.8676 48.2425 30.2776C48.2425 30.6876 47.935 30.9951 47.525 30.9951Z" fill="white"/>
<path d="M47.525 34.07H31.33C30.92 34.07 30.6125 33.7625 30.6125 33.3525C30.6125 32.9425 30.92 32.635 31.33 32.635H47.525C47.935 32.635 48.2425 32.9425 48.2425 33.3525C48.2425 33.7625 47.935 34.07 47.525 34.07Z" fill="white"/>
<path d="M47.525 37.145H31.33C30.92 37.145 30.6125 36.8375 30.6125 36.4275C30.6125 36.0175 30.92 35.71 31.33 35.71H47.525C47.935 35.71 48.2425 36.0175 48.2425 36.4275C48.2425 36.8375 47.935 37.145 47.525 37.145Z" fill="white"/>
<path d="M47.525 40.2199H31.33C30.92 40.2199 30.6125 39.9124 30.6125 39.5024C30.6125 39.0924 30.92 38.7849 31.33 38.7849H47.525C47.935 38.7849 48.2425 39.0924 48.2425 39.5024C48.2425 39.9124 47.935 40.2199 47.525 40.2199Z" fill="white"/>
<path d="M41.58 43.1926H31.33C30.92 43.1926 30.6125 42.8851 30.6125 42.4751C30.6125 42.0651 30.92 41.7576 31.33 41.7576H41.58C41.99 41.7576 42.2975 42.0651 42.2975 42.4751C42.195 42.9876 41.8875 43.1926 41.58 43.1926Z" fill="white"/>
<path d="M42.6048 46.2675H31.4324C31.0224 46.2675 30.7148 45.96 30.7148 45.55C30.7148 45.14 31.0224 44.8325 31.4324 44.8325H42.6048C43.0148 44.8325 43.3223 45.14 43.3223 45.55C43.2198 45.96 42.9123 46.2675 42.6048 46.2675Z" fill="white"/>
<path d="M38.6074 49.3425H31.4324C31.0224 49.3425 30.7148 49.035 30.7148 48.625C30.7148 48.215 31.0224 47.9075 31.4324 47.9075H38.6074C39.0174 47.9075 39.3249 48.215 39.3249 48.625C39.2224 49.035 38.9149 49.3425 38.6074 49.3425Z" fill="white"/>
<path d="M36.045 52.4174H31.33C30.92 52.4174 30.6125 52.1099 30.6125 51.6999C30.6125 51.2899 30.92 50.9824 31.33 50.9824H36.045C36.455 50.9824 36.7625 51.2899 36.7625 51.6999C36.7625 52.1099 36.455 52.4174 36.045 52.4174Z" fill="white"/>
<path d="M47.9354 50.265C47.7304 50.265 47.4229 50.1625 47.3204 49.9575L42.9129 41.86C42.7079 41.5525 42.8104 41.1425 43.2204 40.9375C43.5279 40.7325 43.9379 40.835 44.1429 41.245L48.5504 49.3425C48.7554 49.65 48.6529 50.06 48.2429 50.265C48.1404 50.265 48.0379 50.265 47.9354 50.265Z" fill="white"/>
<path d="M51.4202 56.7224C51.2152 56.7224 50.9077 56.6199 50.8052 56.3124C49.9852 54.5699 50.8052 53.0324 51.6252 52.2124L49.3702 48.2149C49.1652 47.9074 49.2677 47.4974 49.6777 47.2924C49.9852 47.0874 50.3952 47.1899 50.6002 47.5999L53.0602 52.1099C53.2652 52.4174 53.1627 52.7249 52.8552 52.9299C52.7527 52.9299 51.3177 54.1599 52.0352 55.6974C52.2402 56.0049 52.0352 56.4149 51.7277 56.6199C51.6252 56.7224 51.5227 56.7224 51.4202 56.7224Z" fill="white"/>
<path d="M47.6282 64C47.4232 64 47.1157 63.8975 47.0132 63.6925C46.3982 62.565 45.6807 61.54 44.7582 60.72C43.8357 59.7975 43.0157 58.7725 42.5032 57.645L40.6582 54.2625C40.4532 53.955 40.5557 53.545 40.9657 53.34C41.2732 53.135 41.6832 53.2375 41.8882 53.6475L43.7332 57.03C44.2457 58.055 44.9632 58.9775 45.7832 59.695C46.8082 60.72 47.6282 61.745 48.3457 62.975C48.5507 63.2825 48.4482 63.6925 48.0382 63.8976C47.8332 64.0001 47.7307 64 47.6282 64Z" fill="white"/>
<path d="M57.7757 62.8726C57.5707 62.8726 57.2632 62.7701 57.1607 62.5651L54.3932 57.4401C54.2907 57.3376 54.2907 57.1326 54.2907 56.9276L55.1107 53.6476C55.3157 52.8276 55.2132 51.9051 54.8032 51.1876L52.3432 46.6776C52.0357 46.1651 51.4207 45.9601 51.0107 46.1651C50.7032 46.2676 50.4982 46.4726 50.3957 46.7801C50.2932 47.0876 50.2932 47.3951 50.4982 47.6001C50.7032 47.9076 50.6007 48.3176 50.1907 48.5226C49.8832 48.7276 49.4732 48.6251 49.2682 48.2151L45.0657 40.6301C44.8607 40.3226 44.5532 40.1176 44.2457 40.2201C44.0407 40.3226 43.9382 40.4251 43.8357 40.6301C43.7332 40.8351 43.7332 41.0401 43.8357 41.1426C44.0407 41.4501 43.9382 41.8601 43.5282 42.0651C43.2207 42.2701 42.8107 42.1676 42.6057 41.7576C42.2982 41.2451 42.2982 40.6301 42.5032 40.1176C42.7082 39.6051 43.1182 39.0926 43.7332 38.9901C44.6557 38.6826 45.6807 39.0926 46.1932 40.0151L49.3707 45.7551C49.5757 45.4476 49.9857 45.1401 50.3957 44.9351C51.5232 44.4226 52.8557 44.9351 53.4707 46.0626L55.9307 50.5726C56.5457 51.5976 56.6482 52.8276 56.3407 53.9551L55.5207 57.0301L58.1857 61.9501C58.3907 62.2576 58.2882 62.6676 57.8782 62.8726C57.9807 62.8726 57.8782 62.8726 57.7757 62.8726Z" fill="white"/>
<path d="M46.6025 52.11C45.885 52.11 45.1676 51.7 44.8601 51.085L43.8351 49.24C43.6301 48.7275 43.5276 48.215 43.6301 47.7025C43.7326 47.19 44.1425 46.78 44.5525 46.4725C45.065 46.2675 45.5775 46.165 46.09 46.2675C46.6025 46.37 47.0126 46.78 47.3201 47.19L48.3451 49.035C48.8576 49.9575 48.5501 51.1875 47.5251 51.7C47.3201 52.0075 47.0125 52.11 46.6025 52.11ZM45.5775 47.4975C45.475 47.4975 45.3726 47.4975 45.2701 47.6C45.0651 47.7025 44.9626 47.805 44.9626 48.01C44.9626 48.215 44.9625 48.3175 45.065 48.5225L46.09 50.3675C46.295 50.675 46.7051 50.7775 47.0126 50.675C47.3201 50.47 47.4226 50.06 47.3201 49.7525L46.2951 47.9075C46.1926 47.805 46.0901 47.6 45.8851 47.6C45.7826 47.4975 45.68 47.4975 45.5775 47.4975Z" fill="white"/>
<path d="M44.3469 53.34C44.1419 53.34 43.9369 53.34 43.7319 53.2375C43.2194 53.135 42.8094 52.725 42.5019 52.315L41.4769 50.47C40.9644 49.5475 41.2719 48.3175 42.2969 47.805C42.8094 47.6 43.3219 47.4975 43.8344 47.6C44.3469 47.7025 44.7569 48.1125 45.0644 48.5225L46.0894 50.3675C46.6019 51.29 46.2944 52.52 45.2694 53.0325C44.9619 53.2375 44.6544 53.34 44.3469 53.34ZM43.3219 48.83C43.2194 48.83 43.1169 48.83 43.0144 48.9325C42.8094 49.035 42.7069 49.1375 42.7069 49.3425C42.7069 49.5475 42.7069 49.65 42.8094 49.855L43.8344 51.7C43.9369 51.905 44.0394 52.0075 44.2444 52.0075C44.4494 52.0075 44.5519 52.0075 44.7569 51.905C45.0644 51.7 45.1669 51.29 45.0644 50.9825L44.0394 49.1375C43.9369 48.9325 43.8344 48.83 43.6294 48.83C43.4244 48.83 43.3219 48.83 43.3219 48.83Z" fill="white"/>
<path d="M42.3996 55.2875C41.6821 55.2875 40.9646 54.8775 40.6571 54.2625L39.6321 52.4175C39.1196 51.495 39.4271 50.265 40.4521 49.7525C40.9646 49.5475 41.4771 49.445 41.9896 49.5475C42.5021 49.65 42.9121 50.06 43.2196 50.47L44.2446 52.315C44.4496 52.8275 44.5521 53.34 44.4496 53.8525C44.3471 54.365 43.9371 54.775 43.5271 55.0825C43.0146 55.185 42.7071 55.2875 42.3996 55.2875ZM41.3746 50.7775C41.2721 50.7775 41.1696 50.7775 41.0671 50.88C40.8621 50.9825 40.7596 51.085 40.7596 51.29C40.7596 51.495 40.7596 51.5975 40.8621 51.8025L41.8871 53.6475C42.0921 53.955 42.5021 54.0575 42.8096 53.955C42.9121 53.8525 43.1171 53.75 43.1171 53.545C43.1171 53.34 43.1171 53.2375 43.0146 53.0325L41.9896 51.1875C41.8871 51.085 41.7846 50.88 41.5796 50.88C41.4771 50.7775 41.3746 50.7775 41.3746 50.7775Z" fill="white"/>
</svg>
