<svg width="84" height="84" viewBox="0 0 84 84" fill="none" xmlns="http://www.w3.org/2000/svg">
<path d="M27.0376 61.2508C24.8063 61.2508 23 59.4445 23 57.2132V23.7438C23 23.3188 23.3188 23 23.7438 23H52.8569C53.2819 23 53.6007 23.3188 53.6007 23.7438V54.2382C53.6007 54.6632 53.2819 54.9819 52.8569 54.9819C52.4319 54.9819 52.1132 54.6632 52.1132 54.2382V24.4875H24.3813V57.2132C24.3813 58.7008 25.5501 59.8696 27.0376 59.8696C27.4626 59.8696 27.7814 60.1883 27.7814 60.6133C27.7814 61.0383 27.3564 61.2508 27.0376 61.2508Z" fill="white"/>
<path d="M58.1703 61.2508H26.8259C26.4009 61.2508 26.0822 60.9321 26.0822 60.5071C26.0822 60.0821 26.4009 59.7633 26.8259 59.7633H58.1703C59.5516 59.7633 60.6141 58.7008 60.6141 57.3195C60.6141 55.9383 59.5516 54.8757 58.1703 54.8757H26.8259C26.4009 54.8757 26.0822 54.557 26.0822 54.132C26.0822 53.707 26.4009 53.3882 26.8259 53.3882H58.1703C60.2954 53.3882 61.9954 55.0882 61.9954 57.2133C62.1017 59.5508 60.2954 61.2508 58.1703 61.2508Z" fill="white"/>
<path d="M26.8251 61.2508C24.7 61.2508 23 59.5507 23 57.4257C23 57.0007 23.3188 56.682 23.7438 56.682C24.1688 56.682 24.4876 57.0007 24.4876 57.4257C24.4876 58.807 25.5501 59.8695 26.9313 59.8695C28.3126 59.8695 29.3751 58.807 29.3751 57.4257C29.3751 56.0444 28.3126 54.9819 26.9313 54.9819C26.5063 54.9819 26.1876 54.6631 26.1876 54.2381C26.1876 53.8131 26.5063 53.4944 26.9313 53.4944C29.0564 53.4944 30.7564 55.1944 30.7564 57.3195C30.6502 59.5508 28.9501 61.2508 26.8251 61.2508Z" fill="white"/>
<path d="M46.2687 27.9939H30.4371C30.0121 27.9939 29.6934 27.6751 29.6934 27.2501C29.6934 26.8251 30.0121 26.5063 30.4371 26.5063H46.2687C46.6937 26.5063 47.0125 26.8251 47.0125 27.2501C47.0125 27.6751 46.6937 27.9939 46.2687 27.9939Z" fill="white"/>
<path d="M48.713 30.7563H27.9938C27.5688 30.7563 27.25 30.4376 27.25 30.0126C27.25 29.5876 27.5688 29.2688 27.9938 29.2688H48.713C49.138 29.2688 49.4568 29.5876 49.4568 30.0126C49.4568 30.4376 49.138 30.7563 48.713 30.7563Z" fill="white"/>
<path d="M48.713 33.519H27.9938C27.5688 33.519 27.25 33.2003 27.25 32.7753C27.25 32.3503 27.5688 32.0315 27.9938 32.0315H48.713C49.138 32.0315 49.4568 32.3503 49.4568 32.7753C49.3505 33.2003 49.138 33.519 48.713 33.519Z" fill="white"/>
<path d="M48.713 36.2815H27.9938C27.5688 36.2815 27.25 35.9627 27.25 35.5377C27.25 35.1127 27.5688 34.7939 27.9938 34.7939H48.713C49.138 34.7939 49.4568 35.1127 49.4568 35.5377C49.4568 35.9627 49.138 36.2815 48.713 36.2815Z" fill="white"/>
<path d="M48.713 39.0442H27.9938C27.5688 39.0442 27.25 38.7254 27.25 38.3004C27.25 37.8754 27.5688 37.5566 27.9938 37.5566H48.713C49.138 37.5566 49.4568 37.8754 49.4568 38.3004C49.4568 38.7254 49.138 39.0442 48.713 39.0442Z" fill="white"/>
<path d="M48.713 41.8066H27.9938C27.5688 41.8066 27.25 41.4878 27.25 41.0628C27.25 40.6378 27.5688 40.3191 27.9938 40.3191H48.713C49.138 40.3191 49.4568 40.6378 49.4568 41.0628C49.4568 41.4878 49.138 41.8066 48.713 41.8066Z" fill="white"/>
<path d="M29.4812 51.6881C29.1624 51.6881 28.7374 51.5819 28.5249 51.3694C27.8874 50.9444 27.6749 50.2006 27.8874 49.4568L28.0999 48.7131C28.0999 48.6068 28.0999 48.5006 27.9936 48.3943L27.3561 47.9693C26.7186 47.5443 26.5061 46.8005 26.7186 46.0568C26.9311 45.313 27.5686 44.888 28.3124 44.888H29.0562C29.1624 44.888 29.2687 44.7817 29.3749 44.6755L29.5874 43.9317C29.7999 43.188 30.4374 42.7629 31.1812 42.7629C31.925 42.7629 32.5625 43.188 32.775 43.9317L32.9875 44.6755C32.9875 44.7817 33.0938 44.888 33.3063 44.888H34.05C34.7938 44.888 35.4313 45.313 35.6438 46.0568C35.8563 46.8005 35.6438 47.5443 35.0063 47.9693L34.3688 48.3943C34.2625 48.5006 34.2625 48.6068 34.2625 48.7131L34.475 49.4568C34.6875 50.2006 34.475 50.9444 33.8375 51.3694C33.2 51.7944 32.4562 51.7944 31.8187 51.3694L31.1812 50.9444C31.075 50.8381 30.9687 50.8381 30.8625 50.9444L30.2249 51.3694C30.2249 51.5819 29.9062 51.6881 29.4812 51.6881ZM28.4186 46.2693C28.2061 46.2693 28.2062 46.3755 28.0999 46.4818C28.0999 46.588 28.0999 46.6943 28.2062 46.8005L28.8437 47.2255C29.4812 47.6506 29.6937 48.3943 29.4812 49.1381L29.2687 49.8819C29.1624 50.0944 29.2687 50.2006 29.3749 50.2006C29.4812 50.2006 29.5874 50.3069 29.6937 50.2006L30.3312 49.7756C30.9687 49.3506 31.7125 49.3506 32.35 49.7756L32.9875 50.2006C33.0938 50.3069 33.3063 50.2006 33.3063 50.2006C33.4125 50.2006 33.5188 50.0944 33.4125 49.8819L33.2 49.1381C32.9875 48.3943 33.2 47.6506 33.8375 47.2255L34.475 46.8005C34.5813 46.6943 34.5813 46.588 34.5813 46.4818C34.5813 46.3755 34.475 46.2693 34.2625 46.2693H33.5188C32.775 46.2693 32.1375 45.8443 31.925 45.1005L31.7125 44.3567C31.6062 44.1442 31.5 44.1442 31.3937 44.1442C31.2875 44.1442 31.1812 44.1442 31.075 44.3567L30.8625 45.1005C30.65 45.8443 30.0125 46.2693 29.2687 46.2693H28.4186Z" fill="white"/>
<path d="M40.1062 49.9881C39.8937 49.9881 39.7874 49.8819 39.5749 49.7756C39.2562 49.4569 39.2562 49.0319 39.5749 48.8194C39.7874 48.6069 40 48.3944 40.2125 48.1818C40 47.9693 39.8937 47.7568 39.8937 47.5443C39.575 46.5881 40 45.1005 42.3375 44.1442C42.7625 44.038 43.7188 43.613 44.25 44.2505C44.4625 44.5693 44.7813 45.1005 42.7625 47.5443C42.8688 47.5443 42.975 47.5443 43.0813 47.5443C44.2501 47.2256 44.9938 46.3755 45.5251 45.8443C45.8438 45.4193 46.2689 44.9943 46.8001 45.2068C47.4376 45.4193 47.4376 46.0568 47.4376 46.6943C47.6501 49.5631 47.6501 49.5631 47.0126 49.7756C46.6938 49.8819 46.2689 49.6694 46.1626 49.3506C46.1626 49.2444 46.1626 49.1381 46.1626 49.0319C46.1626 48.9256 46.1626 48.6068 46.0563 47.3318C45.5251 47.9693 44.5688 48.7131 43.4 48.9256C42.7625 49.1381 42.125 49.0318 41.5937 48.9256C41.3812 49.2443 41.0625 49.4569 40.7437 49.7756C40.425 49.8819 40.2125 49.9881 40.1062 49.9881ZM42.4438 45.5255C41.4875 46.0568 41.0625 46.6943 41.1687 47.0131C41.5937 46.5881 42.125 45.9505 42.4438 45.5255Z" fill="white"/>
<circle cx="42" cy="42" r="41" stroke="#5CC9F2" stroke-width="2"/>
</svg>
