<svg width="84" height="84" viewBox="0 0 84 84" fill="none" xmlns="http://www.w3.org/2000/svg">
<circle cx="42" cy="42" r="41" stroke="#5CC9F2" stroke-width="2"/>
<path d="M31.8538 45.9297C31.4996 45.9297 31.1455 45.6641 31.1455 45.2215V42.1228C31.1455 38.493 35.1294 35.7485 38.4937 35.7485C38.8478 35.7485 39.2019 36.0141 39.2019 36.4568C39.2019 36.8109 38.9363 37.165 38.4937 37.165C35.7492 37.165 32.4735 39.3784 32.4735 42.2114V45.31C32.4735 45.5756 32.2079 45.9297 31.8538 45.9297Z" fill="white"/>
<path d="M36.2795 45.9298C35.9254 45.9298 35.5713 45.6642 35.5713 45.2215V43.6279C35.5713 43.2738 35.8369 42.9197 36.2795 42.9197C36.6337 42.9197 36.9878 43.1853 36.9878 43.6279V45.2215C36.8993 45.5756 36.6337 45.9298 36.2795 45.9298Z" fill="white"/>
<path d="M50.3557 57.4391C50.0016 57.4391 49.6475 57.1735 49.6475 56.7308V43.5396C49.6475 43.1854 49.913 42.8313 50.3557 42.8313C50.7098 42.8313 51.064 43.0969 51.064 43.5396V56.7308C51.064 57.1735 50.7098 57.4391 50.3557 57.4391Z" fill="white"/>
<path d="M43.274 33.978C40.2639 33.978 37.785 31.4991 37.785 28.489C37.785 25.4789 40.2639 23 43.274 23C46.2841 23 48.763 25.4789 48.763 28.489C48.763 31.5876 46.2841 33.978 43.274 33.978ZM43.274 24.4165C40.9722 24.4165 39.113 26.2757 39.113 28.5775C39.113 30.8794 40.9722 32.7385 43.274 32.7385C45.5758 32.7385 47.435 30.8794 47.435 28.5775C47.435 26.2757 45.5758 24.4165 43.274 24.4165Z" fill="white"/>
<path d="M47.7005 61.6H29.9055C29.5514 61.6 29.1973 61.3344 29.1973 60.8918V55.5798C29.1973 55.2257 29.4629 54.8716 29.9055 54.8716C30.2597 54.8716 30.6138 55.1372 30.6138 55.5798V60.1835H47.789C48.1431 60.1835 48.4973 60.4491 48.4973 60.8918C48.4087 61.3344 48.1431 61.6 47.7005 61.6Z" fill="white"/>
<path d="M29.9055 49.648C29.5514 49.648 29.1973 49.3825 29.1973 48.9398V45.2214C29.1973 44.8673 29.4629 44.5132 29.9055 44.5132H47.7005C48.0546 44.5132 48.4087 44.7788 48.4087 45.2214C48.4087 45.6641 48.1431 45.9297 47.7005 45.9297H30.5252V49.0283C30.6138 49.2939 30.2597 49.648 29.9055 49.648Z" fill="white"/>
<path d="M51.0643 57.4391H47.7001C47.346 57.4391 46.9919 57.1735 46.9919 56.7308C46.9919 56.3767 47.2574 56.0225 47.7001 56.0225H51.0643C53.012 56.0225 54.5171 54.429 54.5171 52.5698V42.123C54.5171 39.3785 52.3038 37.0767 49.4707 37.0767H47.6116C47.2575 37.0767 46.9033 36.8111 46.9033 36.3684C46.9033 36.0143 47.1689 35.6602 47.6116 35.6602H49.4707C53.012 35.6602 55.8451 38.4932 55.8451 42.0345V52.4813C55.9336 55.3143 53.7203 57.4391 51.0643 57.4391Z" fill="white"/>
<path d="M47.7004 61.5999C47.3463 61.5999 46.9922 61.3343 46.9922 60.8916V45.2214C46.9922 44.8673 47.2578 44.5132 47.7004 44.5132C48.0546 44.5132 48.4087 44.7788 48.4087 45.2214V60.8916C48.4087 61.3343 48.1431 61.5999 47.7004 61.5999Z" fill="white"/>
<path d="M29.9057 56.3767C27.6924 56.3767 25.8333 54.606 25.8333 52.3042C25.8333 50.0023 27.6039 48.2317 29.9057 48.2317C32.119 48.2317 33.9782 50.0023 33.9782 52.3042C33.9782 54.606 32.119 56.3767 29.9057 56.3767ZM29.9057 49.6482C28.4007 49.6482 27.2498 50.7991 27.2498 52.3042C27.2498 53.8092 28.4007 54.9601 29.9057 54.9601C31.4108 54.9601 32.5617 53.8092 32.5617 52.3042C32.5617 50.7991 31.3222 49.6482 29.9057 49.6482Z" fill="white"/>
<path d="M40.7946 45.2217C40.7061 45.2217 40.7061 45.2217 40.6175 45.2217C40.2634 45.1331 39.9978 44.779 40.0864 44.4249L41.3258 39.3785L40.2634 36.8111C40.1749 36.634 40.1749 36.3684 40.352 36.1914C40.4405 36.0143 40.7061 35.9258 40.8832 35.9258H45.7524C46.018 35.9258 46.1951 36.0143 46.2836 36.1914C46.3722 36.3684 46.4607 36.634 46.3721 36.8111L45.3098 39.3785L46.5492 44.4249C46.6377 44.779 46.3721 45.1331 46.018 45.2217C45.6639 45.3102 45.3098 45.0446 45.2212 44.6905L43.9818 39.4671C43.9818 39.29 43.9818 39.2015 43.9818 39.0244L44.7786 37.1652H42.0341L42.8308 39.0244C42.9194 39.2015 42.9194 39.29 42.8308 39.4671L41.5914 44.6905C41.4143 44.9561 41.0602 45.2217 40.7946 45.2217Z" fill="white"/>
<path d="M44.5135 39.9097H42.0345C41.6804 39.9097 41.3263 39.6441 41.3263 39.2014C41.3263 38.8473 41.5919 38.4932 42.0345 38.4932H44.5135C44.8676 38.4932 45.2217 38.7588 45.2217 39.2014C45.2217 39.6441 44.9561 39.9097 44.5135 39.9097Z" fill="white"/>
<path d="M44.1591 49.294H35.3059C34.9518 49.294 34.5977 49.0284 34.5977 48.5857C34.5977 48.143 34.8632 47.8774 35.3059 47.8774H44.1591C44.5132 47.8774 44.8674 48.143 44.8674 48.5857C44.8674 49.0284 44.5132 49.294 44.1591 49.294Z" fill="white"/>
<path d="M44.1596 52.2156H36.7229C36.3688 52.2156 36.0146 51.95 36.0146 51.5073C36.0146 51.1532 36.2802 50.7991 36.7229 50.7991H44.1596C44.5137 50.7991 44.8679 51.0647 44.8679 51.5073C44.7793 51.95 44.5137 52.2156 44.1596 52.2156Z" fill="white"/>
<path d="M44.1596 55.2256H36.7229C36.3688 55.2256 36.0146 54.96 36.0146 54.5173C36.0146 54.1632 36.2802 53.8091 36.7229 53.8091H44.1596C44.5137 53.8091 44.8679 54.0747 44.8679 54.5173C44.7793 54.96 44.5137 55.2256 44.1596 55.2256Z" fill="white"/>
<path d="M44.1591 58.2358H35.3059C34.9518 58.2358 34.5977 57.9702 34.5977 57.5276C34.5977 57.1735 34.8632 56.8193 35.3059 56.8193H44.1591C44.5132 56.8193 44.8674 57.0849 44.8674 57.5276C44.7789 57.9702 44.5132 58.2358 44.1591 58.2358Z" fill="white"/>
<path d="M28.223 32.7386C27.8689 32.7386 27.5148 32.473 27.5148 32.0303C27.5148 30.4368 26.1868 29.1973 24.6818 29.1973C24.3276 29.1973 23.9735 28.9317 23.9735 28.489C23.9735 28.1349 24.2391 27.7808 24.6818 27.7808C26.2753 27.7808 27.5148 26.4528 27.5148 24.9478C27.5148 24.5936 27.7804 24.2395 28.223 24.2395C28.5772 24.2395 28.9313 24.5051 28.9313 24.9478C28.9313 26.5413 30.2593 27.7808 31.7643 27.7808C32.1185 27.7808 32.4726 28.0464 32.4726 28.489C32.4726 28.8432 32.207 29.1973 31.7643 29.1973C30.1707 29.1973 28.9313 30.5253 28.9313 32.0303C28.9313 32.473 28.6657 32.7386 28.223 32.7386ZM26.9836 28.489C27.5148 28.8432 27.8689 29.1973 28.223 29.7285C28.5772 29.1973 28.9313 28.8432 29.4625 28.489C28.9313 28.1349 28.5772 27.7808 28.223 27.2496C27.9574 27.7808 27.5148 28.2234 26.9836 28.489Z" fill="white"/>
<path d="M55.757 36.1028C55.4028 36.1028 55.0487 35.8372 55.0487 35.3946C55.0487 33.6239 53.6322 32.2074 51.8616 32.2074C51.5074 32.2074 51.1533 31.9418 51.1533 31.4992C51.1533 31.145 51.4189 30.7909 51.8616 30.7909C53.6322 30.7909 55.0487 29.3744 55.0487 27.6038C55.0487 27.2496 55.3143 26.8955 55.757 26.8955C56.1111 26.8955 56.4652 27.1611 56.4652 27.6038C56.4652 29.3744 57.8817 30.7909 59.6524 30.7909C60.0065 30.7909 60.3607 31.0565 60.3607 31.4992C60.3607 31.8533 60.095 32.2074 59.6524 32.2074C57.8817 32.2074 56.4652 33.6239 56.4652 35.3946C56.3767 35.7487 56.1111 36.1028 55.757 36.1028ZM54.2519 31.4992C54.8717 31.8533 55.3143 32.3845 55.757 33.0042C56.1111 32.3845 56.6423 31.9418 57.262 31.4992C56.6423 31.145 56.1996 30.6139 55.757 29.9941C55.3143 30.6139 54.8717 31.145 54.2519 31.4992Z" fill="white"/>
<path d="M56.1995 61.6001H23.7083C23.3541 61.6001 23 61.3345 23 60.8919C23 60.5377 23.2656 60.1836 23.7083 60.1836H56.1995C56.5537 60.1836 56.9078 60.4492 56.9078 60.8919C56.8193 61.3345 56.5537 61.6001 56.1995 61.6001Z" fill="white"/>
</svg>
