<svg width="93" height="81" viewBox="0 0 93 81" fill="none" xmlns="http://www.w3.org/2000/svg">
<path d="M87.1566 31.5752C84.7325 22.0992 78.3417 15.9288 69.6003 11.2275C62.9891 7.62806 55.2026 5.71817 47.4161 5.64471C39.6296 5.64471 31.7697 7.48114 24.8647 11.6682C18.5474 15.488 13.038 21.1442 9.1448 29.0042C10.7609 28.4165 12.4504 28.1227 14.1399 28.1227C16.564 28.0492 19.0616 28.5634 21.1918 29.6653C23.0283 30.6202 24.7178 31.9425 25.9666 33.7789C27.2153 32.0894 28.6845 30.7672 30.3005 29.8122C32.5777 28.49 35.0753 27.9023 37.4994 28.0492C39.9235 28.1961 42.2741 29.0042 44.3309 30.4733C47.0488 32.3832 49.1057 35.395 49.9871 39.2882C50.0606 40.1697 50.0606 42.1531 50.0606 43.108L44.9186 43.0346C44.8451 39.5086 44.5513 36.8641 41.3192 34.5869C40.0704 33.7055 38.6747 33.1913 37.2055 33.1178C35.7364 33.0443 34.2672 33.4116 32.8716 34.2197C30.8882 35.3215 29.1987 37.4518 28.1703 40.537C27.8765 41.4185 27.1419 42.0796 26.1869 42.3C24.7912 42.5204 23.469 41.6389 23.1752 40.2432C22.661 37.2314 20.9715 35.2481 18.8412 34.2197C17.4455 33.4851 15.8294 33.1913 14.2134 33.1913C12.5973 33.1913 10.9078 33.632 9.51209 34.3666C7.67565 35.3215 6.2065 36.7907 5.47193 38.774C5.32501 39.2882 5.1781 39.8759 5.03118 40.3901C4.6639 41.7858 3.34166 42.5938 1.94597 42.3C0.623736 42.0061 -0.184296 40.6839 0.0360763 39.3617C0.182991 38.5536 0.329906 37.8191 0.623736 37.158C4.59044 22.7603 12.5973 12.9905 22.2937 7.18732C30.0067 2.5595 38.8216 0.42923 47.4896 0.42923C56.1576 0.42923 64.7521 2.63295 72.0978 6.59966C81.7208 11.8151 89.2869 20.0424 92.2986 30.5468C92.4455 30.9141 92.519 31.2814 92.5925 31.6486C92.7394 33.0443 91.1968 34.1462 90.0215 34.1462C88.7727 34.1462 88.0381 33.7055 87.6708 32.824L87.1566 31.5752Z" fill="#08B1F3"/>
<path d="M50.134 43.108L49.9137 66.8348C49.9137 66.9082 49.9137 66.9817 49.9137 67.0552C49.3995 72.1237 47.1223 75.7231 44.1105 77.8534C42.2741 79.1756 40.1438 79.9102 37.9401 80.0571C35.8098 80.204 33.6061 79.8368 31.5493 78.8818C28.0968 77.2657 25.3054 74.4009 24.0566 69.6262C23.9832 69.2589 23.9097 68.9651 23.9097 68.5978C23.9097 67.349 25.085 66.3206 26.4807 66.3206C27.656 66.3206 28.611 66.9817 28.9783 67.9366C30.8147 71.7564 32.5042 75.2824 37.6463 74.9151C38.895 74.8416 40.1438 74.4009 41.2457 73.6663C43.0821 72.3441 44.5513 69.9935 44.8451 66.6879L44.992 43.0346L50.134 43.108Z" fill="black"/>
</svg>
