<svg width="26" height="22" viewBox="0 0 26 22" fill="none" xmlns="http://www.w3.org/2000/svg">
<path d="M23.4262 21.5H2.37548C1.38564 21.5 0.59375 20.7081 0.59375 19.7183V18.3985C0.59375 18.1345 0.791728 17.9365 1.05569 17.9365H24.746C25.01 17.9365 25.208 18.1345 25.208 18.3985V19.7183C25.208 20.7081 24.4161 21.5 23.4262 21.5ZM1.5176 18.8604V19.7842C1.5176 20.3122 1.91356 20.7081 2.44148 20.7081H23.4922C24.0202 20.7081 24.4161 20.3122 24.4161 19.7842V18.8604H1.5176Z" fill="#08B1F3"/>
<path d="M25.4721 21.5H0.461927C0.197968 21.5 0 21.3021 0 21.0381C0 20.7741 0.197968 20.5762 0.461927 20.5762H25.4721C25.736 20.5762 25.934 20.7741 25.934 21.0381C25.868 21.3021 25.6701 21.5 25.4721 21.5Z" fill="#08B1F3"/>
<path d="M23.6904 18.8603H2.17774C1.91378 18.8603 1.71582 18.6623 1.71582 18.3984V5.66234C1.71582 4.67249 2.50769 3.88062 3.49753 3.88062H11.9442C12.2082 3.88062 12.4062 4.07858 12.4062 4.34254V13.9111C12.4062 14.175 12.6041 14.439 12.9341 14.439H14.7818C14.9138 14.439 15.0458 14.505 15.1118 14.637C15.1777 14.7689 15.1777 14.9009 15.1118 15.0329L14.8478 15.6268L17.5534 14.439C17.6194 14.439 17.6854 14.373 17.7513 14.373H23.7564C24.0204 14.373 24.2184 14.571 24.2184 14.8349V18.3984C24.1524 18.6623 23.9544 18.8603 23.6904 18.8603ZM2.63967 17.9365H23.2945V15.2309H17.8173L14.1879 16.8146C14.0559 16.8806 13.8579 16.8806 13.726 16.7486C13.594 16.6167 13.594 16.4187 13.66 16.2867L14.1219 15.2309H12.9341C12.2082 15.2309 11.5483 14.637 11.5483 13.8451V4.80447H3.56353C3.03561 4.80447 2.63967 5.20041 2.63967 5.72833V17.9365Z" fill="#08B1F3"/>
<path d="M13.99 16.8806C13.8581 16.8806 13.7921 16.8147 13.6601 16.7487C13.5281 16.6167 13.5281 16.4187 13.5941 16.2867L14.056 15.2309H12.8682C12.1423 15.2309 11.4824 14.637 11.4824 13.8451V2.09892C11.4824 1.37303 12.0763 0.713135 12.8682 0.713135H24.6144C25.3403 0.713135 26.0002 1.30704 26.0002 2.09892V13.8451C26.0002 14.571 25.4063 15.2309 24.6144 15.2309H17.8175L14.188 16.8147C14.122 16.8807 14.056 16.8806 13.99 16.8806ZM12.8682 1.63699C12.6043 1.63699 12.3403 1.83497 12.3403 2.16491V13.9111C12.3403 14.1751 12.5383 14.439 12.8682 14.439H14.7159C14.8479 14.439 14.9799 14.505 15.0459 14.637C15.1119 14.769 15.1119 14.901 15.0459 15.0329L14.7819 15.6268L17.4875 14.439C17.5535 14.439 17.6195 14.373 17.6855 14.373H24.6144C24.8784 14.373 25.1423 14.1751 25.1423 13.8451V2.09892C25.1423 1.83496 24.9443 1.571 24.6144 1.571H12.8682V1.63699Z" fill="#08B1F3"/>
<path d="M10.3602 10.6776H4.28909C4.02513 10.6776 3.82715 10.4796 3.82715 10.2156V7.04811C3.82715 6.78415 4.02513 6.58618 4.28909 6.58618H10.3602C10.6241 6.58618 10.8221 6.78415 10.8221 7.04811C10.8221 7.31207 10.6241 7.51004 10.3602 7.51004H4.75102V9.81969H10.3602C10.6241 9.81969 10.8221 10.0177 10.8221 10.2816C10.8221 10.5456 10.5581 10.6776 10.3602 10.6776Z" fill="#08B1F3"/>
<path d="M10.3602 13.1853H4.28909C4.02513 13.1853 3.82715 12.9874 3.82715 12.7234C3.82715 12.4594 4.02513 12.2615 4.28909 12.2615H10.3602C10.6241 12.2615 10.8221 12.4594 10.8221 12.7234C10.7561 12.9874 10.5581 13.1853 10.3602 13.1853Z" fill="#08B1F3"/>
<path d="M18.7408 12.0634C18.6748 12.0634 18.6088 12.0634 18.5428 11.9974C16.0352 10.7436 15.1113 9.22581 14.7814 8.16997C14.7154 7.972 14.6494 7.70804 14.6494 7.44408C14.6494 7.3121 14.6494 7.24611 14.6494 7.24611C14.6494 5.72834 15.7712 4.54053 17.157 4.54053C17.7509 4.54053 18.3448 4.7385 18.7408 5.13444C19.2027 4.7385 19.7306 4.54053 20.3245 4.54053C21.7103 4.54053 22.8322 5.79433 22.8322 7.24611C22.8322 7.24611 22.8322 7.3121 22.8322 7.44408C22.8322 7.70804 22.7662 7.90601 22.7002 8.16997C22.3702 9.22581 21.4464 10.7436 18.9388 11.9974C18.8728 12.0634 18.8068 12.0634 18.7408 12.0634ZM17.157 5.39839C16.2332 5.39839 15.5073 6.25626 15.5073 7.24611C15.5073 7.24611 15.5073 7.3121 15.5073 7.37809C15.5073 7.57606 15.5733 7.70804 15.6393 7.90601C15.8372 8.6319 16.5631 10.0177 18.8068 11.1395C21.0504 10.0177 21.7103 8.6319 21.9743 7.90601C22.0403 7.70804 22.1063 7.57606 22.1063 7.37809C22.1063 7.3121 22.1063 7.24611 22.1063 7.24611C22.1063 6.19027 21.3804 5.39839 20.4565 5.39839C19.9946 5.39839 19.5327 5.66235 19.2027 6.05829C19.0707 6.25626 18.6748 6.25626 18.5428 6.05829C18.0809 5.66235 17.6189 5.39839 17.157 5.39839Z" fill="#08B1F3"/>
</svg>
