<svg width="20" height="22" viewBox="0 0 20 22" fill="none" xmlns="http://www.w3.org/2000/svg">
<path d="M18.249 17.1212H1.53814C0.689333 17.1212 0.0527344 16.4315 0.0527344 15.6358V5.39703C0.0527344 4.54822 0.742383 3.91162 1.53814 3.91162H3.0766C3.2888 3.91162 3.44796 4.07077 3.44796 4.28297C3.44796 4.49517 3.2888 4.65432 3.0766 4.65432H1.53814C1.11374 4.65432 0.742383 5.02568 0.742383 5.45008V15.6888C0.742383 16.1132 1.11374 16.4846 1.53814 16.4846H18.249C18.6734 16.4846 19.0448 16.1132 19.0448 15.6888V6.93549C19.0448 6.72329 19.2039 6.56414 19.4161 6.56414C19.6283 6.56414 19.7875 6.72329 19.7875 6.93549V15.6888C19.7344 16.4315 19.0448 17.1212 18.249 17.1212Z" fill="white"/>
<path d="M19.3634 15.3706H0.371343C0.159142 15.3706 0 15.2115 0 14.9993C0 14.7871 0.159142 14.6279 0.371343 14.6279H19.3634C19.5756 14.6279 19.7347 14.7871 19.7347 14.9993C19.7347 15.2115 19.5756 15.3706 19.3634 15.3706Z" fill="white"/>
<path d="M11.034 19.6146H8.64673C8.43453 19.6146 8.27539 19.4555 8.27539 19.2433V16.7499C8.27539 16.5377 8.43453 16.3785 8.64673 16.3785H11.034C11.2462 16.3785 11.4054 16.5377 11.4054 16.7499V19.2433C11.4054 19.4555 11.2462 19.6146 11.034 19.6146ZM9.01809 18.925H10.6627V17.1212H9.01809V18.925Z" fill="white"/>
<path d="M12.4671 21.1001H7.21511C7.00291 21.1001 6.84375 20.9409 6.84375 20.7287V19.2433C6.84375 19.0311 7.00291 18.8719 7.21511 18.8719H12.4671C12.6793 18.8719 12.8384 19.0311 12.8384 19.2433V20.7287C12.8384 20.9409 12.6793 21.1001 12.4671 21.1001ZM7.58645 20.3574H12.0957V19.6147H7.58645V20.3574Z" fill="white"/>
<path d="M14.6948 21.1H4.98659C4.77439 21.1 4.61523 20.9408 4.61523 20.7286C4.61523 20.5164 4.77439 20.3573 4.98659 20.3573H14.6948C14.907 20.3573 15.0662 20.5164 15.0662 20.7286C15.0662 20.9408 14.907 21.1 14.6948 21.1Z" fill="white"/>
<path d="M8.22315 10.8614C5.72978 10.8614 3.71387 8.84543 3.71387 6.35206C3.71387 3.85869 5.72978 1.84277 8.22315 1.84277C10.7165 1.84277 12.7324 3.85869 12.7324 6.35206C12.7324 8.84543 10.7165 10.8614 8.22315 10.8614ZM8.22315 2.53243C6.10114 2.53243 4.40352 4.23004 4.40352 6.35206C4.40352 8.47408 6.10114 10.1717 8.22315 10.1717C10.3452 10.1717 12.0428 8.47408 12.0428 6.35206C12.0428 4.23004 10.3452 2.53243 8.22315 2.53243Z" fill="white"/>
<path d="M8.11681 12.612C6.94971 12.612 6.04785 12.0815 6.04785 11.3388V10.1186C6.04785 10.0125 6.1009 9.90639 6.207 9.80029C6.3131 9.74724 6.4192 9.74724 6.5253 9.80029C7.53326 10.2777 8.64732 10.2777 9.65527 9.85334C9.76137 9.80029 9.86748 9.80028 9.97358 9.90639C10.0797 9.95944 10.1327 10.0655 10.1327 10.2247V11.3388C10.1858 12.0284 9.28392 12.612 8.11681 12.612ZM6.79055 10.5961V11.2857C6.79055 11.4979 7.32106 11.8693 8.11681 11.8693C8.91257 11.8693 9.44308 11.551 9.44308 11.2857V10.6491C8.59427 10.9143 7.63936 10.9144 6.79055 10.5961Z" fill="white"/>
<path d="M14.1641 15.3706C13.9519 15.3706 13.7928 15.2114 13.7928 14.9992V13.6729C13.7928 12.5589 12.8909 11.657 11.7768 11.657H10.0792C9.86704 12.1875 9.07128 12.5589 8.11637 12.5589C7.16146 12.5589 6.36572 12.1875 6.15351 11.657H4.45589C3.34184 11.657 2.43998 12.5589 2.43998 13.6729V14.9992C2.43998 15.2114 2.28083 15.3706 2.06863 15.3706C1.85642 15.3706 1.69727 15.2114 1.69727 14.9992V13.6729C1.69727 12.1875 2.91743 10.9143 4.45589 10.9143H6.41877C6.63097 10.9143 6.79011 11.0735 6.79011 11.2857C6.79011 11.4979 7.32061 11.8692 8.11637 11.8692C8.91213 11.8692 9.44263 11.5509 9.44263 11.2857C9.44263 11.0735 9.60179 10.9143 9.81399 10.9143H11.7768C13.2623 10.9143 14.5355 12.1345 14.5355 13.6729V14.9992C14.5355 15.2114 14.3763 15.3706 14.1641 15.3706Z" fill="white"/>
<path d="M15.1192 7.09471C15.0661 7.09471 15.0131 7.09471 14.96 7.04166C14.8009 6.98861 14.7478 6.82946 14.7478 6.6703L14.907 5.7154H14.4826C13.899 5.7154 13.4746 5.23795 13.4746 4.70744V1.36526C13.4746 0.781708 13.9521 0.3573 14.4826 0.3573H18.9918C19.5754 0.3573 19.9998 0.834758 19.9998 1.36526V4.70744C19.9998 5.291 19.5224 5.7154 18.9918 5.7154H16.6576L15.3314 6.9886C15.2783 7.04165 15.2253 7.09471 15.1192 7.09471ZM14.4826 1.04696C14.3234 1.04696 14.1643 1.20611 14.1643 1.36526V4.70744C14.1643 4.86659 14.3234 5.02574 14.4826 5.02574H15.3314C15.4375 5.02574 15.5436 5.07879 15.5966 5.13184C15.6497 5.18489 15.7027 5.29099 15.7027 5.39709L15.6497 5.7154L16.2863 5.07879C16.3393 5.02574 16.4454 4.97269 16.5515 4.97269H19.0449C19.2041 4.97269 19.3632 4.81354 19.3632 4.65439V1.31221C19.3632 1.15306 19.2041 0.993911 19.0449 0.993911H14.4826V1.04696Z" fill="white"/>
<path d="M16.2336 2.85074H15.5969C15.3847 2.85074 15.2256 2.69159 15.2256 2.47938C15.2256 2.26718 15.3847 2.10803 15.5969 2.10803H16.2336C16.4458 2.10803 16.6049 2.26718 16.6049 2.47938C16.6049 2.69159 16.4458 2.85074 16.2336 2.85074Z" fill="white"/>
<path d="M17.6124 4.01774H16.9759C16.7636 4.01774 16.6045 3.85859 16.6045 3.64638C16.6045 3.43418 16.7636 3.27502 16.9759 3.27502H17.6124C17.8246 3.27502 17.9838 3.43418 17.9838 3.64638C17.9838 3.85859 17.8246 4.01774 17.6124 4.01774Z" fill="white"/>
</svg>
