<svg width="21" height="22" viewBox="0 0 21 22" fill="none" xmlns="http://www.w3.org/2000/svg">
<path d="M19.9694 13.0778C19.7523 13.0778 19.5895 12.915 19.5895 12.6979C19.5895 12.4809 19.7523 12.3181 19.9694 12.3181C20.1321 12.3181 20.2949 12.1553 20.2949 11.9925C20.2949 11.8297 20.1321 11.6669 19.9694 11.6669H17.4189C17.2019 11.6669 17.0391 11.5041 17.0391 11.287C17.0391 11.07 17.2019 10.9072 17.4189 10.9072H19.9694C20.512 10.9072 21.0004 11.3956 21.0004 11.9382C21.0004 12.5894 20.5663 13.0778 19.9694 13.0778Z" fill="#08B1F3"/>
<path d="M19.9692 14.3801C19.7521 14.3801 19.5893 14.2173 19.5893 14.0003C19.5893 13.7832 19.7521 13.6204 19.9692 13.6204C20.132 13.6204 20.2948 13.4576 20.2948 13.2948C20.2948 13.132 20.132 12.9692 19.9692 12.9692H18.7754C18.5583 12.9692 18.3955 12.8064 18.3955 12.5894C18.3955 12.3723 18.5583 12.2095 18.7754 12.2095H19.9692C20.5118 12.2095 21.0002 12.6979 21.0002 13.2406C21.0002 13.946 20.5661 14.3801 19.9692 14.3801Z" fill="#08B1F3"/>
<path d="M19.6979 15.7367H18.7754C18.5583 15.7367 18.3955 15.5739 18.3955 15.3569C18.3955 15.1398 18.5583 14.977 18.7754 14.977H19.6979C19.8607 14.977 20.0234 14.8142 20.0234 14.6515C20.0234 14.4887 19.8607 14.3259 19.6979 14.3259H18.7754C18.5583 14.3259 18.3955 14.1631 18.3955 13.946C18.3955 13.729 18.5583 13.5662 18.7754 13.5662H19.6979C20.2405 13.5662 20.7289 14.0545 20.7289 14.5972C20.7289 15.2484 20.2948 15.7367 19.6979 15.7367Z" fill="#08B1F3"/>
<path d="M18.8841 17.0391H16.5508C16.3337 17.0391 16.1709 16.8763 16.1709 16.6592C16.1709 16.4422 16.3337 16.2794 16.5508 16.2794H18.8841C19.0469 16.2794 19.2097 16.1166 19.2097 15.9538C19.2097 15.791 19.0469 15.6282 18.8841 15.6282H18.7756C18.5585 15.6282 18.3957 15.4654 18.3957 15.2484C18.3957 15.0313 18.5585 14.8685 18.7756 14.8685H18.8841C19.4268 14.8685 19.9152 15.3569 19.9152 15.8995C19.9152 16.605 19.4268 17.0391 18.8841 17.0391Z" fill="#08B1F3"/>
<path d="M16.5505 17.0391C15.1939 17.0391 14.0543 16.6592 13.3489 16.2794C13.2404 16.2251 13.1318 16.1166 13.1318 15.9538V11.6126C13.1318 11.4498 13.2404 11.287 13.4032 11.2328C15.5737 10.8529 16.4962 9.17072 16.7676 8.24822C16.8761 7.92263 17.1474 7.70557 17.473 7.70557C17.7986 7.70557 18.1242 7.86837 18.287 8.13969C19.1552 9.71337 18.2327 11.3956 18.1784 11.5041C18.0699 11.6669 17.8529 11.7212 17.6901 11.6669C17.5273 11.5584 17.473 11.3413 17.5273 11.1785C17.5273 11.1785 18.287 9.76763 17.6358 8.51954C17.6358 8.46528 17.5815 8.46528 17.5273 8.46528C17.473 8.46528 17.473 8.46528 17.4187 8.51954C17.0389 9.55057 16.1164 11.3413 13.783 11.9382V15.7367C14.4342 16.0081 15.4109 16.3336 16.4962 16.3336C16.7133 16.3336 16.8761 16.4964 16.8761 16.7135C16.9304 16.8763 16.7676 17.0391 16.5505 17.0391Z" fill="#08B1F3"/>
<path d="M13.5117 16.7678H10.6357C10.4187 16.7678 10.2559 16.605 10.2559 16.3879C10.2559 16.1709 10.4187 16.0081 10.6357 16.0081H13.1319V11.6126H10.6357C10.4187 11.6126 10.2559 11.4498 10.2559 11.2328C10.2559 11.0157 10.4187 10.8529 10.6357 10.8529H13.5117C13.7288 10.8529 13.8916 11.0157 13.8916 11.2328V16.3336C13.8373 16.605 13.6745 16.7678 13.5117 16.7678Z" fill="#08B1F3"/>
<path d="M10.6353 21.4345C4.77473 21.4345 0.0537109 16.6592 0.0537109 10.7987C0.0537109 4.93808 4.829 0.162788 10.6896 0.162788C10.9066 0.162788 11.0694 0.325589 11.0694 0.542647V21.0547C11.0152 21.2717 10.8524 21.4345 10.6353 21.4345ZM10.2555 0.922498C4.99179 1.13956 0.704886 5.48072 0.704886 10.7987C0.704886 16.1166 4.93753 20.512 10.2555 20.6748V0.922498Z" fill="#08B1F3"/>
<path d="M10.6357 21.4345C7.65118 21.4345 5.37207 16.7678 5.37207 10.7987C5.37207 4.82955 7.70545 0.162788 10.6357 0.162788C10.8528 0.162788 11.0156 0.325589 11.0156 0.542647V21.0547C11.0156 21.2717 10.8528 21.4345 10.6357 21.4345ZM10.2559 0.922498C7.97677 1.35661 6.07751 5.69778 6.07751 10.7987C6.07751 15.8995 7.97677 20.2407 10.2559 20.6748V0.922498Z" fill="#08B1F3"/>
<path d="M10.6359 16.0623C4.66676 16.0623 0 13.7289 0 10.7987C0 7.86837 4.66676 5.53499 10.6359 5.53499C10.8529 5.53499 11.0157 5.69778 11.0157 5.91484V15.7367C11.0157 15.8995 10.8529 16.0623 10.6359 16.0623ZM10.256 6.24043C5.04661 6.34896 0.70544 8.35675 0.70544 10.7987C0.70544 13.1863 5.04661 15.2484 10.256 15.3569V6.24043Z" fill="#08B1F3"/>
<path d="M15.1399 8.89939C14.9772 8.89939 14.8686 8.84512 14.7058 8.73659L14.1089 8.30247L13.512 8.73659C13.2407 8.89939 12.9151 8.89939 12.6438 8.73659C12.3725 8.5738 12.2639 8.24821 12.3725 7.92262L12.5895 7.21718L11.9926 6.78307C11.7213 6.62028 11.6127 6.29469 11.7213 5.9691C11.8298 5.64351 12.1011 5.48072 12.4267 5.48072H13.1864L13.4035 4.77527C13.512 4.44969 13.7833 4.2869 14.1089 4.2869C14.4345 4.2869 14.7058 4.50395 14.8144 4.77527L15.0314 5.48072H15.7911C16.1167 5.48072 16.388 5.69778 16.4966 5.9691C16.6051 6.29469 16.4966 6.62028 16.2252 6.78307L15.6283 7.21718L15.8454 7.92262C15.9539 8.24821 15.8454 8.5738 15.5741 8.73659C15.4655 8.84512 15.3027 8.89939 15.1399 8.89939ZM14.1089 7.59704C14.2717 7.59704 14.4345 7.6513 14.543 7.75983L15.1399 8.19395L14.9229 7.4885C14.8144 7.16292 14.9229 6.83733 15.1942 6.67454L15.7911 6.18616H15.0314C14.7058 6.18616 14.4345 5.9691 14.326 5.69778L14.1089 4.99234L13.8919 5.69778C13.7833 6.02337 13.512 6.18616 13.1864 6.18616H12.4267L13.0236 6.62028C13.2949 6.78307 13.4035 7.10866 13.2949 7.43425L13.0779 8.13969L13.6748 7.70557C13.7833 7.6513 13.9461 7.59704 14.1089 7.59704Z" fill="#08B1F3"/>
<path d="M19.1009 4.61249C18.9381 4.61249 18.8296 4.55823 18.6668 4.4497L18.0699 4.01558L17.4729 4.4497C17.2016 4.61249 16.876 4.61249 16.6047 4.4497C16.3334 4.2869 16.2249 3.96132 16.3334 3.63573L16.5504 2.93029L15.9535 2.49617C15.6822 2.33337 15.5737 2.00779 15.6822 1.6822C15.7907 1.35661 16.0621 1.19382 16.3877 1.19382H17.1474L17.3644 0.488378C17.4729 0.162791 17.7443 0 18.0699 0C18.3954 0 18.6668 0.217055 18.7753 0.488378L18.9924 1.19382H19.7521C20.0776 1.19382 20.349 1.41088 20.4575 1.6822C20.566 2.00779 20.4575 2.33337 20.1862 2.49617L19.5893 2.93029L19.8063 3.63573C19.9149 3.96132 19.8063 4.2869 19.535 4.4497C19.3722 4.55823 19.2094 4.61249 19.1009 4.61249ZM18.0156 3.31014C18.1784 3.31014 18.3412 3.3644 18.4497 3.47293L19.0466 3.90705L18.8296 3.20161C18.721 2.87602 18.8296 2.55043 19.1009 2.38764L19.6978 1.95352H18.9381C18.6125 1.95352 18.3412 1.73647 18.2327 1.46514L18.0156 0.759701L17.7985 1.46514C17.69 1.79073 17.4187 1.95352 17.0931 1.95352H16.3334L16.9303 2.38764C17.2016 2.55043 17.3102 2.87602 17.2016 3.20161L16.9846 3.90705L17.5815 3.47293C17.7443 3.31014 17.9071 3.31014 18.0156 3.31014Z" fill="#08B1F3"/>
<path d="M13.8369 20.3492C13.6198 20.3492 13.457 20.1864 13.457 19.9694V18.0159C13.457 17.7988 13.6198 17.636 13.8369 17.636C14.0539 17.636 14.2167 17.7988 14.2167 18.0159V19.9694C14.2167 20.1864 14.0539 20.3492 13.8369 20.3492Z" fill="#08B1F3"/>
<path d="M17.6357 19.9151C17.4187 19.9151 17.2559 19.7523 17.2559 19.5353V18.2872C17.2559 18.0701 17.4187 17.9073 17.6357 17.9073C17.8528 17.9073 18.0156 18.0701 18.0156 18.2872V19.5353C17.9613 19.7523 17.7985 19.9151 17.6357 19.9151Z" fill="#08B1F3"/>
<path d="M19.2099 7.59705C18.9929 7.59705 18.8301 7.43425 18.8301 7.21719V6.02337C18.8301 5.80631 18.9929 5.64352 19.2099 5.64352C19.427 5.64352 19.5898 5.80631 19.5898 6.02337V7.21719C19.5898 7.43425 19.427 7.59705 19.2099 7.59705Z" fill="#08B1F3"/>
<path d="M13.5117 3.2016C13.2946 3.2016 13.1318 3.03881 13.1318 2.82175V1.13955C13.1318 0.922489 13.2946 0.759697 13.5117 0.759697C13.7287 0.759697 13.8915 0.922489 13.8915 1.13955V2.82175C13.8373 3.03881 13.6745 3.2016 13.5117 3.2016Z" fill="#08B1F3"/>
</svg>
