<svg width="57" height="57" viewBox="0 0 57 57" fill="none" xmlns="http://www.w3.org/2000/svg">
<path fill-rule="evenodd" clip-rule="evenodd" d="M28.5 57C44.2401 57 57 44.2401 57 28.5C57 12.7599 44.2401 0 28.5 0C12.7599 0 0 12.7599 0 28.5C0 44.2401 12.7599 57 28.5 57ZM28.4999 51.8182C15.6216 51.8182 5.18174 41.3783 5.18174 28.5C5.18174 15.6217 15.6216 5.18183 28.4999 5.18183C41.3782 5.18183 51.8181 15.6217 51.8181 28.5C51.8181 41.3783 41.3782 51.8182 28.4999 51.8182ZM22.5185 21.0231V35.9768C22.5185 37.1514 23.8104 37.8674 24.8064 37.2449L36.7694 29.7681C37.7065 29.1824 37.7065 27.8176 36.7694 27.2319L24.8064 19.7551C23.8104 19.1326 22.5185 19.8486 22.5185 21.0231Z" fill="white"/>
</svg>
