<svg width="172" height="97" viewBox="0 0 172 97" fill="none" xmlns="http://www.w3.org/2000/svg">
<path d="M87.1566 44.5752C84.7325 35.0992 78.3417 28.9288 69.6003 24.2275C62.9891 20.6281 55.2026 18.7182 47.4161 18.6447C39.6296 18.6447 31.7697 20.4811 24.8647 24.6682C18.5474 28.488 13.038 34.1442 9.1448 42.0042C10.7609 41.4165 12.4504 41.1227 14.1399 41.1227C16.564 41.0492 19.0616 41.5634 21.1918 42.6653C23.0283 43.6202 24.7178 44.9425 25.9666 46.7789C27.2153 45.0894 28.6845 43.7672 30.3005 42.8122C32.5777 41.49 35.0753 40.9023 37.4994 41.0492C39.9235 41.1961 42.2741 42.0042 44.3309 43.4733C47.0488 45.3832 49.1057 48.395 49.9871 52.2882C50.0606 53.1697 50.0606 55.1531 50.0606 56.108L44.9186 56.0346C44.8451 52.5086 44.5513 49.8641 41.3192 47.5869C40.0704 46.7055 38.6747 46.1913 37.2055 46.1178C35.7364 46.0443 34.2672 46.4116 32.8716 47.2197C30.8882 48.3215 29.1987 50.4518 28.1703 53.537C27.8765 54.4185 27.1419 55.0796 26.1869 55.3C24.7912 55.5204 23.469 54.6389 23.1752 53.2432C22.661 50.2314 20.9715 48.2481 18.8412 47.2197C17.4455 46.4851 15.8294 46.1913 14.2134 46.1913C12.5973 46.1913 10.9078 46.632 9.51209 47.3666C7.67565 48.3215 6.2065 49.7907 5.47193 51.774C5.32501 52.2882 5.1781 52.8759 5.03118 53.3901C4.6639 54.7858 3.34166 55.5938 1.94597 55.3C0.623736 55.0061 -0.184296 53.6839 0.0360763 52.3617C0.182991 51.5536 0.329906 50.8191 0.623736 50.158C4.59044 35.7603 12.5973 25.9905 22.2937 20.1873C30.0067 15.5595 38.8216 13.4292 47.4896 13.4292C56.1576 13.4292 64.7521 15.633 72.0978 19.5997C81.7208 24.8151 89.2869 33.0424 92.2986 43.5468C92.4455 43.9141 92.519 44.2814 92.5925 44.6486C92.7394 46.0443 91.1968 47.1462 90.0215 47.1462C88.7727 47.1462 88.0381 46.7055 87.6708 45.824L87.1566 44.5752Z" fill="#08B1F3"/>
<path d="M50.134 56.108L49.9137 79.8348C49.9137 79.9082 49.9137 79.9817 49.9137 80.0552C49.3995 85.1237 47.1223 88.7231 44.1105 90.8534C42.2741 92.1756 40.1438 92.9102 37.9401 93.0571C35.8098 93.204 33.6061 92.8368 31.5493 91.8818C28.0968 90.2657 25.3054 87.4009 24.0566 82.6262C23.9832 82.2589 23.9097 81.9651 23.9097 81.5978C23.9097 80.349 25.085 79.3206 26.4807 79.3206C27.656 79.3206 28.611 79.9817 28.9783 80.9366C30.8147 84.7564 32.5042 88.2824 37.6463 87.9151C38.895 87.8416 40.1438 87.4009 41.2457 86.6663C43.0821 85.3441 44.5513 82.9935 44.8451 79.6879L44.992 56.0346L50.134 56.108Z" fill="black"/>
<path d="M50.1341 5.5693V3.87978C50.1341 1.45569 49.2526 0.206909 47.5631 0.206909C45.8736 0.206909 44.9921 1.45569 44.9921 3.87978V5.5693V7.25882C44.9921 9.68292 45.8736 10.9317 47.5631 10.9317C49.2526 10.9317 50.1341 9.68292 50.1341 7.25882V5.5693Z" fill="black"/>
<path d="M126.677 67.7877V78.0718C126.677 80.4959 127.558 81.6712 129.248 81.6712C130.937 81.6712 131.819 80.4959 131.819 78.0718V62.1315C131.819 61.0297 131.598 60.1482 131.231 59.5605C130.864 58.9728 130.276 58.679 129.395 58.679C128.807 58.679 128.293 58.8259 127.926 59.1198C127.485 59.4136 127.118 59.8543 126.677 60.3685L117.201 72.9298V62.2784C117.201 59.8543 116.319 58.6056 114.63 58.6056C112.94 58.6056 112.059 59.8543 112.059 62.2784V78.6594C112.059 79.6879 112.206 80.4959 112.573 80.9366C112.94 81.4508 113.528 81.6712 114.336 81.6712C114.924 81.6712 115.438 81.5243 115.879 81.3039C116.319 81.0835 116.833 80.6428 117.274 79.9817L126.677 67.7877ZM93.3271 77.1903H99.2771V62.2784C99.2771 59.8543 100.159 58.6056 101.848 58.6056C103.538 58.6056 104.419 59.8543 104.419 62.2784V77.1168H106.109C106.843 77.1168 107.357 77.3372 107.798 77.7045C108.239 78.0718 108.386 78.6594 108.386 79.394C108.386 80.1286 108.165 80.6428 107.798 80.9366C107.357 81.2305 106.843 81.3774 106.109 81.3774H81.1331C78.7825 81.3774 77.6072 80.1286 77.6072 77.7045V62.2784C77.6072 59.8543 78.4887 58.6056 80.1782 58.6056C81.8677 58.6056 82.7492 59.8543 82.7492 62.2784V77.1168H88.6993V62.2784C88.6993 61.0297 88.8462 60.1482 89.2135 59.5605C89.5073 58.9728 90.1684 58.679 90.9764 58.679C91.8579 58.679 92.4456 58.9728 92.7394 59.5605C93.0333 60.1482 93.2536 61.1031 93.2536 62.2784V77.1903H93.3271ZM60.4916 72.1217L63.0626 64.1883H63.1361L65.6336 72.1217H60.4916ZM63.2095 58.679C61.3731 58.679 60.1243 59.7809 59.3163 61.9846L53.4397 77.8514C53.2928 78.2922 53.2193 78.8064 53.2193 79.3206C53.2193 80.0551 53.4397 80.6428 53.8804 81.0835C54.3212 81.5243 54.9088 81.7447 55.6434 81.7447C56.8187 81.7447 57.6268 81.0101 58.141 79.4675L59.0225 76.6761H66.9559L67.7639 79.3206C68.2781 80.9366 69.1596 81.7447 70.4818 81.7447C71.2164 81.7447 71.8041 81.5243 72.3183 81.0835C72.8325 80.6428 73.0528 80.1286 73.0528 79.394C73.0528 79.1736 73.0528 78.9533 72.9794 78.6594C72.9059 78.4391 72.8325 78.1452 72.6855 77.778L67.0293 61.5439C66.2947 59.634 64.9725 58.679 63.2095 58.679Z" fill="black"/>
<path d="M138.43 63.3803H140.34V77.778C140.34 80.2021 141.221 81.3774 142.911 81.3774C144.6 81.3774 145.482 80.2021 145.482 77.778V63.3803H147.392C149.816 63.3803 151.065 62.5723 151.065 61.0297C151.065 59.4136 149.816 58.6056 147.392 58.6056H138.503C136.079 58.6056 134.831 59.4136 134.831 61.0297C134.757 62.6457 136.006 63.3803 138.43 63.3803Z" fill="black"/>
<path d="M158.117 72.1218L160.688 64.1884H160.761L163.259 72.1218H158.117ZM160.834 58.679C158.998 58.679 157.749 59.7809 156.941 61.9846L151.065 77.8514C150.918 78.2922 150.844 78.8064 150.844 79.3206C150.844 80.0552 151.065 80.6428 151.505 81.0836C151.946 81.5243 152.534 81.7447 153.268 81.7447C154.444 81.7447 155.252 81.0101 155.766 79.4675L156.647 76.6761H164.581L165.389 79.3206C165.903 80.9367 166.785 81.7447 168.107 81.7447C168.841 81.7447 169.429 81.5243 169.943 81.0836C170.457 80.6428 170.678 80.1286 170.678 79.3941C170.678 79.1737 170.678 78.9533 170.604 78.6595C170.531 78.4391 170.457 78.1453 170.31 77.778L164.654 61.5439C163.92 59.634 162.671 58.679 160.834 58.679Z" fill="black"/>
<path d="M113.161 94.3059V94.3793L113.087 94.4528C113.014 94.4528 112.94 94.4528 112.867 94.5263C112.793 94.5263 112.646 94.5263 112.573 94.5263C112.426 94.5263 112.353 94.5263 112.279 94.5263C112.206 94.5263 112.132 94.5263 112.059 94.4528C111.985 94.4528 111.985 94.3793 111.985 94.3793V94.3059V92.4695H110.075V94.3059V94.3793L110.002 94.4528C109.928 94.4528 109.855 94.4528 109.782 94.5263C109.708 94.5263 109.561 94.5263 109.488 94.5263C109.341 94.5263 109.267 94.5263 109.194 94.5263C109.12 94.5263 109.047 94.5263 108.973 94.4528C108.9 94.4528 108.9 94.3793 108.9 94.3793V94.3059V89.6046V89.5312L108.973 89.4577C109.047 89.4577 109.12 89.4577 109.194 89.3842C109.267 89.3842 109.414 89.3842 109.488 89.3842C109.635 89.3842 109.708 89.3842 109.782 89.3842C109.855 89.3842 109.928 89.3842 110.002 89.4577C110.075 89.4577 110.075 89.5312 110.075 89.5312V89.6046V91.3676H111.985V89.6046V89.5312L112.059 89.4577C112.132 89.4577 112.206 89.4577 112.279 89.3842C112.353 89.3842 112.499 89.3842 112.573 89.3842C112.72 89.3842 112.793 89.3842 112.867 89.3842C112.94 89.3842 113.014 89.3842 113.087 89.4577C113.161 89.4577 113.161 89.5312 113.161 89.5312V89.6046V94.3059ZM107.504 92.9837C107.504 93.2775 107.431 93.4979 107.357 93.6448C107.284 93.8651 107.064 94.0121 106.917 94.159C106.696 94.3059 106.476 94.3793 106.182 94.4528C105.888 94.5263 105.594 94.5263 105.227 94.5263C105.08 94.5263 104.86 94.5263 104.713 94.4528C104.566 94.4528 104.419 94.3793 104.272 94.3793C104.125 94.3059 104.052 94.3059 103.905 94.2324C103.831 94.159 103.758 94.159 103.685 94.0855C103.611 94.0855 103.611 94.0121 103.611 94.0121C103.611 94.0121 103.611 93.9386 103.538 93.8651C103.538 93.7917 103.538 93.7917 103.538 93.7182C103.538 93.6448 103.538 93.5713 103.538 93.4979C103.538 93.4244 103.538 93.3509 103.538 93.2775C103.538 93.204 103.538 93.204 103.538 93.1306C103.538 93.1306 103.538 93.0571 103.611 93.0571H103.685C103.758 93.0571 103.758 93.0571 103.831 93.1306C103.905 93.204 103.978 93.204 104.125 93.2775C104.199 93.3509 104.346 93.3509 104.566 93.4244C104.713 93.4979 104.933 93.4979 105.154 93.4979C105.301 93.4979 105.448 93.4979 105.594 93.4244C105.741 93.4244 105.815 93.3509 105.888 93.2775C105.962 93.204 106.035 93.1306 106.035 93.0571C106.109 92.9837 106.109 92.9102 106.109 92.7633C106.109 92.6898 106.109 92.5429 106.035 92.4695C105.962 92.396 105.962 92.3225 105.815 92.2491C105.741 92.1756 105.594 92.1756 105.448 92.1022C105.301 92.1022 105.154 92.0287 104.933 92.0287H104.419C104.346 92.0287 104.346 92.0287 104.346 92.0287L104.272 91.9553C104.272 91.9553 104.272 91.8818 104.272 91.8083C104.272 91.7349 104.272 91.6614 104.272 91.588C104.272 91.5145 104.272 91.441 104.272 91.3676C104.272 91.2941 104.272 91.2941 104.272 91.2207C104.272 91.2207 104.272 91.1472 104.346 91.1472H104.419H104.933C105.154 91.1472 105.301 91.1472 105.448 91.0738C105.594 91.0738 105.668 91.0003 105.815 90.9268C105.888 90.8534 105.962 90.7799 106.035 90.7065C106.109 90.633 106.109 90.5596 106.109 90.4126C106.109 90.3392 106.109 90.2657 106.035 90.1923C105.962 90.1188 105.962 90.0454 105.888 90.0454C105.815 89.9719 105.741 89.9719 105.668 89.9719C105.594 89.9719 105.448 89.9719 105.374 89.9719C105.154 89.9719 105.007 89.9719 104.86 90.0454C104.713 90.1188 104.566 90.1188 104.419 90.1923C104.272 90.2657 104.199 90.2657 104.125 90.3392C104.052 90.4126 103.978 90.4126 103.978 90.4126H103.905C103.905 90.4126 103.905 90.4126 103.831 90.3392C103.831 90.3392 103.831 90.2657 103.758 90.1923C103.758 90.1188 103.758 90.0454 103.758 89.9719C103.758 89.825 103.758 89.7515 103.758 89.6046C103.758 89.5312 103.831 89.4577 103.831 89.3842C103.905 89.3108 103.978 89.3108 104.052 89.2373C104.125 89.1639 104.272 89.1639 104.419 89.0904C104.566 89.017 104.713 89.017 104.933 89.017C105.08 89.017 105.301 88.9435 105.448 88.9435C105.741 88.9435 106.035 88.9435 106.256 89.017C106.476 89.0904 106.696 89.1639 106.843 89.2373C106.99 89.3842 107.137 89.4577 107.21 89.6781C107.284 89.825 107.357 90.0454 107.357 90.2657C107.357 90.4126 107.357 90.5596 107.284 90.633C107.211 90.7799 107.21 90.8534 107.137 91.0003C107.064 91.0738 106.99 91.2207 106.843 91.2941C106.696 91.3676 106.623 91.441 106.476 91.441C106.623 91.441 106.77 91.5145 106.917 91.588C107.064 91.6614 107.137 91.7349 107.284 91.8083C107.357 91.8818 107.431 92.0287 107.504 92.1756C107.504 92.6898 107.504 92.8367 107.504 92.9837ZM102.583 94.3059V94.3793L102.509 94.4528C102.436 94.4528 102.362 94.4528 102.289 94.4528C102.215 94.4528 102.068 94.4528 101.995 94.4528C101.848 94.4528 101.775 94.4528 101.701 94.4528C101.628 94.4528 101.554 94.4528 101.481 94.4528C101.407 94.4528 101.407 94.4528 101.334 94.3793V94.3059V92.1756C101.334 92.0287 101.334 91.8818 101.334 91.7349C101.334 91.588 101.334 91.441 101.407 91.2941C101.334 91.441 101.26 91.588 101.114 91.7349C101.04 91.8818 100.893 92.0287 100.82 92.1756L99.2036 94.3793C99.2036 94.4528 99.1302 94.4528 99.1302 94.4528L99.0567 94.5263C98.9833 94.5263 98.9833 94.5263 98.9098 94.5263C98.8363 94.5263 98.7629 94.5263 98.616 94.5263C98.4691 94.5263 98.3956 94.5263 98.3221 94.5263C98.2487 94.5263 98.1752 94.5263 98.1018 94.5263C98.0283 94.5263 98.0283 94.5263 98.0283 94.4528V94.3793V89.6046V89.5312L98.1018 89.4577C98.1752 89.4577 98.2487 89.4577 98.3221 89.3842C98.3956 89.3842 98.5425 89.3842 98.616 89.3842C98.8364 89.3842 99.0567 89.3842 99.1302 89.4577C99.2036 89.4577 99.2771 89.5312 99.2771 89.6046V91.7349C99.2771 91.8818 99.2771 92.0287 99.2771 92.1756C99.2771 92.3225 99.2771 92.4695 99.2036 92.6164C99.2771 92.4695 99.3506 92.3225 99.4975 92.1756C99.5709 92.0287 99.6444 91.8818 99.7913 91.7349L101.407 89.5312C101.407 89.4577 101.481 89.4577 101.481 89.4577C101.481 89.4577 101.554 89.3842 101.628 89.3842C101.701 89.3842 101.701 89.3842 101.775 89.3842C101.848 89.3842 101.922 89.3842 102.068 89.3842C102.215 89.3842 102.289 89.3842 102.362 89.3842C102.436 89.3842 102.509 89.3842 102.583 89.4577C102.656 89.4577 102.656 89.5312 102.656 89.5312V89.6046V94.3059H102.583ZM96.9999 94.3793C96.9265 94.4528 96.9265 94.4528 96.853 94.5263C96.7795 94.5263 96.7061 94.5263 96.6326 94.5263C96.5592 94.5263 96.4123 94.5263 96.3388 94.5263C96.1919 94.5263 96.045 94.5263 95.9715 94.5263C95.898 94.5263 95.8246 94.5263 95.7511 94.5263C95.6777 94.5263 95.6777 94.5263 95.6042 94.4528L95.5308 94.3793L95.09 93.2775C95.0166 93.1306 94.9431 92.9837 94.9431 92.9102C94.8697 92.8367 94.7962 92.6898 94.7227 92.6898C94.6493 92.6164 94.5758 92.6164 94.5024 92.5429C94.4289 92.5429 94.282 92.4695 94.2085 92.4695H93.9147V94.4528V94.5263C93.9147 94.5263 93.8412 94.5997 93.7678 94.5997C93.6943 94.5997 93.6209 94.5997 93.5474 94.5997C93.474 94.5997 93.327 94.5997 93.2536 94.5997C93.1067 94.5997 93.0332 94.5997 92.9598 94.5997C92.8863 94.5997 92.8128 94.5997 92.7394 94.5997C92.6659 94.5997 92.6659 94.5997 92.5925 94.5263V94.4528V92.4695H92.2986C92.1517 92.4695 92.0783 92.4694 92.0048 92.5429C91.9314 92.5429 91.8579 92.6164 91.7844 92.6898C91.711 92.7633 91.6375 92.8367 91.5641 92.9102C91.4906 92.9837 91.4171 93.1306 91.3437 93.2775L90.9029 94.3793C90.9029 94.3793 90.9029 94.4528 90.8295 94.4528C90.8295 94.4528 90.756 94.5263 90.6826 94.5263C90.6091 94.5263 90.5357 94.5263 90.4622 94.5263C90.3887 94.5263 90.2418 94.5263 90.0949 94.5263C89.948 94.5263 89.8745 94.5263 89.8011 94.5263C89.7276 94.5263 89.6542 94.5263 89.5807 94.5263C89.5073 94.5263 89.5073 94.5263 89.5073 94.4528V94.3793C89.5073 94.3793 89.5073 94.3059 89.5073 94.2324C89.5073 94.159 89.5807 94.0855 89.5807 94.0121L90.0215 92.9837C90.0949 92.8367 90.1684 92.6164 90.2418 92.5429C90.3153 92.396 90.3887 92.3225 90.4622 92.2491C90.5357 92.1756 90.6091 92.1022 90.756 92.0287C90.8295 91.9552 90.9764 91.9553 91.0499 91.8818C90.9764 91.8818 90.9029 91.8083 90.8295 91.7349C90.756 91.6614 90.6826 91.588 90.6091 91.5145C90.5357 91.441 90.4622 91.2941 90.3887 91.2207C90.3153 91.0738 90.2418 90.9268 90.1684 90.7799L89.8011 89.8984C89.8011 89.825 89.7276 89.7515 89.7276 89.6781C89.7276 89.6046 89.7276 89.6046 89.7276 89.5312V89.4577C89.7276 89.4577 89.8011 89.4577 89.8011 89.3842C89.8745 89.3842 89.948 89.3842 90.0215 89.3842C90.0949 89.3842 90.2418 89.3842 90.3153 89.3842C90.4622 89.3842 90.6091 89.3842 90.6826 89.3842C90.756 89.3842 90.8295 89.3842 90.9029 89.3842C90.9764 89.3842 90.9764 89.3842 91.0499 89.4577L91.1233 89.5312L91.4906 90.5596C91.5641 90.7065 91.6375 90.8534 91.6375 90.9268C91.711 91.0003 91.7844 91.0738 91.8579 91.1472C91.9313 91.2207 92.0048 91.2207 92.0783 91.2941C92.1517 91.2941 92.2252 91.3676 92.3721 91.3676H92.6659V89.5312V89.4577C92.6659 89.4577 92.7394 89.4577 92.8128 89.3842C92.8863 89.3842 92.9598 89.3842 93.0332 89.3842C93.1067 89.3842 93.2536 89.3842 93.327 89.3842C93.474 89.3842 93.5474 89.3842 93.6209 89.3842C93.6943 89.3842 93.7678 89.3842 93.8412 89.3842C93.9147 89.3842 93.9147 89.3842 93.9882 89.4577V89.5312V91.3676H94.282C94.3554 91.3676 94.5024 91.3676 94.5758 91.2941C94.6493 91.2941 94.7227 91.2207 94.7962 91.1472C94.8697 91.0738 94.9431 91.0003 95.0166 90.9268C95.09 90.8534 95.1635 90.7065 95.1635 90.5596L95.5308 89.5312C95.5308 89.5312 95.5308 89.4577 95.6042 89.4577L95.6777 89.3842C95.7511 89.3842 95.8246 89.3842 95.8981 89.3842C95.9715 89.3842 96.1184 89.3842 96.2653 89.3842C96.4123 89.3842 96.4857 89.3842 96.5592 89.3842C96.6326 89.3842 96.7061 89.3842 96.7795 89.3842C96.853 89.3842 96.853 89.3842 96.853 89.4577V89.5312C96.853 89.5312 96.853 89.6046 96.853 89.6781C96.853 89.7515 96.7795 89.825 96.7795 89.8984L96.4123 90.7799C96.3388 90.9268 96.2653 91.1472 96.1919 91.2207C96.1184 91.3676 96.045 91.441 95.9715 91.5145C95.898 91.588 95.8246 91.6614 95.7511 91.7349C95.6777 91.8083 95.6042 91.8083 95.5308 91.8818C95.6777 91.9553 95.7511 91.9552 95.8246 92.0287C95.8981 92.1022 96.045 92.1756 96.1184 92.2491C96.1919 92.3225 96.2653 92.4694 96.3388 92.5429C96.4123 92.6898 96.4857 92.8367 96.5592 92.9837L96.9999 94.0121C96.9999 94.0855 97.0734 94.0855 97.0734 94.159V94.2324C96.9999 94.2324 96.9999 94.3059 96.9999 94.3793C96.9999 94.3059 96.9999 94.3059 96.9999 94.3793ZM86.3486 94.3059C86.3486 94.3793 86.3486 94.4528 86.2017 94.5263C86.1282 94.5263 85.9813 94.5997 85.7609 94.5997C85.614 94.5997 85.5406 94.5997 85.4671 94.5997C85.3936 94.5997 85.3202 94.5997 85.2467 94.5997C85.1733 94.5997 85.1733 94.5997 85.1733 94.5263V94.4528L84.8794 91.8818C84.8794 91.8083 84.8794 91.6614 84.8794 91.588C84.8794 91.441 84.8794 91.3676 84.8794 91.2207C84.8794 91.0738 84.8794 91.0003 84.8794 90.8534C84.8794 90.7065 84.8794 90.633 84.8794 90.5596V90.4126C84.8794 90.4861 84.806 90.633 84.806 90.7065C84.806 90.8534 84.7325 90.9268 84.7325 91.0738C84.7325 91.2207 84.6591 91.2941 84.6591 91.441C84.6591 91.588 84.5856 91.6614 84.5856 91.7349L83.7776 94.3793C83.7776 94.4528 83.7776 94.4528 83.7041 94.5263C83.7041 94.5263 83.6307 94.5997 83.5572 94.5997C83.4837 94.5997 83.4103 94.5997 83.3368 94.6732C83.2634 94.6732 83.1899 94.6732 83.043 94.6732C82.9695 94.6732 82.8226 94.6732 82.7492 94.6732C82.6757 94.6732 82.6023 94.6732 82.5288 94.5997C82.4553 94.5997 82.4553 94.5263 82.3819 94.5263C82.3819 94.5263 82.3084 94.4528 82.3084 94.3793L81.5004 91.7349C81.5004 91.6614 81.4269 91.5145 81.4269 91.441C81.4269 91.2941 81.3535 91.2207 81.3535 91.0738C81.3535 90.9268 81.28 90.8534 81.28 90.7065C81.28 90.5596 81.2066 90.4861 81.2066 90.4126V90.5596C81.2066 90.633 81.2066 90.7799 81.2066 90.8534C81.2066 91.0003 81.2066 91.0738 81.2066 91.2207C81.2066 91.3676 81.2066 91.441 81.2066 91.588C81.2066 91.7349 81.2066 91.8083 81.2066 91.8818L80.9127 94.3793C80.9127 94.4528 80.9127 94.4528 80.8393 94.5263L80.7658 94.5997C80.6924 94.5997 80.6189 94.5997 80.5454 94.5997C80.472 94.5997 80.3251 94.5997 80.1782 94.5997C80.0312 94.5997 79.9578 94.5997 79.8843 94.5997C79.8109 94.5997 79.7374 94.5997 79.7374 94.5263C79.664 94.5263 79.664 94.4528 79.664 94.4528C79.664 94.4528 79.664 94.3793 79.664 94.3059L80.1047 89.8984C80.1047 89.7515 80.1782 89.6046 80.2516 89.5312C80.3251 89.4577 80.472 89.3842 80.6189 89.3842H81.28C81.4269 89.3842 81.5738 89.3842 81.6473 89.3842C81.7208 89.3842 81.8677 89.4577 81.9411 89.5312C82.0146 89.6046 82.0881 89.6781 82.1615 89.7515C82.235 89.825 82.235 89.9719 82.3084 90.1188L82.8226 91.7349C82.8226 91.8083 82.8961 91.9552 82.8961 92.1022C82.8961 92.2491 82.9695 92.3225 82.9695 92.4695C82.9695 92.6164 83.043 92.6898 83.043 92.8367C83.043 92.9102 83.1165 93.0571 83.1165 93.1306C83.1165 93.0571 83.1899 92.9102 83.1899 92.8367C83.1899 92.6898 83.2634 92.6164 83.2634 92.4695C83.2634 92.3225 83.3368 92.2491 83.3368 92.1022C83.3368 91.9552 83.4103 91.8818 83.4103 91.8083L83.9245 90.1923C83.9245 90.0454 83.9979 89.9719 84.0714 89.8984C84.1449 89.825 84.1449 89.7515 84.2183 89.6781C84.2918 89.6046 84.3652 89.6046 84.4387 89.5312C84.5121 89.5312 84.6591 89.4577 84.806 89.4577H85.4671C85.614 89.4577 85.7609 89.5312 85.8344 89.6046C85.9078 89.6781 85.9813 89.825 85.9813 89.9719L86.3486 94.3059ZM77.3868 91.441C77.3868 91.0738 77.3133 90.7799 77.1664 90.5596C77.0195 90.3392 76.7257 90.2657 76.4318 90.2657C76.2849 90.2657 76.138 90.2657 75.9911 90.3392C75.8442 90.4126 75.7707 90.4861 75.6973 90.5596C75.6238 90.633 75.5503 90.7799 75.4769 90.9268C75.4034 91.0738 75.4034 91.2207 75.4034 91.3676H77.3868V91.441ZM78.709 91.8083C78.709 91.9552 78.709 92.1022 78.6355 92.1756C78.5621 92.2491 78.4886 92.3225 78.3417 92.3225H75.4769C75.4769 92.5429 75.4769 92.6898 75.5503 92.8367C75.6238 92.9837 75.6973 93.1306 75.7707 93.2775C75.8442 93.4244 75.9911 93.4979 76.138 93.5713C76.2849 93.6448 76.5053 93.6448 76.7257 93.6448C76.946 93.6448 77.1664 93.6448 77.3133 93.5713C77.4602 93.5713 77.6071 93.4979 77.7541 93.4244C77.901 93.3509 77.9744 93.3509 78.0479 93.2775C78.1214 93.2775 78.1948 93.204 78.2683 93.204H78.3417C78.3417 93.204 78.4152 93.204 78.4152 93.2775C78.4152 93.2775 78.4152 93.3509 78.4152 93.4244C78.4152 93.4979 78.4152 93.5713 78.4152 93.6448C78.4152 93.7182 78.4152 93.7917 78.4152 93.8651C78.4152 93.9386 78.4152 93.9386 78.4152 94.0121C78.4152 94.0855 78.4152 94.0855 78.4152 94.0855C78.4152 94.0855 78.4152 94.159 78.3417 94.159C78.3417 94.159 78.2683 94.2324 78.1213 94.2324C78.0479 94.3059 77.901 94.3059 77.7541 94.3793C77.6071 94.4528 77.3868 94.4528 77.2399 94.4528C77.0195 94.4528 76.7991 94.5263 76.5787 94.5263C76.138 94.5263 75.7707 94.4528 75.4769 94.3793C75.1831 94.3059 74.8892 94.0855 74.6688 93.8651C74.4485 93.6448 74.3016 93.3509 74.2281 93.0571C74.1546 92.7633 74.0812 92.3225 74.0812 91.8818C74.0812 91.441 74.1546 91.0738 74.2281 90.7799C74.3016 90.4126 74.5219 90.1923 74.6688 89.8984C74.8892 89.6781 75.1096 89.4577 75.4034 89.3842C75.6973 89.2373 76.0645 89.1639 76.4318 89.1639C76.7991 89.1639 77.1664 89.2373 77.4602 89.3108C77.7541 89.4577 77.9744 89.6046 78.1213 89.825C78.2683 90.0454 78.4152 90.2657 78.4886 90.5596C78.5621 90.8534 78.6355 91.1472 78.6355 91.5145V91.8083H78.709ZM72.9793 94.3059V94.3793L72.9059 94.4528C72.8324 94.4528 72.759 94.4528 72.6855 94.5263C72.612 94.5263 72.4651 94.5263 72.3917 94.5263C72.2448 94.5263 72.1713 94.5263 72.0978 94.5263C72.0244 94.5263 71.9509 94.5263 71.8775 94.4528C71.804 94.4528 71.804 94.3793 71.804 94.3793V94.3059V92.4695H69.7472V94.3059V94.3793L69.6737 94.4528C69.6003 94.4528 69.5268 94.4528 69.4534 94.5263C69.3799 94.5263 69.233 94.5263 69.1595 94.5263C69.0126 94.5263 68.9392 94.5263 68.8657 94.5263C68.7923 94.5263 68.7188 94.5263 68.6453 94.4528C68.5719 94.4528 68.5719 94.3793 68.5719 94.3793V94.3059V89.6046V89.5312L68.6453 89.4577C68.7188 89.4577 68.7923 89.4577 68.8657 89.3842C68.9392 89.3842 69.0861 89.3842 69.1595 89.3842C69.3065 89.3842 69.3799 89.3842 69.4534 89.3842C69.5268 89.3842 69.6003 89.3842 69.6737 89.4577C69.7472 89.4577 69.7472 89.5312 69.7472 89.5312V89.6046V91.3676H71.6571V89.6046V89.5312L71.7305 89.4577C71.804 89.4577 71.8775 89.4577 71.9509 89.3842C72.0244 89.3842 72.1713 89.3842 72.2448 89.3842C72.3917 89.3842 72.4651 89.3842 72.5386 89.3842C72.612 89.3842 72.6855 89.3842 72.759 89.4577C72.8324 89.4577 72.8324 89.5312 72.8324 89.5312V89.6046V94.3059H72.9793ZM66.0009 91.9553C66.0009 91.7349 66.0009 91.588 65.9274 91.3676C65.9274 91.1472 65.854 91.0003 65.7805 90.8534C65.707 90.7065 65.6336 90.5596 65.4867 90.4861C65.3397 90.4126 65.1928 90.3392 65.0459 90.3392C64.9725 90.3392 64.899 90.3392 64.7521 90.4126C64.6786 90.4126 64.6052 90.4861 64.4583 90.5596C64.3848 90.633 64.3113 90.7065 64.1644 90.7799C64.091 90.8534 63.9441 91.0003 63.8706 91.1472V92.6898C64.091 92.9102 64.2379 93.1306 64.3848 93.204C64.5317 93.3509 64.7521 93.4244 64.899 93.4244C65.0459 93.4244 65.1928 93.3509 65.3398 93.2775C65.4867 93.204 65.5601 93.0571 65.6336 92.9102C65.707 92.7633 65.7805 92.6164 65.7805 92.396C66.0009 92.3225 66.0009 92.1022 66.0009 91.9553ZM67.3966 91.8818C67.3966 92.3225 67.3231 92.6898 67.2496 92.9837C67.1762 93.3509 67.0293 93.5713 66.8824 93.8651C66.7354 94.0855 66.5151 94.3059 66.2212 94.3793C65.9274 94.5263 65.6336 94.5997 65.3398 94.5997C65.1928 94.5997 65.0459 94.5997 64.9725 94.5263C64.8255 94.5263 64.7521 94.4528 64.6052 94.3793C64.5317 94.3059 64.3848 94.2324 64.3113 94.159C64.2379 94.0855 64.091 94.0121 64.0175 93.8651V96.0689V96.1423L63.9441 96.2158C63.8706 96.2158 63.7971 96.2158 63.7237 96.2892C63.6502 96.2892 63.5033 96.2892 63.4299 96.2892C63.2829 96.2892 63.2095 96.2892 63.136 96.2892C63.0626 96.2892 62.9891 96.2892 62.9157 96.2158C62.8422 96.2158 62.8422 96.1423 62.8422 96.1423V96.0689V89.4577V89.3842L62.9157 89.3108C62.9891 89.3108 62.9891 89.3108 63.0626 89.2373C63.136 89.2373 63.2095 89.2373 63.3564 89.2373C63.4299 89.2373 63.5768 89.2373 63.6502 89.2373C63.7237 89.2373 63.7971 89.2373 63.7971 89.3108C63.8706 89.3108 63.8706 89.3842 63.8706 89.3842V89.4577V90.0454C64.0175 89.8984 64.1644 89.7515 64.3113 89.6781C64.4583 89.6046 64.6052 89.4577 64.6786 89.3842C64.8255 89.3108 64.9725 89.2373 65.1194 89.2373C65.2663 89.2373 65.4132 89.1639 65.5601 89.1639C65.9274 89.1639 66.2212 89.2373 66.4416 89.3842C66.662 89.5312 66.8824 89.6781 67.0293 89.9719C67.1762 90.1923 67.3231 90.4861 67.3966 90.7799C67.3231 91.1472 67.3966 91.5145 67.3966 91.8818ZM60.1977 91.441C60.1977 91.0738 60.1243 90.7799 59.9774 90.5596C59.8304 90.3392 59.5366 90.2657 59.2428 90.2657C59.0959 90.2657 58.949 90.2657 58.802 90.3392C58.6551 90.4126 58.5817 90.4861 58.5082 90.5596C58.4347 90.633 58.3613 90.7799 58.2878 90.9268C58.2144 91.0738 58.2144 91.2207 58.2144 91.3676H60.1977V91.441ZM61.52 91.8083C61.52 91.9552 61.52 92.1022 61.4465 92.1756C61.373 92.2491 61.2996 92.3225 61.1527 92.3225H58.2878C58.2878 92.5429 58.2878 92.6898 58.3613 92.8367C58.4348 92.9837 58.5082 93.1306 58.5817 93.2775C58.6551 93.4244 58.802 93.4979 58.949 93.5713C59.0959 93.6448 59.3162 93.6448 59.5366 93.6448C59.757 93.6448 59.9774 93.6448 60.1243 93.5713C60.2712 93.5713 60.4181 93.4979 60.565 93.4244C60.7119 93.3509 60.7854 93.3509 60.8588 93.2775C60.9323 93.2775 61.0058 93.204 61.0792 93.204H61.1527C61.1527 93.204 61.2261 93.204 61.2261 93.2775C61.2261 93.2775 61.2261 93.3509 61.2261 93.4244C61.2261 93.4979 61.2261 93.5713 61.2261 93.6448C61.2261 93.7182 61.2261 93.7917 61.2261 93.8651C61.2261 93.9386 61.2261 93.9386 61.2261 94.0121C61.2261 94.0855 61.2261 94.0855 61.2261 94.0855C61.2261 94.0855 61.2261 94.159 61.1527 94.159C61.1527 94.159 61.0792 94.2324 60.9323 94.2324C60.8588 94.3059 60.7119 94.3059 60.565 94.3793C60.4181 94.4528 60.1977 94.4528 60.0508 94.4528C59.8304 94.4528 59.6101 94.5263 59.3897 94.5263C58.949 94.5263 58.5817 94.4528 58.2878 94.3793C57.994 94.3059 57.7002 94.0855 57.4798 93.8651C57.2594 93.6448 57.1125 93.3509 57.0391 93.0571C56.9656 92.7633 56.8921 92.3225 56.8921 91.8818C56.8921 91.441 56.9656 91.0738 57.0391 90.7799C57.1125 90.4126 57.3329 90.1923 57.4798 89.8984C57.7002 89.6781 57.9205 89.4577 58.2144 89.3842C58.5082 89.2373 58.8755 89.1639 59.2428 89.1639C59.6101 89.1639 59.9774 89.2373 60.2712 89.3108C60.565 89.4577 60.7854 89.6046 60.9323 89.825C61.0792 90.0454 61.2261 90.2657 61.2996 90.5596C61.373 90.8534 61.4465 91.1472 61.4465 91.5145V91.8083H61.52ZM54.8353 92.9102C54.8353 92.7633 54.8353 92.6898 54.7619 92.6164C54.7619 92.5429 54.6884 92.4695 54.5415 92.396C54.468 92.3225 54.3211 92.3225 54.1742 92.2491C54.0273 92.2491 53.8804 92.1756 53.66 92.1756H52.9989V93.4979C53.0724 93.4979 53.1458 93.4979 53.1458 93.4979C53.2193 93.4979 53.2927 93.4979 53.3662 93.4979C53.4396 93.4979 53.5131 93.4979 53.5866 93.4979C53.66 93.4979 53.7335 93.4979 53.7335 93.4979C53.9538 93.4979 54.1008 93.4979 54.2477 93.4244C54.3946 93.4244 54.468 93.3509 54.5415 93.2775C54.615 93.204 54.6884 93.1306 54.7619 93.0571C54.7619 93.1306 54.8353 92.9837 54.8353 92.9102ZM54.6884 90.8534C54.6884 90.7799 54.6884 90.7065 54.615 90.633C54.615 90.5596 54.5415 90.4861 54.468 90.4126C54.3946 90.3392 54.3211 90.3392 54.1742 90.2657C54.0273 90.2657 53.8804 90.1923 53.7335 90.1923C53.5866 90.1923 53.4396 90.1923 53.3662 90.1923C53.2193 90.1923 53.1458 90.1923 53.0724 90.1923V91.3676H53.8069C54.1008 91.3676 54.3211 91.2941 54.468 91.2207C54.615 91.1472 54.6884 91.0003 54.6884 90.8534ZM56.1576 92.9102C56.1576 93.204 56.0841 93.4244 56.0107 93.6448C55.9372 93.8651 55.7903 94.0121 55.5699 94.159C55.3495 94.3059 55.1292 94.3793 54.8353 94.4528C54.5415 94.5263 54.1742 94.5263 53.7335 94.5263C53.5866 94.5263 53.4396 94.5263 53.3662 94.5263C53.2193 94.5263 53.1458 94.5263 52.9989 94.5263C52.852 94.5263 52.7785 94.5263 52.6316 94.5263C52.4847 94.5263 52.4112 94.5263 52.2643 94.5263C52.1174 94.5263 51.9705 94.4528 51.897 94.3793C51.8236 94.3059 51.8236 94.159 51.8236 94.0121V89.9719C51.8236 89.825 51.8236 89.6781 51.897 89.6046C51.9705 89.5312 52.044 89.4577 52.1909 89.4577C52.2643 89.4577 52.4112 89.4577 52.4847 89.4577C52.6316 89.4577 52.7051 89.4577 52.852 89.4577C52.9989 89.4577 53.1458 89.4577 53.2927 89.4577C53.4396 89.4577 53.5866 89.4577 53.7335 89.4577C54.1008 89.4577 54.468 89.4577 54.6884 89.5312C54.9822 89.6046 55.2026 89.6781 55.3495 89.7515C55.4965 89.825 55.6434 89.9719 55.7168 90.1188C55.7903 90.2657 55.8637 90.4861 55.8637 90.7065C55.8637 91.0003 55.7903 91.2207 55.6434 91.441C55.4965 91.6614 55.2761 91.7349 54.9823 91.8083C55.3495 91.8818 55.6434 92.0287 55.7903 92.2491C56.0107 92.3225 56.1576 92.5429 56.1576 92.9102Z" fill="black"/>
<path d="M170.678 92.9102C170.678 92.7633 170.678 92.6899 170.604 92.6164C170.604 92.5429 170.531 92.4695 170.384 92.396C170.31 92.3226 170.164 92.3226 170.017 92.2491C169.87 92.2491 169.723 92.1757 169.502 92.1757H168.915V93.4979C168.988 93.4979 169.062 93.4979 169.062 93.4979C169.135 93.4979 169.209 93.4979 169.282 93.4979C169.355 93.4979 169.429 93.4979 169.502 93.4979C169.576 93.4979 169.649 93.4979 169.649 93.4979C169.87 93.4979 170.017 93.4979 170.164 93.4244C170.31 93.4244 170.384 93.351 170.457 93.2775C170.531 93.2041 170.604 93.1306 170.678 93.0571C170.678 93.1306 170.678 92.9837 170.678 92.9102ZM170.531 90.8534C170.531 90.78 170.531 90.7065 170.457 90.633C170.457 90.5596 170.384 90.4861 170.31 90.4127C170.237 90.3392 170.164 90.3392 170.017 90.2658C169.87 90.2658 169.723 90.1923 169.576 90.1923C169.429 90.1923 169.282 90.1923 169.209 90.1923C169.062 90.1923 168.988 90.1923 168.915 90.1923V91.3676H169.649C169.943 91.3676 170.164 91.2942 170.31 91.2207C170.457 91.1473 170.531 91.0003 170.531 90.8534ZM172 92.9102C172 93.2041 171.927 93.4244 171.853 93.6448C171.78 93.8652 171.633 94.0121 171.412 94.159C171.192 94.3059 170.972 94.3794 170.678 94.4528C170.384 94.5263 170.017 94.5263 169.576 94.5263C169.429 94.5263 169.282 94.5263 169.209 94.5263C169.062 94.5263 168.988 94.5263 168.841 94.5263C168.694 94.5263 168.621 94.5263 168.474 94.5263C168.327 94.5263 168.254 94.5263 168.107 94.5263C167.96 94.5263 167.813 94.4528 167.739 94.3794C167.666 94.3059 167.666 94.159 167.666 94.0121V89.9719C167.666 89.825 167.666 89.6781 167.739 89.6046C167.813 89.5312 167.886 89.4577 168.033 89.4577C168.107 89.4577 168.254 89.4577 168.327 89.4577C168.474 89.4577 168.547 89.4577 168.694 89.4577C168.841 89.4577 168.988 89.4577 169.135 89.4577C169.282 89.4577 169.429 89.4577 169.576 89.4577C169.943 89.4577 170.31 89.4577 170.531 89.5312C170.825 89.6046 171.045 89.6781 171.192 89.7516C171.339 89.825 171.486 89.9719 171.559 90.1188C171.633 90.2658 171.706 90.4861 171.706 90.7065C171.706 91.0003 171.633 91.2207 171.486 91.4411C171.339 91.6614 171.118 91.7349 170.825 91.8084C171.192 91.8818 171.486 92.0287 171.633 92.2491C171.927 92.3226 172 92.5429 172 92.9102ZM165.242 91.9553C165.242 91.7349 165.242 91.5145 165.168 91.2942C165.095 91.0738 165.095 90.9269 164.948 90.78C164.875 90.633 164.728 90.4861 164.581 90.4127C164.434 90.3392 164.213 90.2658 163.993 90.2658C163.773 90.2658 163.626 90.2658 163.479 90.3392C163.332 90.4127 163.185 90.4861 163.112 90.633C163.038 90.78 162.965 90.9269 162.891 91.1473C162.818 91.3676 162.818 91.588 162.818 91.8084C162.818 92.0287 162.818 92.2491 162.891 92.4695C162.965 92.6899 162.965 92.8368 163.112 92.9837C163.185 93.1306 163.332 93.2041 163.479 93.351C163.626 93.4244 163.846 93.4979 164.067 93.4979C164.287 93.4979 164.434 93.4979 164.581 93.4244C164.728 93.351 164.875 93.2775 164.948 93.1306C165.022 92.9837 165.095 92.8368 165.168 92.6164C165.242 92.396 165.242 92.1757 165.242 91.9553ZM166.638 91.8818C166.638 92.2491 166.564 92.6164 166.491 92.9837C166.417 93.351 166.197 93.5713 165.976 93.8652C165.756 94.0855 165.462 94.3059 165.168 94.4528C164.875 94.5998 164.434 94.6732 164.067 94.6732C163.626 94.6732 163.259 94.5997 162.965 94.5263C162.671 94.3794 162.377 94.2325 162.157 94.0121C161.936 93.7917 161.789 93.4979 161.716 93.2041C161.642 92.9102 161.569 92.5429 161.569 92.1022C161.569 91.7349 161.642 91.3676 161.716 91.0003C161.789 90.633 162.01 90.4127 162.23 90.1188C162.45 89.8985 162.744 89.6781 163.038 89.5312C163.332 89.3843 163.773 89.3108 164.14 89.3108C164.581 89.3108 164.948 89.3843 165.242 89.4577C165.536 89.6046 165.83 89.7516 165.976 89.9719C166.197 90.1923 166.344 90.4861 166.417 90.78C166.564 91.0738 166.638 91.4411 166.638 91.8818ZM161.202 89.9719C161.202 90.0454 161.202 90.1923 161.202 90.2658C161.202 90.3392 161.202 90.4127 161.128 90.4127C161.128 90.4861 161.055 90.4861 161.055 90.4861H160.981H159.439V94.2325V94.3059L159.365 94.3794C159.292 94.3794 159.218 94.3794 159.145 94.4528C159.071 94.4528 158.925 94.4528 158.851 94.4528C158.704 94.4528 158.631 94.4528 158.557 94.4528C158.484 94.4528 158.41 94.4528 158.337 94.3794C158.263 94.3794 158.263 94.3059 158.263 94.3059V94.2325V89.825C158.263 89.6781 158.263 89.6046 158.337 89.5312C158.41 89.4577 158.484 89.4577 158.631 89.4577H161.128H161.202L161.275 89.5312C161.275 89.6046 161.275 89.6046 161.349 89.6781C161.202 89.7516 161.202 89.8985 161.202 89.9719ZM156.794 94.3059V94.3794L156.721 94.4528C156.647 94.4528 156.574 94.4528 156.5 94.5263C156.427 94.5263 156.28 94.5263 156.207 94.5263C156.06 94.5263 155.986 94.5263 155.913 94.5263C155.839 94.5263 155.766 94.5263 155.692 94.4528C155.619 94.4528 155.619 94.3794 155.619 94.3794V94.3059V90.4861H154.664C154.591 91.0738 154.517 91.5145 154.444 91.9553C154.37 92.396 154.297 92.7633 154.15 93.0571C154.076 93.351 153.929 93.6448 153.783 93.7917C153.636 94.0121 153.489 94.159 153.342 94.2325C153.195 94.3794 152.974 94.4528 152.828 94.4528C152.607 94.5263 152.46 94.5263 152.24 94.5263C152.166 94.5263 152.166 94.5263 152.093 94.5263L152.02 94.4528C152.02 94.3794 152.02 94.3794 152.02 94.3059C152.02 94.2325 152.02 94.159 152.02 94.0121C152.02 93.8652 152.02 93.7917 152.02 93.7183C152.02 93.6448 152.02 93.5713 152.02 93.4979C152.02 93.4244 152.02 93.4244 152.093 93.4244H152.166C152.24 93.4244 152.387 93.4244 152.46 93.351C152.534 93.2775 152.607 93.2041 152.681 93.1306C152.754 93.0571 152.828 92.9102 152.901 92.6899C152.974 92.5429 153.048 92.3226 153.121 92.0287C153.195 91.7349 153.268 91.4411 153.268 91.0738C153.342 90.7065 153.342 90.2658 153.415 89.825C153.415 89.6781 153.489 89.6046 153.489 89.5312C153.562 89.4577 153.636 89.4577 153.783 89.4577H156.5C156.647 89.4577 156.721 89.4577 156.794 89.5312C156.868 89.6046 156.868 89.6781 156.868 89.825V94.3059H156.794ZM150.183 91.9553C150.183 91.7349 150.183 91.5145 150.11 91.2942C150.036 91.0738 150.036 90.9269 149.889 90.78C149.816 90.633 149.669 90.4861 149.522 90.4127C149.375 90.3392 149.155 90.2658 148.934 90.2658C148.714 90.2658 148.567 90.2658 148.42 90.3392C148.273 90.4127 148.126 90.4861 148.053 90.633C147.979 90.78 147.906 90.9269 147.832 91.1473C147.759 91.3676 147.759 91.588 147.759 91.8084C147.759 92.0287 147.759 92.2491 147.832 92.4695C147.906 92.6899 147.906 92.8368 148.053 92.9837C148.126 93.1306 148.273 93.2041 148.42 93.351C148.567 93.4244 148.787 93.4979 149.008 93.4979C149.228 93.4979 149.375 93.4979 149.522 93.4244C149.669 93.351 149.816 93.2775 149.889 93.1306C149.963 92.9837 150.036 92.8368 150.11 92.6164C150.183 92.396 150.183 92.1757 150.183 91.9553ZM151.579 91.8818C151.579 92.2491 151.505 92.6164 151.432 92.9837C151.358 93.351 151.138 93.5713 150.918 93.8652C150.697 94.0855 150.403 94.3059 150.11 94.4528C149.816 94.5998 149.375 94.6732 149.008 94.6732C148.567 94.6732 148.2 94.5997 147.906 94.5263C147.612 94.3794 147.318 94.2325 147.098 94.0121C146.878 93.7917 146.731 93.4979 146.657 93.2041C146.584 92.9102 146.51 92.5429 146.51 92.1022C146.51 91.7349 146.584 91.3676 146.657 91.0003C146.731 90.633 146.951 90.4127 147.171 90.1188C147.392 89.8985 147.686 89.6781 147.979 89.5312C148.273 89.3843 148.714 89.3108 149.081 89.3108C149.522 89.3108 149.889 89.3843 150.183 89.4577C150.477 89.6046 150.771 89.7516 150.918 89.9719C151.138 90.1923 151.285 90.4861 151.358 90.78C151.505 91.0738 151.579 91.4411 151.579 91.8818ZM143.939 90.4861H142.837C142.764 90.9269 142.69 91.2942 142.617 91.6615C142.544 91.9553 142.47 92.2491 142.397 92.4695C142.323 92.6899 142.25 92.9102 142.176 93.0571C142.103 93.2041 142.029 93.351 141.956 93.4244H144.013V90.4861H143.939ZM141.221 95.9954V96.0689L141.148 96.1424C141.074 96.1424 141.074 96.1424 141.001 96.2158C140.927 96.2158 140.854 96.2158 140.707 96.2158C140.56 96.2158 140.487 96.2158 140.413 96.2158C140.34 96.2158 140.266 96.2158 140.266 96.1424C140.193 96.1424 140.193 96.1424 140.193 96.0689V95.9954V93.6448C140.193 93.5713 140.193 93.4979 140.266 93.4244C140.266 93.351 140.34 93.351 140.487 93.351H140.781C140.927 93.2041 141.001 93.0571 141.074 92.8368C141.148 92.6164 141.295 92.396 141.368 92.1757C141.442 91.8818 141.515 91.588 141.589 91.1473C141.662 90.78 141.736 90.2658 141.809 89.7516C141.809 89.6781 141.809 89.6046 141.809 89.6046C141.809 89.5312 141.882 89.5312 141.882 89.4577L141.956 89.3843C142.029 89.3843 142.029 89.3843 142.103 89.3843H145.041C145.188 89.3843 145.261 89.3843 145.335 89.4577C145.408 89.5312 145.408 89.6046 145.408 89.7516V93.2775H145.923C145.996 93.2775 146.069 93.2775 146.143 93.351C146.216 93.351 146.216 93.4244 146.216 93.5713V95.922V95.9954L146.143 96.0689C146.069 96.0689 146.069 96.0689 145.996 96.1424C145.923 96.1424 145.849 96.1424 145.702 96.1424C145.629 96.1424 145.482 96.1424 145.408 96.1424C145.335 96.1424 145.261 96.1424 145.261 96.0689C145.188 96.0689 145.188 96.0689 145.188 95.9954V95.922V94.3794H141.515V95.9954H141.221ZM137.108 92.9837C137.108 93.2775 137.034 93.4979 136.961 93.6448C136.887 93.8652 136.667 94.0121 136.52 94.159C136.3 94.3059 136.079 94.3794 135.785 94.4528C135.492 94.5263 135.198 94.5263 134.831 94.5263C134.684 94.5263 134.463 94.5263 134.316 94.4528C134.169 94.4528 134.022 94.3794 133.876 94.3794C133.729 94.3059 133.655 94.3059 133.508 94.2325C133.435 94.159 133.361 94.159 133.288 94.0855C133.214 94.0855 133.214 94.0121 133.214 94.0121C133.214 94.0121 133.214 93.9386 133.141 93.8652C133.141 93.7917 133.141 93.7917 133.141 93.7183C133.141 93.6448 133.141 93.5713 133.141 93.4979C133.141 93.4244 133.141 93.351 133.141 93.2775C133.141 93.2041 133.141 93.2041 133.141 93.1306C133.141 93.1306 133.141 93.0571 133.214 93.0571H133.288C133.361 93.0571 133.361 93.0571 133.435 93.1306C133.508 93.2041 133.582 93.2041 133.729 93.2775C133.802 93.351 133.949 93.351 134.169 93.4244C134.316 93.4979 134.537 93.4979 134.757 93.4979C134.904 93.4979 135.051 93.4979 135.198 93.4244C135.345 93.4244 135.418 93.351 135.492 93.2775C135.565 93.2041 135.639 93.1306 135.639 93.0571C135.712 92.9837 135.712 92.9102 135.712 92.7633C135.712 92.6899 135.712 92.5429 135.639 92.4695C135.565 92.396 135.565 92.3226 135.418 92.2491C135.345 92.1757 135.198 92.1757 135.051 92.1022C134.904 92.1022 134.757 92.0287 134.537 92.0287H134.022C133.949 92.0287 133.949 92.0287 133.876 92.0287L133.802 91.9553C133.802 91.9553 133.802 91.8818 133.802 91.8084C133.802 91.7349 133.802 91.6615 133.802 91.588C133.802 91.5145 133.802 91.4411 133.802 91.3676C133.802 91.2942 133.802 91.2942 133.802 91.2207C133.802 91.2207 133.802 91.1473 133.876 91.1473H133.949H134.463C134.684 91.1473 134.831 91.1472 134.977 91.0738C135.124 91.0738 135.198 91.0003 135.345 90.9269C135.418 90.8534 135.492 90.78 135.565 90.7065C135.639 90.633 135.639 90.5596 135.639 90.4127C135.639 90.3392 135.639 90.2658 135.565 90.1923C135.492 90.1188 135.492 90.0454 135.418 90.0454C135.345 89.9719 135.271 89.9719 135.198 89.9719C135.124 89.9719 134.977 89.9719 134.904 89.9719C134.684 89.9719 134.537 89.9719 134.39 90.0454C134.243 90.1188 134.096 90.1188 133.949 90.1923C133.802 90.2658 133.729 90.2658 133.655 90.3392C133.582 90.4127 133.508 90.4127 133.508 90.4127H133.435C133.435 90.4127 133.435 90.4127 133.361 90.3392C133.361 90.3392 133.361 90.2658 133.288 90.1923C133.288 90.1188 133.288 90.0454 133.288 89.9719C133.288 89.825 133.288 89.7516 133.288 89.6046C133.288 89.5312 133.361 89.4577 133.361 89.3843C133.435 89.3108 133.508 89.3108 133.582 89.2374C133.655 89.1639 133.802 89.1639 133.949 89.0904C134.096 89.017 134.243 89.017 134.463 89.017C134.61 89.017 134.831 88.9435 134.977 88.9435C135.271 88.9435 135.565 88.9435 135.785 89.017C136.006 89.0904 136.226 89.1639 136.373 89.2374C136.52 89.3843 136.667 89.4577 136.74 89.6781C136.814 89.825 136.887 90.0454 136.887 90.2658C136.887 90.4127 136.887 90.5596 136.814 90.633C136.74 90.78 136.74 90.8534 136.667 91.0003C136.593 91.0738 136.52 91.2207 136.373 91.2942C136.226 91.3676 136.153 91.4411 136.006 91.4411C136.153 91.4411 136.3 91.5145 136.447 91.588C136.593 91.6615 136.667 91.7349 136.814 91.8084C136.887 91.8818 136.961 92.0287 137.034 92.1757C137.108 92.6899 137.108 92.8368 137.108 92.9837ZM131.084 91.4411C131.084 91.0738 131.011 90.78 130.864 90.5596C130.717 90.3392 130.423 90.2658 130.129 90.2658C129.982 90.2658 129.835 90.2658 129.688 90.3392C129.542 90.4127 129.468 90.4861 129.395 90.5596C129.321 90.633 129.248 90.78 129.174 90.9269C129.101 91.0738 129.101 91.2207 129.101 91.3676H131.084V91.4411ZM132.406 91.8084C132.406 91.9553 132.406 92.1022 132.333 92.1757C132.259 92.2491 132.186 92.3226 132.039 92.3226H129.174C129.174 92.5429 129.174 92.6899 129.248 92.8368C129.321 92.9837 129.395 93.1306 129.468 93.2775C129.542 93.4244 129.688 93.4979 129.835 93.5713C129.982 93.6448 130.203 93.6448 130.423 93.6448C130.643 93.6448 130.864 93.6448 131.011 93.5713C131.158 93.5713 131.305 93.4979 131.451 93.4244C131.598 93.351 131.672 93.351 131.745 93.2775C131.819 93.2775 131.892 93.2041 131.966 93.2041H132.039C132.039 93.2041 132.113 93.2041 132.113 93.2775C132.113 93.2775 132.113 93.351 132.113 93.4244C132.113 93.4979 132.113 93.5713 132.113 93.6448C132.113 93.7183 132.113 93.7917 132.113 93.8652C132.113 93.9386 132.113 93.9386 132.113 94.0121C132.113 94.0855 132.113 94.0855 132.113 94.0855C132.113 94.0855 132.113 94.159 132.039 94.159C132.039 94.159 131.966 94.2325 131.819 94.2325C131.745 94.3059 131.598 94.3059 131.451 94.3794C131.305 94.4528 131.084 94.4528 130.937 94.4528C130.717 94.4528 130.497 94.5263 130.276 94.5263C129.835 94.5263 129.468 94.4528 129.174 94.3794C128.88 94.3059 128.587 94.0855 128.366 93.8652C128.146 93.6448 127.999 93.351 127.925 93.0571C127.852 92.7633 127.779 92.3226 127.779 91.8818C127.779 91.4411 127.852 91.0738 127.925 90.78C127.999 90.4127 128.219 90.1923 128.366 89.8985C128.587 89.6781 128.807 89.4577 129.101 89.3843C129.395 89.2374 129.762 89.1639 130.129 89.1639C130.497 89.1639 130.864 89.2374 131.158 89.3108C131.451 89.4577 131.672 89.6046 131.819 89.825C131.966 90.0454 132.113 90.2658 132.186 90.5596C132.259 90.8534 132.333 91.1473 132.333 91.5145V91.8084H132.406ZM125.648 91.9553C125.648 91.7349 125.648 91.588 125.575 91.4411C125.575 91.2942 125.501 91.1472 125.428 91.0003C125.354 90.8534 125.281 90.78 125.134 90.7065C124.987 90.633 124.84 90.633 124.693 90.633C124.546 90.633 124.473 90.633 124.326 90.7065C124.253 90.7065 124.106 90.78 124.032 90.8534C123.959 90.9269 123.812 91.0003 123.738 91.0738C123.665 91.1472 123.518 91.2207 123.445 91.3676C123.445 91.4411 123.445 91.4411 123.445 91.5145C123.445 91.588 123.445 91.588 123.445 91.6615C123.445 91.9553 123.445 92.2491 123.518 92.5429C123.592 92.7633 123.592 92.9837 123.738 93.1306C123.812 93.2775 123.959 93.4244 124.106 93.4979C124.253 93.5713 124.4 93.6448 124.62 93.6448C124.767 93.6448 124.987 93.6448 125.134 93.5713C125.281 93.4979 125.428 93.4244 125.501 93.2775C125.575 93.1306 125.648 92.9837 125.722 92.7633C125.648 92.396 125.648 92.1757 125.648 91.9553ZM126.971 91.8818C126.971 92.3226 126.897 92.6899 126.824 92.9837C126.677 93.351 126.53 93.5713 126.309 93.8652C126.089 94.0855 125.795 94.3059 125.501 94.3794C125.208 94.5263 124.84 94.5998 124.473 94.5998C124.032 94.5998 123.665 94.5263 123.371 94.3794C123.077 94.2325 122.783 94.0855 122.637 93.7917C122.416 93.4979 122.269 93.2041 122.196 92.7633C122.122 92.396 122.049 91.8818 122.049 91.3676C122.049 91.0003 122.049 90.633 122.122 90.2658C122.196 89.8985 122.196 89.6046 122.269 89.3108C122.343 89.017 122.416 88.7966 122.563 88.5762C122.71 88.3559 122.783 88.209 122.93 88.062C123.077 87.9151 123.151 87.8417 123.298 87.7682C123.445 87.6947 123.518 87.6213 123.665 87.5478C123.812 87.4744 123.959 87.4009 124.106 87.4009C124.253 87.3275 124.473 87.3275 124.693 87.254L126.383 87.0336C126.456 87.0336 126.53 87.0336 126.53 87.0336C126.603 87.0336 126.603 87.0336 126.603 87.1071C126.603 87.1071 126.603 87.1805 126.677 87.254C126.677 87.3275 126.677 87.4744 126.677 87.6213C126.677 87.6947 126.677 87.8417 126.677 87.9151C126.677 87.9886 126.677 88.062 126.603 88.1355C126.603 88.2089 126.53 88.209 126.53 88.2824C126.456 88.2824 126.456 88.3559 126.383 88.3559L124.84 88.5762C124.693 88.5762 124.546 88.6497 124.473 88.6497C124.4 88.6497 124.253 88.7232 124.179 88.7232C124.106 88.7232 124.032 88.7966 123.959 88.8701C123.885 88.9435 123.812 88.9435 123.812 89.017C123.738 89.0904 123.665 89.1639 123.665 89.2374C123.592 89.3108 123.592 89.4577 123.518 89.5312C123.518 89.6046 123.445 89.7516 123.445 89.8985C123.445 90.0454 123.371 90.1923 123.371 90.3392C123.445 90.2658 123.592 90.1188 123.665 90.0454C123.812 89.9719 123.885 89.8985 124.032 89.825C124.179 89.7516 124.326 89.7516 124.473 89.6781C124.62 89.6781 124.767 89.6046 124.914 89.6046C125.281 89.6046 125.575 89.6781 125.795 89.7516C126.016 89.825 126.236 90.0454 126.456 90.1923C126.603 90.4127 126.75 90.633 126.824 90.9269C126.971 91.1472 126.971 91.5145 126.971 91.8818ZM117.568 92.7633C117.568 92.6164 117.568 92.5429 117.495 92.396C117.421 92.3226 117.421 92.2491 117.274 92.1757C117.201 92.1022 117.054 92.0287 116.907 92.0287C116.76 92.0287 116.613 91.9553 116.393 91.9553C116.246 91.9553 116.172 91.9553 116.025 91.9553C115.878 91.9553 115.805 91.9553 115.732 91.9553V93.4979C115.805 93.4979 115.952 93.4979 116.025 93.4979C116.172 93.4979 116.246 93.4979 116.393 93.4979C116.76 93.4979 117.054 93.4244 117.201 93.2775C117.495 93.2041 117.568 93.0571 117.568 92.7633ZM118.964 92.6899C118.964 92.9837 118.89 93.2041 118.817 93.4244C118.743 93.6448 118.523 93.8652 118.303 94.0121C118.082 94.159 117.788 94.3059 117.495 94.3794C117.201 94.4528 116.76 94.5263 116.319 94.5263C116.172 94.5263 116.099 94.5263 115.952 94.5263C115.805 94.5263 115.732 94.5263 115.585 94.5263C115.438 94.5263 115.364 94.5263 115.217 94.5263C115.07 94.5263 114.997 94.5263 114.924 94.5263C114.777 94.5263 114.63 94.4528 114.556 94.3794C114.483 94.3059 114.409 94.159 114.409 94.0121V89.6046V89.5312L114.483 89.4577C114.556 89.4577 114.63 89.4577 114.703 89.3843C114.777 89.3843 114.924 89.3843 114.997 89.3843C115.144 89.3843 115.217 89.3843 115.291 89.3843C115.364 89.3843 115.438 89.3843 115.511 89.4577C115.585 89.4577 115.585 89.5312 115.658 89.5312V89.6046V91.0738C115.805 91.0738 115.878 91.0738 116.025 91.0738C116.172 91.0738 116.319 91.0738 116.466 91.0738C116.833 91.0738 117.201 91.1473 117.495 91.2207C117.788 91.2942 118.009 91.4411 118.229 91.588C118.449 91.7349 118.596 91.8818 118.67 92.1022C118.89 92.1757 118.964 92.4695 118.964 92.6899Z" fill="black"/>
</svg>
