<svg width="23" height="19" viewBox="0 0 23 19" fill="none" xmlns="http://www.w3.org/2000/svg">
<path d="M0.00418914 3.55395L11.4999 9.57461L22.9956 3.55395C22.953 2.78659 22.632 2.06533 22.0983 1.53786C21.5645 1.0104 20.8586 0.716656 20.1249 0.716797H2.87488C2.14116 0.716656 1.43514 1.0104 0.901444 1.53786C0.367745 2.06533 0.046745 2.78659 0.00418914 3.55395Z" fill="#ED9523"/>
<path d="M23 6.91805L11.5 12.9417L0 6.91805V15.7759C0 16.5747 0.302901 17.3408 0.842067 17.9055C1.38123 18.4704 2.11251 18.7877 2.875 18.7877H20.125C20.8875 18.7877 21.6187 18.4704 22.1579 17.9055C22.6971 17.3408 23 16.5747 23 15.7759V6.91805Z" fill="#ED9523"/>
</svg>
