<svg width="33" height="33" viewBox="0 0 33 33" fill="none" xmlns="http://www.w3.org/2000/svg">
<path d="M15.9171 13.2766C18.8214 13.2238 18.8213 8.57689 15.7058 8.84092C12.6959 9.05214 12.9072 13.3294 15.9171 13.2766Z" fill="#08B1F3"/>
<path d="M16.2339 0.392578C7.36256 0.392578 0.233887 7.5741 0.233887 16.3926C0.233887 25.2639 7.41537 32.3926 16.2339 32.3926C25.1051 32.3926 32.2339 25.2111 32.2339 16.3926C32.2339 7.52129 25.0523 0.392578 16.2339 0.392578ZM10.3725 10.1088C10.8478 6.83482 14.0161 5.19786 16.7092 5.67311C19.8775 6.20116 21.5673 9.10545 21.1976 11.7985C20.1943 19.0328 9.26363 17.3431 10.3725 10.1088ZM21.5144 26.1616C20.4583 27.2705 19.2965 26.2672 18.4517 25.4751C17.7124 24.7886 16.8675 23.9437 16.1283 23.3629C14.1745 25.4223 12.5903 27.9041 11.0062 26.5312C9.10519 24.8942 12.8543 22.4652 13.752 21.0922C12.8015 20.881 11.1645 20.353 10.4253 19.7721C9.686 19.1913 9.52758 17.8711 10.4253 17.1847C11.5342 16.3926 12.2735 17.2903 13.5409 17.6599C18.4518 19.2441 20.3527 14.8084 21.8313 17.3959C23.0986 19.6137 18.8213 20.617 18.3461 20.9338C20.4055 22.8348 23.0457 24.5774 21.5144 26.1616Z" fill="#08B1F3"/>
</svg>
