<svg width="95" height="87" viewBox="0 0 95 87" fill="none" xmlns="http://www.w3.org/2000/svg">
<ellipse cx="47.1527" cy="43.5" rx="47.1527" ry="43.5" fill="white" fill-opacity="0.43"/>
<path d="M70.5801 41.778L34.56 22.3936C34.105 22.1452 33.5822 22.0094 33.0467 22.0005C32.5112 21.9916 31.983 22.1099 31.5175 22.343C31.0555 22.5665 30.6706 22.8956 30.4035 23.2956C30.1364 23.6956 29.997 24.1517 30 24.6157V63.3843C29.997 63.8483 30.1364 64.3044 30.4035 64.7044C30.6706 65.1044 31.0555 65.4335 31.5175 65.657C31.983 65.8901 32.5112 66.0084 33.0467 65.9995C33.5822 65.9906 34.105 65.8548 34.56 65.6064L70.5801 46.222C71.0136 45.9901 71.372 45.6638 71.6207 45.2746C71.8694 44.8855 72 44.4465 72 44C72 43.5535 71.8694 43.1145 71.6207 42.7254C71.372 42.3362 71.0136 42.0099 70.5801 41.778ZM69.5351 44.7194L33.515 64.1059C33.3625 64.1884 33.1877 64.2334 33.0087 64.2361C32.8297 64.2388 32.6532 64.1992 32.4975 64.1213C32.3457 64.0503 32.2189 63.9441 32.1308 63.8142C32.0427 63.6843 31.9966 63.5356 31.9975 63.3843V24.6157C31.9966 24.4644 32.0427 24.3157 32.1308 24.1858C32.2189 24.0559 32.3457 23.9497 32.4975 23.8787C32.6532 23.8008 32.8297 23.7612 33.0087 23.7639C33.1877 23.7666 33.3625 23.8116 33.515 23.8941L69.5351 43.2806C69.6771 43.3546 69.7947 43.4598 69.8764 43.5859C69.9581 43.7121 70.0011 43.8548 70.0011 44C70.0011 44.1452 69.9581 44.2879 69.8764 44.4141C69.7947 44.5402 69.6771 44.6454 69.5351 44.7194Z" fill="#121212" fill-opacity="0.47"/>
</svg>
