<svg width="70" height="70" viewBox="0 0 70 70" fill="none" xmlns="http://www.w3.org/2000/svg">
<rect x="0.5" y="0.5" width="69" height="69" rx="34.5" stroke="#D9D9D9"/>
<path d="M49.0078 22C47.8078 22 47.0078 21.2 47.0078 20M29.0078 28C30.2078 28 31.0078 28.8 31.0078 30M29.0078 22C30.2078 22 31.0078 21.2 31.0078 20M49.0078 28C47.8078 28 47.0078 28.8 47.0078 30M44.1078 41.7L51.9078 40C52.7078 39.8 53.6078 40.2 53.9078 40.9C54.2078 41.7 53.7078 42.5 52.9078 43L39.2078 48.7C37.0078 49.5 34.3078 49.9 32.0078 49.9C30.4078 49.9 29.1078 49.7 27.5078 49.4L26.0078 49M32.0078 44H41.5078C42.9078 44 44.0078 42.9 44.0078 41.5C44.0078 40.1 42.9078 39 41.5078 39H35.0078L34.1078 38.4C32.1078 36.9 29.6078 36 27.0078 36C25.4078 36 23.8078 36.3 22.3078 37L19.9078 38M27.0078 18H51.0078V32H27.0078V18ZM43.0078 25C43.0078 27.2091 41.217 29 39.0078 29C36.7987 29 35.0078 27.2091 35.0078 25C35.0078 22.7909 36.7987 21 39.0078 21C41.217 21 43.0078 22.7909 43.0078 25ZM26.0078 50L23.0078 52L16.0078 39L19.0078 37L26.0078 50Z" stroke="#656C6F" stroke-width="1.5" stroke-miterlimit="10" stroke-linecap="round" stroke-linejoin="round"/>
</svg>
