<svg width="71" height="70" viewBox="0 0 71 70" fill="none" xmlns="http://www.w3.org/2000/svg">
<rect x="1.16797" y="0.5" width="69" height="69" rx="34.5" stroke="#D9D9D9"/>
<path d="M19.7305 51.25C19.3163 51.25 18.9805 51.5858 18.9805 52C18.9805 52.4142 19.3163 52.75 19.7305 52.75V51.25ZM27.168 52V52.75H27.918V52H27.168ZM27.168 30.75H27.918V30H27.168V30.75ZM19.7305 30C19.3163 30 18.9805 30.3358 18.9805 30.75C18.9805 31.1642 19.3163 31.5 19.7305 31.5V30ZM40.9805 30C40.5663 30 40.2305 30.3358 40.2305 30.75C40.2305 31.1642 40.5663 31.5 40.9805 31.5V30ZM49.4805 35.3125C49.0663 35.3125 48.7305 35.6483 48.7305 36.0625C48.7305 36.4767 49.0663 36.8125 49.4805 36.8125V35.3125ZM26.8065 32.2178C26.4436 32.4175 26.3112 32.8735 26.5108 33.2364C26.7104 33.5994 27.1665 33.7318 27.5294 33.5322L26.8065 32.2178ZM34.9242 25.65L34.2534 25.3146C34.2501 25.3211 34.247 25.3276 34.2439 25.3342L34.9242 25.65ZM40.24 30.7368C40.1741 31.1458 40.4521 31.5307 40.861 31.5967C41.27 31.6626 41.6549 31.3846 41.7209 30.9757L40.24 30.7368ZM48.418 40.7313C48.0038 40.7313 47.668 41.067 47.668 41.4813C47.668 41.8955 48.0038 42.2313 48.418 42.2313V40.7313ZM48.418 40.625C48.0038 40.625 47.668 40.9608 47.668 41.375C47.668 41.7892 48.0038 42.125 48.418 42.125V40.625ZM47.3555 46.0438C46.9413 46.0438 46.6055 46.3795 46.6055 46.7938C46.6055 47.208 46.9413 47.5438 47.3555 47.5438V46.0438ZM47.4609 45.9375C47.0467 45.9375 46.7109 46.2733 46.7109 46.6875C46.7109 47.1017 47.0467 47.4375 47.4609 47.4375V45.9375ZM27.715 50.3729C27.3446 50.1877 26.8941 50.3379 26.7088 50.7083C26.5236 51.0788 26.6737 51.5293 27.0442 51.7146L27.715 50.3729ZM19.7305 52.75H27.168V51.25H19.7305V52.75ZM27.918 52V30.75H26.418V52H27.918ZM27.168 30H19.7305V31.5H27.168V30ZM49.4805 31.5C50.1854 31.5 50.7492 32.0691 50.7492 32.875H52.2492C52.2492 31.3434 51.113 30 49.4805 30V31.5ZM50.7492 32.875V33.9375H52.2492V32.875H50.7492ZM50.7492 33.9375C50.7492 34.7171 50.1042 35.3125 49.4805 35.3125V36.8125C50.9818 36.8125 52.2492 35.4954 52.2492 33.9375H50.7492ZM27.5294 33.5322C28.6384 32.9222 30.2746 31.83 31.8135 30.5089C33.3388 29.1996 34.8453 27.6009 35.6045 25.9658L34.2439 25.3342C33.6218 26.6741 32.3128 28.1035 30.8365 29.3708C29.3739 30.6263 27.8226 31.659 26.8065 32.2178L27.5294 33.5322ZM35.595 25.9854C35.9317 25.3122 36.0968 24.2494 36.1892 23.2202C36.285 22.1526 36.3117 20.9855 36.3117 20.0187H34.8117C34.8117 20.9645 34.7853 22.0818 34.6952 23.0861C34.6016 24.1288 34.448 24.9254 34.2534 25.3146L35.595 25.9854ZM36.3117 20.0187C36.3117 19.1787 36.8003 18.75 37.368 18.75V17.25C35.8107 17.25 34.8117 18.5213 34.8117 20.0187H36.3117ZM37.368 18.75H37.4742V17.25H37.368V18.75ZM37.4742 18.75C39.5366 18.75 41.293 20.568 41.293 23.1H42.793C42.793 19.8945 40.5119 17.25 37.4742 17.25V18.75ZM41.293 23.1V23.3125H42.793V23.1H41.293ZM41.293 23.3125C41.293 23.4904 41.2357 24.0238 41.1334 24.7962C41.0347 25.5418 40.9026 26.4498 40.7701 27.3314C40.6376 28.2124 40.5051 29.0639 40.4056 29.6953C40.3559 30.011 40.3145 30.2716 40.2855 30.4531C40.271 30.5439 40.2596 30.6149 40.2519 30.6632C40.248 30.6873 40.245 30.7058 40.243 30.7182C40.242 30.7244 40.2413 30.7291 40.2408 30.7322C40.2405 30.7338 40.2403 30.7349 40.2402 30.7357C40.2402 30.7361 40.2401 30.7364 40.2401 30.7366C40.2401 30.7367 40.2401 30.7367 40.24 30.7368C40.24 30.7368 40.24 30.7368 40.9805 30.8563C41.7209 30.9757 41.7209 30.9756 41.7209 30.9756C41.7209 30.9755 41.7209 30.9755 41.721 30.9753C41.721 30.9751 41.721 30.9748 41.7211 30.9744C41.7212 30.9736 41.7214 30.9724 41.7217 30.9708C41.7222 30.9676 41.723 30.9628 41.724 30.9565C41.726 30.9439 41.729 30.9252 41.7329 30.9009C41.7407 30.8522 41.7522 30.7808 41.7667 30.6896C41.7959 30.5071 41.8375 30.2455 41.8874 29.9287C41.9871 29.2951 42.1202 28.44 42.2534 27.5545C42.3864 26.6697 42.52 25.7516 42.6205 24.9931C42.7174 24.2613 42.793 23.6127 42.793 23.3125H41.293ZM49.4805 36.8125C50.235 36.8125 50.8555 37.433 50.8555 38.1875H52.3555C52.3555 36.6045 51.0634 35.3125 49.4805 35.3125V36.8125ZM50.8555 38.1875V39.3563H52.3555V38.1875H50.8555ZM50.8555 39.3563C50.8555 40.1358 50.2104 40.7313 49.5867 40.7313V42.2313C51.088 42.2313 52.3555 40.9142 52.3555 39.3563H50.8555ZM49.5867 40.7313H48.418V42.2313H49.5867V40.7313ZM48.418 42.125C49.1725 42.125 49.793 42.7455 49.793 43.5H51.293C51.293 41.917 50.0009 40.625 48.418 40.625V42.125ZM49.793 43.5V44.6688H51.293V43.5H49.793ZM49.793 44.6688C49.793 45.4483 49.1479 46.0438 48.5242 46.0438V47.5438C50.0255 47.5438 51.293 46.2267 51.293 44.6688H49.793ZM48.5242 46.0438H47.3555V47.5438H48.5242V46.0438ZM47.4609 47.4375C48.1659 47.4375 48.7296 48.0066 48.7296 48.8125H50.2296C50.2296 47.2809 49.0934 45.9375 47.4609 45.9375V47.4375ZM48.7296 48.8125V49.875H50.2296V48.8125H48.7296ZM48.7296 49.875C48.7296 50.6546 48.0846 51.25 47.4609 51.25V52.75C48.9622 52.75 50.2296 51.4329 50.2296 49.875H48.7296ZM31.6296 51.25C30.2447 51.25 28.8742 50.9525 27.715 50.3729L27.0442 51.7146C28.4351 52.41 30.0396 52.75 31.6296 52.75V51.25ZM40.9805 31.5H49.4805V30H40.9805V31.5ZM47.4609 51.25H31.6296V52.75H47.4609V51.25Z" fill="#656C6F"/>
</svg>
