<svg width="71" height="70" viewBox="0 0 71 70" fill="none" xmlns="http://www.w3.org/2000/svg">
<rect x="0.832031" y="0.5" width="69" height="69" rx="34.5" stroke="#D9D9D9"/>
<path d="M47.4305 36.2C45.7305 36.2 44.2305 34.8 44.2305 33M23.0312 42.7C24.8312 42.7 26.3312 44.1999 26.3312 45.9999M23.0312 36.2C24.7313 36.2 26.2313 34.8 26.2313 33M47.4328 42.7C45.6328 42.7 44.1328 44.1999 44.1328 45.9999M32.332 28L30.632 24.6C29.832 23 28.232 22 26.432 22H17.332V23.2C17.332 24.2 18.132 25 19.132 25H27.332M27.332 28H22.132C21.132 28 20.332 27.2 20.332 26.2V25M38.332 28L40.032 24.6C40.832 23 42.432 22 44.232 22H53.332V23.2C53.332 24.2 52.532 25 51.532 25H43.332M43.332 28H48.532C49.532 28 50.332 27.2 50.332 26.2V25M20.332 31H50.332V48H20.332V31ZM40.332 39.5C40.332 41.9853 38.3173 44 35.832 44C33.3467 44 31.332 41.9853 31.332 39.5C31.332 37.0147 33.3467 35 35.832 35C38.3173 35 40.332 37.0147 40.332 39.5Z" stroke="#656C6F" stroke-width="1.5" stroke-miterlimit="10" stroke-linecap="round" stroke-linejoin="round"/>
</svg>
