<svg width="71" height="70" viewBox="0 0 71 70" fill="none" xmlns="http://www.w3.org/2000/svg">
<rect x="0.832031" y="0.5" width="69" height="69" rx="34.5" stroke="#D9D9D9"/>
<path d="M33.755 41.3143C33.1884 41.4762 32.6217 41.5571 31.9741 41.5571C30.0312 41.5571 27.7645 40.3429 26.4693 39.0476M26.4693 39.0476H24.8503C21.6931 39.0476 19.1836 41.5571 19.1836 44.7143V52H27.2788M26.4693 39.0476V37.4286M33.7538 50.381V37.1048C33.7538 36.3762 34.3204 35.8095 35.049 35.8095H50.1871C50.9157 35.8095 51.4823 36.3762 51.4823 37.1048V52H27.1966V47.9524H33.6728M33.9157 33.8667C33.1061 34.6762 32.0538 35.2428 30.8395 35.2428C29.5442 35.2428 28.4109 34.6762 27.6014 33.7857M33.755 37.3476C32.7836 37.9143 31.7312 38.2381 30.5169 38.2381C26.955 38.2381 24.0407 35.3238 24.0407 31.7619M24.0407 31.7619C24.0407 31.519 24.0407 31.1952 24.1217 30.9524M24.0407 31.7619H23.636C22.9884 31.7619 22.4217 31.1952 22.4217 30.5476V27.5524C22.4217 27.2286 22.6645 26.9048 23.0693 26.9048H24.0407M35.5353 35.8095C36.4258 34.6762 36.9925 33.3 36.9925 31.7619C38.3687 31.7619 39.4204 30.7095 39.4204 29.3333V26.3381C39.4204 21.7238 35.6966 18 31.0014 18H30.7585C26.1442 18 22.3395 21.8048 22.3395 26.419V27.7143M26.9563 22.5333C26.9563 25.8524 29.6277 28.5238 32.9468 28.5238H36.9944M24.4455 34.5952C23.3122 34.919 22.4217 35.9714 22.4217 37.1857V39.0476M24.8503 48.7619H23.2312V44.7143M44.2788 43.0952C44.2788 43.9894 43.554 44.7143 42.6598 44.7143C41.7656 44.7143 41.0407 43.9894 41.0407 43.0952C41.0407 42.2011 41.7656 41.4762 42.6598 41.4762C43.554 41.4762 44.2788 42.2011 44.2788 43.0952Z" stroke="#656C6F" stroke-width="1.5" stroke-miterlimit="10" stroke-linecap="round" stroke-linejoin="round"/>
</svg>
