<svg width="70" height="70" viewBox="0 0 70 70" fill="none" xmlns="http://www.w3.org/2000/svg">
<rect x="0.5" y="0.5" width="69" height="69" rx="34.5" stroke="#D9D9D9"/>
<path d="M19 38.7778C19 38.7778 18 38.7778 17 38.7778C15.9 38.7778 15 37.8333 15 36.6056V20.1722C15 18.9444 16 18 17.3 18H45.7C47 18 48 18.9444 48 20.1722V28.3889M26 47.2778H31M35 47.2778H40M44 47.2778H50M15 22.7222H48V26.5H15V22.7222ZM52.7 52H24.3C23 52 22 51.0556 22 49.8278V33.3944C22 32.1667 23 31.2222 24.3 31.2222H52.7C54 31.2222 55 32.1667 55 33.3944V49.8278C55 51.0556 54 52 52.7 52ZM50 39.25C50 40.554 48.8807 41.6111 47.5 41.6111C46.1193 41.6111 45 40.554 45 39.25C45 37.946 46.1193 36.8889 47.5 36.8889C48.8807 36.8889 50 37.946 50 39.25Z" stroke="#656C6F" stroke-width="1.5" stroke-miterlimit="10" stroke-linecap="round" stroke-linejoin="round"/>
</svg>
