<svg width="71" height="70" viewBox="0 0 71 70" fill="none" xmlns="http://www.w3.org/2000/svg">
<rect x="1.16797" y="0.5" width="69" height="69" rx="34.5" stroke="#D9D9D9"/>
<path d="M47.6324 33.1111V35.6296C47.6324 36.2593 48.1361 36.8889 48.8916 36.8889H51.5361C52.7954 36.8889 53.9287 37.8963 53.9287 39.2815V52M38.8176 41.9259V52M48.8916 41.9259V52M33.7805 52V39.2815C33.7805 38.0222 34.7879 36.8889 36.1731 36.8889H38.8176C39.4472 36.8889 40.0768 36.3852 40.0768 35.6296V34.3704M22.4472 45.7037V52M50.1509 23.037H41.3361V25.5556H37.5583M47.7603 36.8889C46.7529 38.1481 45.3677 38.9037 43.8566 38.9037C42.4714 38.9037 41.0862 38.2741 40.2047 37.1408M23.7065 36.8889V38.1481C23.7065 38.7778 23.2027 39.4074 22.4472 39.4074H19.8027C18.5435 39.4074 17.4102 40.4148 17.4102 41.8V52M33.7805 39.4074H31.262C30.6324 39.4074 30.0027 38.9037 30.0027 38.1481V36.8889M23.7065 39.6595C24.462 40.7928 25.7213 41.5484 26.9805 41.5484C28.1139 41.5484 29.2472 40.9187 30.0027 39.9113M21.1879 29.3333H26.225V26.8148H32.5213M50.1509 22.0296V28.3259C50.1509 31.7259 47.3805 34.3704 44.1065 34.3704H43.6027C40.2027 34.3704 37.5583 31.6 37.5583 28.3259V22.0296C37.5583 19.763 39.3213 18 41.588 18H46.1213C48.3879 18 50.1509 19.763 50.1509 22.0296ZM21.1879 25.5556V31.6C21.1879 34.7481 23.7065 37.2667 26.8546 37.2667C30.0027 37.2667 32.5213 34.7481 32.5213 31.6V25.5556C32.5213 23.4148 30.8842 21.7778 28.7435 21.7778H24.9657C22.825 21.7778 21.1879 23.4148 21.1879 25.5556Z" stroke="#656C6F" stroke-width="1.5" stroke-miterlimit="10" stroke-linecap="round" stroke-linejoin="round"/>
</svg>
