<svg width="86" height="86" viewBox="0 0 86 86" fill="none" xmlns="http://www.w3.org/2000/svg">
<rect width="86" height="86" rx="43" fill="#F2F7F9"/>
<path d="M38.9875 51.2125C38.9875 51.6267 39.3233 51.9625 39.7375 51.9625C40.1517 51.9625 40.4875 51.6267 40.4875 51.2125H38.9875ZM49.75 46.375L49.2517 46.9356L50.5 48.0451V46.375H49.75ZM54.25 36.25H55V35.5H54.25V36.25ZM51.814 56.89C51.5944 57.2412 51.7012 57.704 52.0525 57.9235C52.4037 58.143 52.8664 58.0362 53.086 57.685L51.814 56.89ZM32.1041 57.3091C32.3024 57.6728 32.758 57.8068 33.1216 57.6084C33.4853 57.4101 33.6193 56.9545 33.4209 56.5909L32.1041 57.3091ZM32.5 45.25C32.5 44.8358 32.1642 44.5 31.75 44.5C31.3358 44.5 31 44.8358 31 45.25H32.5ZM53.5 61C53.5 61.4142 53.8358 61.75 54.25 61.75C54.6642 61.75 55 61.4142 55 61H53.5ZM54.25 57.625H55V56.875H54.25V57.625ZM31.75 57.625V56.875H31V57.625H31.75ZM31 61C31 61.4142 31.3358 61.75 31.75 61.75C32.1642 61.75 32.5 61.4142 32.5 61H31ZM49.75 46C50.1642 46 50.5 45.6642 50.5 45.25C50.5 44.8358 50.1642 44.5 49.75 44.5V46ZM25 45.25H24.25C24.25 45.6642 24.5858 46 25 46V45.25ZM25 25V24.25C24.5858 24.25 24.25 24.5858 24.25 25H25ZM61 25H61.75C61.75 24.5858 61.4142 24.25 61 24.25V25ZM61 45.25V46C61.4142 46 61.75 45.6642 61.75 45.25H61ZM54.25 44.5C53.8358 44.5 53.5 44.8358 53.5 45.25C53.5 45.6642 53.8358 46 54.25 46V44.5ZM58.6375 31.6C59.0517 31.6 59.3875 31.2642 59.3875 30.85C59.3875 30.4358 59.0517 30.1 58.6375 30.1V31.6ZM55.7875 27.25C55.7875 26.8358 55.4517 26.5 55.0375 26.5C54.6233 26.5 54.2875 26.8358 54.2875 27.25H55.7875ZM27.25 38.5375C26.8358 38.5375 26.5 38.8733 26.5 39.2875C26.5 39.7017 26.8358 40.0375 27.25 40.0375V38.5375ZM30.2125 42.8875C30.2125 43.3017 30.5483 43.6375 30.9625 43.6375C31.3767 43.6375 31.7125 43.3017 31.7125 42.8875H30.2125ZM27.25 30.1C26.8358 30.1 26.5 30.4358 26.5 30.85C26.5 31.2642 26.8358 31.6 27.25 31.6V30.1ZM31.6 27.25C31.6 26.8358 31.2642 26.5 30.85 26.5C30.4358 26.5 30.1 26.8358 30.1 27.25H31.6ZM58.6375 40.0375C59.0517 40.0375 59.3875 39.7017 59.3875 39.2875C59.3875 38.8733 59.0517 38.5375 58.6375 38.5375V40.0375ZM54.175 42.8875C54.175 43.3017 54.5108 43.6375 54.925 43.6375C55.3392 43.6375 55.675 43.3017 55.675 42.8875H54.175ZM40.4875 51.2125C40.4875 48.2472 43.2973 46 46.375 46V44.5C42.7027 44.5 38.9875 47.2028 38.9875 51.2125H40.4875ZM46.375 46C47.0734 46 47.5766 46.0548 48.0054 46.1902C48.4223 46.3219 48.8101 46.543 49.2517 46.9356L50.2482 45.8144C49.6773 45.307 49.1089 44.9656 48.4571 44.7598C47.8171 44.5577 47.139 44.5 46.375 44.5V46ZM50.5 46.375V40.525H49V46.375H50.5ZM50.5 40.525C50.5 38.5767 52.0767 37 54.025 37V35.5C51.2482 35.5 49 37.7483 49 40.525H50.5ZM54.025 37H54.25V35.5H54.025V37ZM53.5 50.875C53.5 53.098 52.8639 55.2101 51.814 56.89L53.086 57.685C54.286 55.7649 55 53.377 55 50.875H53.5ZM33.4209 56.5909C32.8149 55.4797 32.5 54.1444 32.5 52.675H31C31 54.3556 31.3601 55.9452 32.1041 57.3091L33.4209 56.5909ZM32.5 52.675V45.25H31V52.675H32.5ZM55 61V57.625H53.5V61H55ZM54.25 56.875H31.75V58.375H54.25V56.875ZM31 57.625V61H32.5V57.625H31ZM49.75 44.5H25V46H49.75V44.5ZM25.75 45.25V25H24.25V45.25H25.75ZM25 25.75H61V24.25H25V25.75ZM60.25 25V45.25H61.75V25H60.25ZM61 44.5H54.25V46H61V44.5ZM47.875 35.6875C47.875 38.6905 45.4405 41.125 42.4375 41.125V42.625C46.269 42.625 49.375 39.519 49.375 35.6875H47.875ZM42.4375 41.125C39.4345 41.125 37 38.6905 37 35.6875H35.5C35.5 39.519 38.606 42.625 42.4375 42.625V41.125ZM37 35.6875C37 32.6845 39.4345 30.25 42.4375 30.25V28.75C38.606 28.75 35.5 31.856 35.5 35.6875H37ZM42.4375 30.25C45.4405 30.25 47.875 32.6845 47.875 35.6875H49.375C49.375 31.856 46.269 28.75 42.4375 28.75V30.25ZM58.6375 30.1C57.0267 30.1 55.7875 28.8608 55.7875 27.25H54.2875C54.2875 29.6892 56.1983 31.6 58.6375 31.6V30.1ZM27.25 40.0375C28.8912 40.0375 30.2125 41.3065 30.2125 42.8875H31.7125C31.7125 40.4185 29.6588 38.5375 27.25 38.5375V40.0375ZM27.25 31.6C29.6892 31.6 31.6 29.6892 31.6 27.25H30.1C30.1 28.8608 28.8608 30.1 27.25 30.1V31.6ZM58.6375 38.5375C56.2286 38.5375 54.175 40.4185 54.175 42.8875H55.675C55.675 41.3065 56.9963 40.0375 58.6375 40.0375V38.5375ZM53.5 36.25V50.875H55V36.25H53.5Z" fill="#656C6F"/>
</svg>
