<svg width="11" height="8" viewBox="0 0 11 8" fill="none" xmlns="http://www.w3.org/2000/svg">
<path fill-rule="evenodd" clip-rule="evenodd" d="M10.6396 2.41174L6.21395 7.19383C5.80667 7.60206 5.20933 7.60206 4.80206 7.19383L0.349215 2.41174C-0.0580584 1.97435 -0.13951 1.39117 0.267764 0.95378L0.430666 0.778814C0.783637 0.458063 1.19091 0.370593 1.51673 0.749662C2.60279 1.91603 3.716 3.11155 4.80206 4.27791C5.20933 4.68614 5.80668 4.68614 6.1868 4.27791C7.30002 3.11155 8.38607 1.91603 9.47213 0.749662C9.79795 0.370593 10.2052 0.458063 10.5582 0.778814L10.7211 0.95378C11.1555 1.39117 11.0469 1.97435 10.6396 2.41174Z" fill="#333333"/>
</svg>
