<svg width="36" height="40" viewBox="0 0 36 40" fill="none" xmlns="http://www.w3.org/2000/svg">
<path d="M34.9736 10.6994C34.0736 7.89939 30.8736 6.79939 28.4736 8.19939C27.0736 8.99939 26.2737 10.4994 26.2737 12.0994C26.2737 12.5994 25.9737 13.0994 25.5737 13.3994L24.7737 13.7994C24.0737 14.1994 23.7737 15.0994 24.2737 15.7994C24.6737 16.4994 25.5737 16.7994 26.2737 16.2994L27.0737 15.8994C27.5737 15.5994 28.0737 15.6994 28.5737 15.8994C30.0737 16.7994 32.0736 16.6994 33.6736 15.4994C34.9736 14.3994 35.5736 12.3994 34.9736 10.6994Z" fill="#22313F"/>
<path d="M11.0743 23.2993C10.6743 22.5993 9.7743 22.2993 9.0743 22.7993L8.27425 23.1994C7.77425 23.4994 7.27425 23.3994 6.77425 23.1994C5.27425 22.2994 3.27415 22.3993 1.67415 23.5993C0.274151 24.6993 -0.325849 26.6994 0.174151 28.3994C1.07415 31.1994 4.27415 32.2994 6.67415 30.8994C8.07415 30.0994 8.87435 28.5993 8.87435 26.9993C8.87435 26.4993 9.1743 25.9994 9.5743 25.6994L10.3743 25.2993C11.2743 24.9993 11.4743 23.9993 11.0743 23.2993ZM10.5743 13.6994L9.77425 13.2993C9.27425 12.9993 9.0743 12.4993 9.0743 11.9993C9.0743 10.1993 8.07415 8.49933 6.17415 7.79933C4.47415 7.09933 2.47425 7.59934 1.27425 8.99934C-0.725751 11.1993 -0.125654 14.4994 2.37435 15.8994C3.77435 16.6994 5.47435 16.6994 6.87435 15.8994C7.37435 15.5994 7.87435 15.5994 8.37435 15.8994L9.17415 16.2993C9.87415 16.6993 10.7742 16.4993 11.1742 15.7993C11.4742 15.0993 11.2743 14.0994 10.5743 13.6994ZM15.3743 8.39937C15.8743 8.69937 16.1742 9.09936 16.1742 9.69936V10.5993C16.1742 11.3993 16.8742 12.0993 17.6742 12.0993C18.4741 12.0993 19.1742 11.3993 19.1742 10.5993V9.69936C19.1742 9.19936 19.4742 8.69937 19.9742 8.39937C21.4742 7.49937 22.4741 5.79933 22.1742 3.79933C21.8742 1.99933 20.4741 0.49932 18.6742 0.0993204C15.7742 -0.50068 13.1742 1.69934 13.1742 4.49934C13.1742 6.19934 14.0743 7.59937 15.3743 8.39937ZM32.8743 23.1994C31.4743 22.3994 29.7743 22.3994 28.3743 23.1994C27.8743 23.4994 27.3743 23.4994 26.8743 23.1994L26.0743 22.7993C25.3743 22.3993 24.4743 22.5993 24.0743 23.2993C23.6743 23.9993 23.8743 24.8993 24.5743 25.2993L25.3743 25.6994C25.8743 25.9994 26.0743 26.4993 26.0743 26.9993C26.0743 28.7993 27.0742 30.4994 28.9742 31.1994C30.6742 31.8994 32.6743 31.3993 33.8743 29.9993C35.9743 27.8993 35.3743 24.5994 32.8743 23.1994ZM17.6742 14.4993C14.8742 14.4993 12.6742 16.6993 12.6742 19.4993C12.6742 22.2993 14.8742 24.4993 17.6742 24.4993C20.4741 24.4993 22.6742 22.2993 22.6742 19.4993C22.6742 16.7993 20.3742 14.4993 17.6742 14.4993ZM19.8743 30.6994C19.3743 30.3994 19.0743 29.9994 19.0743 29.3994V28.4993C19.0743 27.6993 18.3743 26.9993 17.5743 26.9993C16.7743 26.9993 16.0743 27.6993 16.0743 28.4993V29.3994C16.0743 29.8994 15.7742 30.3994 15.2742 30.6994C13.7742 31.5994 12.7743 33.2993 13.0743 35.2993C13.3743 37.0993 14.7743 38.5993 16.5743 38.9993C19.4743 39.5993 22.0743 37.3993 22.0743 34.5993C22.1743 32.8993 21.2743 31.4994 19.8743 30.6994Z" fill="#22313F"/>
</svg>
