<svg width="37" height="37" viewBox="0 0 37 37" fill="none" xmlns="http://www.w3.org/2000/svg">
<path d="M23.8475 13.4237L12.9309 20.3331C12.5125 20.5985 12.3155 21.1177 12.4507 21.6038L13.6309 25.8658C13.7147 26.1678 14.1413 26.1368 14.182 25.8248L14.4889 23.4876C14.5467 23.0475 14.7511 22.6421 15.0677 22.3392L24.0771 13.7331C24.2454 13.5725 24.0436 13.2999 23.8475 13.4237Z" fill="#18A3E6"/>
<path fill-rule="evenodd" clip-rule="evenodd" d="M18.5 37C28.7173 37 37 28.7173 37 18.5C37 8.28273 28.7173 0 18.5 0C8.28267 0 0 8.28273 0 18.5C0 28.7173 8.28267 37 18.5 37ZM11.1174 21.4735L5.53159 19.3312C4.96437 19.1127 4.95938 18.2896 5.52505 18.0654L28.449 8.97758C28.9349 8.78442 29.4364 9.22197 29.3305 9.74644L25.2167 30.0818C25.1198 30.5619 24.572 30.7797 24.1853 30.4909L18.5696 26.301C18.2285 26.0466 17.7636 26.0602 17.4372 26.3334L14.3237 28.9419C13.9622 29.2455 13.4177 29.0764 13.2793 28.6187L11.1174 21.4735Z" fill="#18A3E6"/>
</svg>
