<svg width="37" height="37" viewBox="0 0 37 37" fill="none" xmlns="http://www.w3.org/2000/svg">
<path d="M18.1378 14.8974C21.4959 14.8364 21.4958 9.46342 17.8935 9.7687C14.4134 10.0129 14.6577 14.9585 18.1378 14.8974Z" fill="#FF7700"/>
<path d="M18.5 0C8.24253 0 0 8.30363 0 18.5C0 28.7574 8.30359 37 18.5 37C28.7574 37 37 28.6964 37 18.5C37 8.24257 28.6963 0 18.5 0ZM11.7228 11.2343C12.2723 7.44885 15.9357 5.5561 19.0496 6.10561C22.7129 6.71617 24.6667 10.0743 24.2393 13.1881C23.0793 21.5528 10.4406 19.599 11.7228 11.2343ZM24.6056 29.7954C23.3845 31.0776 22.0412 29.9175 21.0643 29.0016C20.2095 28.2079 19.2327 27.231 18.3779 26.5594C16.1188 28.9406 14.2871 31.8102 12.4555 30.2228C10.2574 28.33 14.5924 25.5215 15.6304 23.934C14.5313 23.6898 12.6386 23.0792 11.7838 22.4076C10.929 21.736 10.7458 20.2096 11.7838 19.4158C13.066 18.5 13.9208 19.538 15.3862 19.9653C21.0644 21.797 23.2624 16.6683 24.972 19.6601C26.4373 22.2244 21.4917 23.3845 20.9422 23.7508C23.3234 25.9488 26.3762 27.9637 24.6056 29.7954Z" fill="#FF7700"/>
</svg>
