<svg width="37" height="37" viewBox="0 0 37 37" fill="none" xmlns="http://www.w3.org/2000/svg">
<path fill-rule="evenodd" clip-rule="evenodd" d="M16.1094 21.4208C18.0083 20.3863 19.846 19.4126 21.745 18.378C19.846 17.3435 17.9471 16.3698 16.1094 15.3353C16.1094 17.4043 16.1094 19.4126 16.1094 21.4208Z" fill="#FF0101"/>
<path fill-rule="evenodd" clip-rule="evenodd" d="M18.5 0C8.26985 0 0 8.27631 0 18.5C0 28.7237 8.26985 37 18.5 37C28.7301 37 37 28.7237 37 18.5C37 8.27631 28.7301 0 18.5 0ZM28.6076 23.3684C28.4239 24.4638 27.5663 25.3766 26.5249 25.5592C26.1574 25.6201 25.7897 25.6201 25.3609 25.6809C22.298 25.8635 19.2351 26.0461 16.1722 25.8635C14.3344 25.8026 12.558 25.6809 10.7202 25.5592C9.61757 25.4984 8.57614 24.5247 8.39237 23.3684C8.08608 21.4211 7.9635 19.4737 8.02476 17.4655C8.08602 16.1266 8.14733 14.7878 8.39237 13.5099C8.57614 12.3536 9.55631 11.4408 10.7202 11.3799C13.2931 11.2582 15.8659 11.1365 18.3162 11.0148C20.5828 11.1365 22.7881 11.1974 24.9934 11.3191C25.4835 11.3191 26.0348 11.3191 26.5249 11.4408C27.6276 11.6234 28.4239 12.5362 28.6076 13.6924C28.8527 15.4572 28.9752 17.222 28.9139 18.9868C28.9139 20.4474 28.8527 21.9079 28.6076 23.3684Z" fill="#FF0101"/>
</svg>
