<svg width="37" height="37" viewBox="0 0 37 37" fill="none" xmlns="http://www.w3.org/2000/svg">
<path fill-rule="evenodd" clip-rule="evenodd" d="M18.5 0C8.26983 0 0 8.27631 0 18.5C0 28.7237 8.26983 37 18.5 37C28.7301 37 37 28.7237 37 18.5C37 8.27631 28.6688 0 18.5 0ZM27.5662 20.3865C29.0977 21.7862 30.2003 22.9424 30.8129 23.8553C31.1191 24.2813 31.1804 24.7072 31.1191 25.0724C30.9966 25.4375 30.7516 25.6201 30.3841 25.6201L26.341 25.8026C25.7897 25.8635 25.0546 25.4984 24.2583 24.7681C23.4619 24.0378 22.9106 23.4293 22.6043 22.9424C22.4205 22.6382 22.1142 22.5164 21.6854 22.4556C21.2566 22.3947 20.9503 22.6382 20.8278 23.0641L20.7052 24.6464C20.644 24.9507 20.5215 25.1941 20.3377 25.3766C20.1539 25.5592 19.9701 25.6201 19.7864 25.6809C19.6639 25.6809 19.4188 25.7418 19.0513 25.8026C18.0099 25.8635 17.0298 25.8026 16.2334 25.6201C15.4371 25.4984 14.702 25.1941 14.0282 24.7072C13.3543 24.2812 12.8642 23.8553 12.4354 23.4901C12.0678 23.125 11.4553 22.5164 10.7202 21.7253C8.69867 18.8651 7.22844 16.4309 6.24831 14.3618C5.88076 13.5707 5.69699 12.8405 5.63573 12.2928C5.8195 12.1102 6.1258 12.0493 6.5546 11.9885C6.98341 11.9276 7.6573 11.9276 8.51491 11.9276C9.37253 11.9276 9.86259 11.9885 10.0464 11.9885C10.4752 11.9276 10.7815 12.1711 11.0265 12.6579C12.0679 14.9095 13.048 16.6743 14.0282 17.9523C14.702 18.5609 15.1308 18.4391 15.3146 17.648C15.3758 17.648 15.437 16.6743 15.437 14.6661C15.4983 13.3882 14.947 12.597 13.9056 12.2928C14.1506 11.6234 15.0083 11.3191 16.4785 11.3191C16.846 11.3191 17.2748 11.3191 17.8261 11.3799C18.3775 11.4408 18.6225 11.4408 18.6838 11.4408C19.9089 11.4408 20.5215 11.9276 20.5215 12.9013C20.5215 13.023 20.5215 13.3273 20.4603 13.8141C20.399 14.301 20.399 14.727 20.3377 15.153C20.3377 15.5789 20.2765 16.0049 20.2765 16.4918C20.2765 16.9786 20.3378 17.3437 20.4603 17.7089C20.5828 18.0132 20.7665 18.2566 20.9503 18.3174C21.1953 18.1349 21.3791 18.0132 21.6241 17.8306C21.8079 17.7089 22.053 17.4655 22.298 17.1003C22.5431 16.7961 22.7268 16.5526 22.8493 16.3701C22.9718 16.1875 23.1556 15.8832 23.4006 15.4572C23.6457 15.0312 23.7682 14.727 23.8295 14.6053C23.8907 14.4836 24.0132 14.1793 24.2583 13.6316C24.5033 13.1447 24.6258 12.8405 24.6258 12.8405L24.687 12.6579C24.8708 12.2928 24.9934 12.0493 25.1159 11.9885C25.2384 11.9276 25.4834 11.8668 25.9122 11.8668H29.7103C30.1391 11.8668 30.4453 11.8668 30.5066 11.9276C30.5678 11.9276 30.6904 12.0493 30.8742 12.2319C31.1805 12.597 30.9354 13.3882 30.0778 14.6053C29.2814 15.8224 28.485 16.8569 27.7499 17.648C26.9536 18.7434 26.8311 19.6562 27.5662 20.3865Z" fill="#0077FF"/>
</svg>
