<svg width="37" height="37" viewBox="0 0 37 37" fill="none" xmlns="http://www.w3.org/2000/svg">
<path d="M22.1662 24.1889C22.7302 24.1126 23.8582 23.5024 24.1 22.8921C24.3417 22.2819 24.3417 21.7479 24.2611 21.5191C24.1805 21.4428 24.0194 21.3665 23.6971 21.214C23.4554 21.0614 22.005 20.3749 21.7633 20.2986C21.5216 20.2223 21.2798 20.1461 21.1187 20.4512C20.9575 20.7563 20.3935 21.3665 20.2324 21.5191C20.0712 21.6717 19.9101 21.7479 19.5878 21.5954C19.5389 21.5723 19.4771 21.5456 19.4034 21.5139C18.9912 21.3363 18.2081 20.9989 17.2511 20.2223C16.3648 19.4595 15.8007 18.6204 15.6396 18.3153C15.4784 18.0865 15.6396 17.9339 15.8007 17.7814C15.8341 17.7498 15.8813 17.692 15.9366 17.6243C16.0148 17.5286 16.1092 17.413 16.2036 17.3237C16.3648 17.1711 16.4453 17.0186 16.5259 16.866C16.6065 16.7134 16.6065 16.5609 16.5259 16.4083C16.4728 16.358 16.2094 15.7438 15.9669 15.1782C15.8416 14.8861 15.7219 14.6069 15.6396 14.425C15.4235 13.9477 15.2074 13.958 15.0489 13.9656C15.0301 13.9665 15.0121 13.9673 14.995 13.9673H14.431C14.1892 13.9673 13.8669 13.9673 13.6252 14.2725C13.5932 14.3128 13.5528 14.3585 13.5067 14.4106C13.2043 14.7524 12.6583 15.3695 12.6583 16.5609C12.6583 17.9339 13.7058 19.2307 13.8669 19.3832C13.8714 19.3896 13.8772 19.3979 13.8843 19.408C14.1317 19.7632 15.9618 22.3899 18.782 23.5024C19.2314 23.7151 19.6417 23.8537 19.9855 23.9698C20.1348 24.0202 20.2715 24.0664 20.3935 24.1126C21.0381 24.2652 21.6827 24.2652 22.1662 24.1889Z" fill="#0DC143"/>
<path fill-rule="evenodd" clip-rule="evenodd" d="M18.5 37C28.7173 37 37 28.7173 37 18.5C37 8.28273 28.7173 0 18.5 0C8.28273 0 0 8.28273 0 18.5C0 28.7173 8.28273 37 18.5 37ZM18.5403 8.09375C21.6021 8.09375 24.5028 9.23796 26.6784 11.2975C28.8539 13.3571 29.9819 16.1032 30.0625 18.9256C30.0625 24.9517 24.9057 29.8337 18.5403 29.8337C16.6065 29.8337 14.7533 29.376 13.0612 28.5369L6.9375 30.0625L8.549 24.4178C7.5821 22.8159 7.01807 20.9089 7.01807 19.0018C7.01807 12.9757 12.1749 8.09375 18.5403 8.09375Z" fill="#0DC143"/>
</svg>
