<svg width="70" height="70" viewBox="0 0 70 70" fill="none" xmlns="http://www.w3.org/2000/svg">
<rect x="0.5" y="0.5" width="69" height="69" rx="34.5" stroke="#D9D9D9"/>
<path d="M41 44C41 41.8 39.2 40 37 40H33C30.8 40 29 41.8 29 44M35 17C35 17 26.9 26 19 26C19 47.3 34 53 34 53C34 53 51 47.3 51 26C43.1 26 35 17 35 17ZM39 34C39 36.2091 37.2091 38 35 38C32.7909 38 31 36.2091 31 34C31 31.7909 32.7909 30 35 30C37.2091 30 39 31.7909 39 34Z" stroke="#656C6F" stroke-width="1.5" stroke-miterlimit="10" stroke-linecap="round" stroke-linejoin="round"/>
</svg>
