<svg width="71" height="70" viewBox="0 0 71 70" fill="none" xmlns="http://www.w3.org/2000/svg">
<rect x="0.833984" y="0.5" width="69" height="69" rx="34.5" stroke="#D9D9D9"/>
<path d="M27.9227 20.1765H39.5697M34.2756 49.8235H15.2168V20.1765H17.3344M49.0991 20.1765H51.2168V31.8235M51.2168 26.5294H15.2168M33.2168 40.2941H31.0991V44.5294H33.2168M42.7462 47.7059H46.9815C48.1462 47.7059 49.0991 46.7529 49.0991 45.5882C49.0991 44.4235 48.1462 43.4706 46.9815 43.4706H44.8639C43.6991 43.4706 42.7462 42.5176 42.7462 41.3529C42.7462 40.1882 43.6991 39.2353 44.8639 39.2353H49.0991M45.9227 37.1176V39.2353M45.9227 47.7059V49.8235M20.5109 17H23.6874V23.3529H20.5109V17ZM42.7462 17H45.9227V23.3529H42.7462V17ZM20.5109 31.8235H25.805V36.0588H20.5109V31.8235ZM31.0991 31.8235H36.3933V36.0588H31.0991V31.8235ZM20.5109 40.2941H25.805V44.5294H20.5109V40.2941ZM55.4521 43.4706C55.4521 48.7335 51.1856 53 45.9227 53C40.6597 53 36.3933 48.7335 36.3933 43.4706C36.3933 38.2076 40.6597 33.9412 45.9227 33.9412C51.1856 33.9412 55.4521 38.2076 55.4521 43.4706Z" stroke="#656C6F" stroke-width="1.5" stroke-miterlimit="10" stroke-linecap="round" stroke-linejoin="round"/>
</svg>
