<svg width="71" height="70" viewBox="0 0 71 70" fill="none" xmlns="http://www.w3.org/2000/svg">
<rect x="1.16602" y="0.5" width="69" height="69" rx="34.5" stroke="#D9D9D9"/>
<path d="M38.666 34L34.666 38L32.666 36M35.666 17C35.666 17 27.566 26 19.666 26C19.666 47.3 34.666 53 34.666 53C34.666 53 51.666 47.3 51.666 26C43.766 26 35.666 17 35.666 17ZM42.666 36C42.666 39.866 39.532 43 35.666 43C31.8 43 28.666 39.866 28.666 36C28.666 32.134 31.8 29 35.666 29C39.532 29 42.666 32.134 42.666 36Z" stroke="#656C6F" stroke-width="1.5" stroke-miterlimit="10" stroke-linecap="round" stroke-linejoin="round"/>
</svg>
