<svg width="70" height="10" viewBox="0 0 70 10" fill="none" xmlns="http://www.w3.org/2000/svg">
<path d="M9.24563 3.24661L6.79643 2.90183L5.68326 0.603351C5.3493 -0.201117 4.68145 -0.201117 4.3475 0.603351L3.23433 2.90183L0.785405 3.24661C-0.105133 3.36153 -0.216341 3.93615 0.340245 4.62569L2.12116 6.46446L1.676 8.9928C1.56468 9.9122 2.00995 10.257 2.78917 9.79727L5.01552 8.64803L7.24186 9.79727C8.02108 10.257 8.46635 9.79727 8.35503 8.9928L7.9096 6.46446L9.69079 4.62569C10.2474 3.93615 10.0248 3.36153 9.24563 3.24661Z" fill="#08B1F3"/>
<path d="M24.2456 3.24661L21.7964 2.90183L20.6833 0.603351C20.3493 -0.201117 19.6815 -0.201117 19.3475 0.603351L18.2343 2.90183L15.7854 3.24661C14.8949 3.36153 14.7837 3.93615 15.3402 4.62569L17.1212 6.46446L16.676 8.9928C16.5647 9.9122 17.0099 10.257 17.7892 9.79727L20.0155 8.64803L22.2419 9.79727C23.0211 10.257 23.4664 9.79727 23.355 8.9928L22.9096 6.46446L24.6908 4.62569C25.2474 3.93615 25.0248 3.36153 24.2456 3.24661Z" fill="#08B1F3"/>
<path d="M39.2456 3.24661L36.7964 2.90183L35.6833 0.603351C35.3493 -0.201117 34.6815 -0.201117 34.3475 0.603351L33.2343 2.90183L30.7854 3.24661C29.8949 3.36153 29.7837 3.93615 30.3402 4.62569L32.1212 6.46446L31.676 8.9928C31.5647 9.9122 32.0099 10.257 32.7892 9.79727L35.0155 8.64803L37.2419 9.79727C38.0211 10.257 38.4664 9.79727 38.355 8.9928L37.9096 6.46446L39.6908 4.62569C40.2474 3.93615 40.0248 3.36153 39.2456 3.24661Z" fill="#08B1F3"/>
<path d="M54.2456 3.24661L51.7964 2.90183L50.6833 0.603351C50.3493 -0.201117 49.6815 -0.201117 49.3475 0.603351L48.2343 2.90183L45.7854 3.24661C44.8949 3.36153 44.7837 3.93615 45.3402 4.62569L47.1212 6.46446L46.676 8.9928C46.5647 9.9122 47.0099 10.257 47.7892 9.79727L50.0155 8.64803L52.2419 9.79727C53.0211 10.257 53.4664 9.79727 53.355 8.9928L52.9096 6.46446L54.6908 4.62569C55.2474 3.93615 55.0248 3.36153 54.2456 3.24661Z" fill="#08B1F3"/>
<path d="M69.2456 3.24661L66.7964 2.90183L65.6833 0.603351C65.3493 -0.201117 64.6815 -0.201117 64.3475 0.603351L63.2343 2.90183L60.7854 3.24661C59.8949 3.36153 59.7837 3.93615 60.3402 4.62569L62.1212 6.46446L61.676 8.9928C61.5647 9.9122 62.0099 10.257 62.7892 9.79727L65.0155 8.64803L67.2419 9.79727C68.0211 10.257 68.4664 9.79727 68.355 8.9928L67.9096 6.46446L69.6908 4.62569C70.2474 3.93615 70.0248 3.36153 69.2456 3.24661Z" fill="#08B1F3"/>
</svg>
