<svg width="17" height="19" viewBox="0 0 17 19" fill="none" xmlns="http://www.w3.org/2000/svg">
<path d="M15.8826 13.5728C15.7986 13.505 15.7118 13.4348 15.6304 13.3656C15.199 12.9988 14.7401 12.6607 14.2962 12.3337C14.2041 12.2659 14.1119 12.198 14.0202 12.13C13.4516 11.708 12.9404 11.5029 12.4574 11.5029C11.807 11.5029 11.2398 11.8827 10.7718 12.6315C10.5644 12.9635 10.3128 13.1249 10.0027 13.1249C9.81938 13.1249 9.61106 13.0696 9.38361 12.9605C7.54834 12.0812 6.23784 10.733 5.48843 8.95332C5.12616 8.09317 5.2436 7.53092 5.88116 7.07332C6.2432 6.8137 6.9171 6.33035 6.86936 5.40477C6.81531 4.35368 4.62035 1.19108 3.69553 0.831883C3.30397 0.679745 2.89257 0.678327 2.47055 0.828339C1.40738 1.20597 0.644445 1.86915 0.264009 2.74607C-0.103626 3.5934 -0.0870242 4.58832 0.312025 5.62329C1.46563 8.61561 3.08754 11.2245 5.13286 13.3774C7.13487 15.4849 9.59552 17.2112 12.4464 18.5082C12.7033 18.6251 12.9729 18.6888 13.1697 18.7353C13.2368 18.7512 13.2947 18.7648 13.3369 18.777C13.3601 18.7837 13.384 18.7873 13.408 18.7875L13.4305 18.7877C13.4306 18.7877 13.4305 18.7877 13.4306 18.7877C14.7715 18.7877 16.3815 17.4931 16.8759 16.0172C17.3091 14.7248 16.5182 14.086 15.8826 13.5728Z" fill="#ED9523"/>
</svg>
