<svg width="23" height="20" viewBox="0 0 23 20" fill="none" xmlns="http://www.w3.org/2000/svg">
<path d="M0.405075 9.57436L5.68944 11.5467L7.73481 18.1246C7.86569 18.5458 8.38085 18.7016 8.72279 18.422L11.6684 16.0207C11.9771 15.7691 12.4169 15.7566 12.7396 15.9908L18.0524 19.848C18.4182 20.1139 18.9364 19.9135 19.0282 19.4714L22.9201 0.750653C23.0202 0.267824 22.5458 -0.134967 22.0861 0.0428448L0.398883 8.40911C-0.136311 8.61551 -0.131648 9.37324 0.405075 9.57436ZM7.40518 10.4968L17.7328 4.13596C17.9184 4.02198 18.1094 4.27295 17.95 4.4208L9.4267 12.3436C9.12711 12.6225 8.93386 12.9957 8.87912 13.4008L8.58879 15.5524C8.55033 15.8397 8.14678 15.8682 8.0675 15.5902L6.95087 11.6666C6.82297 11.2191 7.00935 10.7411 7.40518 10.4968Z" fill="#ED9523"/>
</svg>
