<svg width="11" height="7" viewBox="0 0 11 7" fill="none" xmlns="http://www.w3.org/2000/svg">
<path fill-rule="evenodd" clip-rule="evenodd" d="M10.6396 1.91174L6.21395 6.69383C5.80667 7.10206 5.20933 7.10206 4.80206 6.69383L0.349215 1.91174C-0.0580584 1.47435 -0.13951 0.891167 0.267764 0.45378L0.430666 0.278814C0.783637 -0.0419368 1.19091 -0.129407 1.51673 0.249662C2.60279 1.41603 3.716 2.61155 4.80206 3.77791C5.20933 4.18614 5.80668 4.18614 6.1868 3.77791C7.30002 2.61155 8.38607 1.41603 9.47213 0.249662C9.79795 -0.129407 10.2052 -0.0419368 10.5582 0.278814L10.7211 0.45378C11.1555 0.891167 11.0469 1.47435 10.6396 1.91174Z" fill="#333333"/>
</svg>
