<svg width="19" height="21" viewBox="0 0 19 21" fill="none" xmlns="http://www.w3.org/2000/svg">
<path d="M18.4241 11.7483C19.0299 6.65655 18.133 3.44199 16.5152 1.98805L16.5161 1.9872C13.905 -0.495736 5.08694 -0.863235 1.96312 2.09872C0.560286 3.54759 0.0661623 5.67402 0.0120118 8.30649C-0.0421388 10.9398 -0.106443 15.8727 4.4972 17.2109H4.50143L4.4972 19.2546C4.4972 19.2546 4.4659 20.0825 4.99556 20.2489C5.60137 20.4449 5.8755 20.0605 7.75977 17.8133C10.9107 18.0862 13.3305 17.461 13.6055 17.3698C14.2418 17.1569 17.8419 16.6812 18.4241 11.7483ZM8.07029 16.3754C8.07029 16.3754 6.07603 18.8584 5.45584 19.503C5.25277 19.7125 5.03025 19.693 5.03363 19.2774C5.03363 19.0045 5.04886 15.8846 5.04886 15.8846C1.14579 14.7677 1.37593 10.5672 1.41823 8.36985C1.46054 6.17162 1.86328 4.3713 3.05121 3.15898C5.79174 0.593243 13.5226 1.16688 15.4923 3.01536C17.9003 5.14685 17.0432 11.1688 17.0483 11.3741C16.5533 15.4917 13.636 15.7528 13.0995 15.931C12.8702 16.0071 10.7423 16.5537 8.07029 16.3754Z" fill="#ED9523"/>
<path d="M9.19908 3.63887C8.87651 3.63887 8.87651 4.1492 9.19908 4.15345C11.7017 4.17301 13.7627 5.94386 13.7853 9.1921C13.7853 9.53487 14.2797 9.53062 14.2755 9.18785H14.2746C14.2478 5.68784 11.9974 3.65843 9.19908 3.63887Z" fill="#ED9523"/>
<path d="M12.5187 8.62694C12.5111 8.96384 13.0107 8.97993 13.0149 8.63879C13.0565 6.71811 11.8698 5.13602 9.63981 4.96926C9.31324 4.94556 9.27931 5.45768 9.60503 5.48138C11.539 5.62783 12.5577 6.94496 12.5187 8.62694Z" fill="#ED9523"/>
<path d="M11.9886 10.7931C11.5707 10.5508 11.1453 10.7016 10.9693 10.9397L10.6013 11.4167C10.4144 11.659 10.065 11.6268 10.065 11.6268C7.51549 10.9516 6.83369 8.27951 6.83369 8.27951C6.83369 8.27951 6.80239 7.91776 7.03586 7.72375L7.49603 7.34252C7.72612 7.15952 7.87161 6.71898 7.6373 6.28606C7.01133 5.15336 6.59091 4.76281 6.3769 4.4629C6.15189 4.18078 5.81353 4.11724 5.46163 4.30786H5.45402C4.72231 4.73654 3.92124 5.53884 4.17755 6.36485C4.61488 7.23577 5.41849 10.012 7.97989 12.1097C9.18361 13.1017 11.0886 14.1184 11.8973 14.3531L11.9049 14.3649C12.7017 14.6309 13.4766 13.7973 13.8902 13.0424V13.0365C14.0738 12.6714 14.0129 12.3257 13.7447 12.0995C13.2693 11.6353 12.552 11.1227 11.9886 10.7931Z" fill="#ED9523"/>
<path d="M9.95737 6.88002C10.763 6.92736 11.1537 7.35175 11.1956 8.22336C11.2107 8.56406 11.7011 8.54039 11.686 8.19969C11.6324 7.06178 11.0439 6.42773 9.9842 6.36855C9.66144 6.34911 9.63126 6.86058 9.95737 6.88002Z" fill="#ED9523"/>
</svg>
