<svg width="32" height="32" viewBox="0 0 32 32" fill="none" xmlns="http://www.w3.org/2000/svg">
<path fill-rule="evenodd" clip-rule="evenodd" d="M16 0C7.15229 0 0 7.15789 0 16C0 24.8421 7.15229 32 16 32C24.8476 32 32 24.8421 32 16C32 7.15789 24.7947 0 16 0ZM23.8411 17.6316C25.1656 18.8421 26.1192 19.8421 26.649 20.6316C26.9139 21 26.9668 21.3684 26.9139 21.6842C26.8079 22 26.596 22.1579 26.2781 22.1579L22.7814 22.3158C22.3046 22.3684 21.6689 22.0526 20.9801 21.4211C20.2914 20.7895 19.8146 20.2632 19.5497 19.8421C19.3907 19.5789 19.1258 19.4737 18.755 19.4211C18.3841 19.3684 18.1192 19.5789 18.0132 19.9474L17.9072 21.3158C17.8543 21.5789 17.7483 21.7895 17.5894 21.9474C17.4304 22.1053 17.2715 22.1579 17.1125 22.2105C17.0066 22.2105 16.7947 22.2632 16.4768 22.3158C15.5761 22.3684 14.7285 22.3158 14.0397 22.1579C13.351 22.0526 12.7152 21.7895 12.1325 21.3684C11.5497 21 11.1258 20.6316 10.7549 20.3158C10.437 20 9.90728 19.4737 9.27152 18.7895C7.52318 16.3158 6.25163 14.2105 5.40395 12.4211C5.08606 11.7368 4.92712 11.1053 4.87414 10.6316C5.03308 10.4737 5.29799 10.4211 5.66885 10.3684C6.03971 10.3158 6.62253 10.3158 7.36425 10.3158C8.10597 10.3158 8.52981 10.3684 8.68875 10.3684C9.05961 10.3158 9.3245 10.5263 9.53642 10.9474C10.4371 12.8947 11.2848 14.4211 12.1325 15.5263C12.7152 16.0526 13.0861 15.9474 13.245 15.2632C13.298 15.2632 13.351 14.4211 13.351 12.6842C13.4039 11.5789 12.9271 10.8947 12.0265 10.6316C12.2384 10.0526 12.9801 9.78947 14.2517 9.78947C14.5695 9.78947 14.9404 9.78947 15.4172 9.84211C15.894 9.89474 16.106 9.89474 16.1589 9.89474C17.2185 9.89474 17.7483 10.3158 17.7483 11.1579C17.7483 11.2632 17.7484 11.5263 17.6954 11.9474C17.6424 12.3684 17.6424 12.7368 17.5894 13.1053C17.5894 13.4737 17.5364 13.8421 17.5364 14.2632C17.5364 14.6842 17.5894 15 17.6954 15.3158C17.8013 15.5789 17.9602 15.7895 18.1192 15.8421C18.3311 15.6842 18.49 15.5789 18.7019 15.4211C18.8609 15.3158 19.0729 15.1053 19.2848 14.7895C19.4967 14.5263 19.6556 14.3158 19.7615 14.1579C19.8675 14 20.0265 13.7368 20.2384 13.3684C20.4503 13 20.5563 12.7368 20.6093 12.6316C20.6623 12.5263 20.7682 12.2632 20.9801 11.7895C21.192 11.3684 21.298 11.1053 21.298 11.1053L21.3509 10.9474C21.5099 10.6316 21.6159 10.4211 21.7218 10.3684C21.8278 10.3158 22.0397 10.2632 22.4105 10.2632H25.6954C26.0662 10.2632 26.3311 10.2632 26.3841 10.3158C26.437 10.3158 26.543 10.4211 26.702 10.5789C26.9669 10.8947 26.7549 11.5789 26.0132 12.6316C25.3245 13.6842 24.6357 14.5789 24 15.2632C23.3112 16.2105 23.2053 17 23.8411 17.6316Z" fill="#08B1F3"/>
</svg>
