<svg width="20" height="20" viewBox="0 0 20 20" fill="none" xmlns="http://www.w3.org/2000/svg">
<path d="M14.9135 13.452C14.7061 14.0302 13.7122 14.5582 13.2341 14.6295C12.8053 14.6932 12.263 14.7197 11.667 14.5314C11.3055 14.4172 10.8421 14.2648 10.2483 14.0098C7.9163 13.0076 6.3401 10.7583 6.04167 10.3324C6.02068 10.3025 6.00603 10.2816 5.99785 10.2707L5.99563 10.2677C5.86325 10.0919 4.98184 8.92086 4.98184 7.7089C4.98184 6.56805 5.54518 5.97003 5.80416 5.69508C5.82182 5.67631 5.83807 5.65905 5.85266 5.64323C6.08087 5.39529 6.3505 5.33338 6.51631 5.33338C6.60038 5.33338 6.68458 5.33376 6.76606 5.33507C6.84515 5.33634 6.92165 5.33847 6.99305 5.34196C7.01096 5.34285 7.0296 5.34274 7.04887 5.34262C7.19393 5.34174 7.37469 5.34066 7.55287 5.76709C7.62149 5.9312 7.72194 6.17448 7.82786 6.43103L7.82859 6.43264C8.04247 6.95087 8.27856 7.52276 8.3201 7.60552C8.38226 7.72962 8.42368 7.87419 8.3409 8.03948C8.25788 8.20478 7.98215 8.5614 7.71892 8.88641L7.70439 8.90411C7.69756 8.91232 7.69061 8.9205 7.68365 8.92868C7.58155 9.0493 7.47963 9.16981 7.60974 9.3919C7.75468 9.63959 8.25431 10.4506 8.99385 11.1073C9.78859 11.8127 10.4793 12.111 10.8298 12.2623L10.8319 12.2632C10.8571 12.2741 10.8805 12.2842 10.9021 12.2937C10.9385 12.3097 10.9696 12.3237 10.995 12.3364C11.2435 12.4602 11.3887 12.4395 11.5339 12.2744C11.6789 12.1091 12.1559 11.5513 12.3217 11.3034C12.4875 11.0555 12.6535 11.0969 12.8815 11.1796C13.1097 11.2619 14.3329 11.8612 14.5817 11.985C14.6305 12.0093 14.676 12.0313 14.7182 12.0516C14.8915 12.135 15.0085 12.1913 15.0585 12.2744C15.1209 12.3778 15.1209 12.8734 14.9135 13.452Z" fill="#ED9523"/>
<path fill-rule="evenodd" clip-rule="evenodd" d="M10.0419 19.8281H10.0379C8.37112 19.8274 6.73338 19.4114 5.27887 18.6218L0 20L1.41285 14.8643C0.541297 13.3615 0.0827794 11.6565 0.083518 9.90977C0.0858567 4.44549 4.55305 0 10.0419 0C12.7056 0.00101097 15.206 1.03321 17.086 2.90629C18.9662 4.77961 20.001 7.26963 20 9.9176C19.9977 15.3821 15.53 19.8281 10.0419 19.8281ZM10.0452 1.67392C5.47969 1.67392 1.76674 5.36876 1.76471 9.91053C1.76422 11.4669 2.20187 12.9826 3.03028 14.2941L3.22704 14.6057L2.39076 17.6455L5.52339 16.8276L5.82576 17.006C7.09638 17.7567 8.55311 18.1537 10.0383 18.1542H10.0416C14.6035 18.1542 18.3165 14.4591 18.3185 9.91711C18.3193 7.71597 17.4591 5.64652 15.8965 4.08963C14.3339 2.53274 12.2557 1.67468 10.0452 1.67392Z" fill="#ED9523"/>
</svg>
