<svg width="64" height="64" viewBox="0 0 64 64" fill="none" xmlns="http://www.w3.org/2000/svg">
<circle cx="32" cy="32" r="32" fill="#E0F0FA"/>
<path d="M26.3771 33.0938C26.8982 33.0938 27.3206 32.6716 27.3206 32.1507C27.3206 31.6299 26.8982 31.2077 26.3771 31.2077C25.856 31.2077 25.4336 31.6299 25.4336 32.1507C25.4336 32.6716 25.856 33.0938 26.3771 33.0938Z" fill="black"/>
<path d="M43.5779 28.8138C43.215 28.4148 42.6343 28.4148 42.2351 28.7413C41.836 29.0677 41.836 29.6843 42.1626 30.0833C42.2714 30.2284 42.344 30.4097 42.344 30.6999C42.344 31.2077 42.1626 31.3528 41.9811 31.4616C41.7634 31.5704 41.5094 31.6067 41.4368 31.6067H40.7836C40.4207 29.8294 39.4772 28.3423 37.9894 27.2542C37.3362 26.7464 36.5741 26.3474 35.7395 26.0572C36.1024 25.4406 36.2838 24.7515 36.2838 24.0261C36.2838 21.8135 34.4694 20 32.2557 20C30.0421 20 28.2277 21.8135 28.2277 24.0261C28.2277 24.28 28.264 24.4976 28.3003 24.7152C27.2116 23.8084 25.9052 23.3006 24.3811 23.2644C24.0545 23.2644 23.7279 23.4095 23.5465 23.6996C23.365 23.9898 23.3651 24.3525 23.5102 24.6427C23.5102 24.6427 24.1634 25.8396 24.4174 27.2904C23.4739 28.1609 23.0022 29.1765 22.6756 29.9382C22.5304 30.2284 22.3852 30.5911 22.2764 30.7362H20.9337C20.4256 30.7362 19.9902 31.1714 19.9902 31.6792V35.4514C19.9902 35.9592 20.4256 36.3944 20.9337 36.3944H21.9135C22.4215 37.6276 23.2562 38.6795 24.3449 39.55L24.0182 40.3117C23.7279 41.0008 23.7279 41.7988 24.0182 42.4879C24.3085 43.1771 24.8528 43.7211 25.5423 44.0113C25.9052 44.1564 26.2681 44.2289 26.631 44.2289C27.7559 44.2289 28.8084 43.5761 29.2439 42.4879L29.5704 41.6537C30.0422 41.7262 30.5139 41.7262 31.022 41.7262H31.0945C31.8566 41.7262 32.5824 41.69 33.3082 41.5812L33.6711 42.4879C34.2517 43.9388 35.9209 44.6279 37.3725 44.0113C38.062 43.7211 38.6063 43.1771 38.8966 42.4879C39.1869 41.7988 39.1869 41.0371 38.8966 40.3117L38.2071 38.6432C38.0257 38.1717 37.445 37.9178 36.9733 38.1354C36.5015 38.3168 36.2475 38.8971 36.4653 39.3686L37.1547 41.0371C37.2636 41.2547 37.2636 41.5449 37.1547 41.7625C37.0458 41.9801 36.8644 42.1615 36.6467 42.2703C36.175 42.4517 35.5944 42.234 35.4129 41.7625L34.7597 40.1666C34.5783 39.7313 34.1428 39.5137 33.7073 39.5863C32.9089 39.7676 32.038 39.8401 31.0945 39.8401H31.022C30.4051 39.8401 29.7518 39.7676 29.1712 39.6588C28.7357 39.5863 28.3003 39.8039 28.1189 40.2391L27.502 41.7262C27.3205 42.1978 26.7399 42.4517 26.2681 42.234C26.0504 42.1252 25.869 41.9439 25.7601 41.7262C25.6512 41.5086 25.6512 41.2547 25.7601 41.0008L26.3408 39.55C26.5222 39.1147 26.377 38.6432 25.9779 38.3893C24.7441 37.5551 23.8368 36.4307 23.4013 35.1249C23.2562 34.726 22.9296 34.4721 22.4941 34.4721H21.8047V32.586H22.2401C23.4739 32.586 23.9457 31.5341 24.3449 30.6999C24.6715 29.9382 25.0706 29.104 25.9415 28.4148C26.1956 28.2335 26.3407 27.907 26.3044 27.5806C26.2319 26.8189 26.0504 26.0572 25.8327 25.4406C26.5947 25.7308 27.2116 26.2386 27.756 26.964C27.9737 27.2542 28.3366 27.3992 28.6632 27.3267C29.3527 27.2179 30.1147 27.1454 30.9856 27.1454H31.0583C32.909 27.1454 38.9691 27.6169 38.9691 33.4565C38.9691 34.0006 38.9329 34.4721 38.824 34.9436C38.7152 35.4514 39.0418 35.9592 39.5498 36.068C40.0578 36.1768 40.5659 35.8504 40.6748 35.3426C40.8199 34.7622 40.8562 34.1094 40.8562 33.4565H41.3279C41.4368 33.4565 42.0538 33.4565 42.6707 33.13C43.6142 32.6585 44.1222 31.788 44.1222 30.6636C44.2674 29.9382 44.0496 29.2853 43.5779 28.8138ZM33.8162 25.5132C32.9815 25.3681 32.1106 25.2955 31.2034 25.2955H31.1308C30.9494 25.2955 30.768 25.2955 30.5865 25.2955C30.2962 24.9328 30.1511 24.4613 30.1511 24.0261C30.1511 22.8654 31.0945 21.8861 32.2921 21.8861C33.4896 21.8861 34.4331 22.8291 34.4331 24.0261C34.4331 24.5701 34.2153 25.1142 33.8162 25.5132Z" fill="black"/>
</svg>
