<svg width="64" height="64" viewBox="0 0 64 64" fill="none" xmlns="http://www.w3.org/2000/svg">
<circle cx="32" cy="32" r="32" fill="#E0F0FA"/>
<path d="M32.9107 28.0265C32.9107 27.5119 32.4751 27.0765 31.9602 27.0765C31.4454 27.0765 31.0098 27.5119 31.0098 28.0265V30.1245C31.0098 31.6683 32.277 32.935 33.8216 32.935H35.9207C36.4355 32.935 36.8711 32.4996 36.8711 31.985C36.8711 31.4704 36.4355 31.035 35.9207 31.035H34.2573L43.6831 21.5742C44.0396 21.218 44.0396 20.6242 43.6831 20.2679C43.3267 19.9117 42.7326 19.9117 42.3762 20.2679L32.9107 29.7683V28.0265Z" fill="black"/>
<path d="M42.8515 26.9574C42.6139 26.4824 42.0594 26.2845 41.6238 26.522C41.1485 26.7595 40.9505 27.3137 41.1882 27.7491C41.703 28.8179 41.9803 29.9263 42.0991 31.1138H40.2773C40.2377 30.7576 40.1584 30.4013 40.0792 30.045C39.9604 29.5304 39.4456 29.2534 38.9308 29.3721C38.4159 29.4909 38.1386 30.0055 38.2574 30.5201C38.3762 31.0347 38.4554 31.5493 38.4554 32.0639C38.4554 35.2702 36.0792 37.962 32.9505 38.3974V35.5473C32.9505 35.0327 32.5149 34.5973 32 34.5973C31.4852 34.5973 31.0495 35.0327 31.0495 35.5473V38.3974C28.2376 38.0016 26.0594 35.7848 25.6238 32.9743H28.4752C28.9901 32.9743 29.4258 32.5389 29.4258 32.0243C29.4258 31.5097 28.9901 31.0743 28.4752 31.0743H25.6238C26.0594 27.9866 28.7525 25.572 31.9604 25.572C32.5545 25.572 33.1089 25.6511 33.6634 25.8095C34.1783 25.9282 34.6931 25.6511 34.8119 25.1761C34.9307 24.6615 34.6535 24.1469 34.1783 24.0282C33.7426 23.9094 33.3465 23.8302 32.9109 23.7906V21.9698C34.099 22.0885 35.2476 22.4052 36.3565 22.9198C36.8317 23.1573 37.3862 22.9594 37.6238 22.4844C37.8614 22.0093 37.6634 21.4551 37.1881 21.2176C35.5644 20.4259 33.8218 20.0301 32 20.0301C28.7921 20.0301 25.7822 21.2968 23.5247 23.5531C21.2673 25.8095 20 28.8179 20 32.0243C20 35.2306 21.2673 38.2391 23.5247 40.4954C25.7822 42.7518 28.7921 44.0185 32 44.0185C34.1783 44.0185 36.3565 43.4247 38.2179 42.2767C38.6535 41.9997 38.8119 41.4455 38.5347 40.9705C38.2575 40.535 37.703 40.3767 37.2278 40.6538C35.9208 41.4455 34.4554 41.9205 32.9109 42.0788V40.2579C36.7525 39.8225 39.802 36.7745 40.2376 32.9347H42.0594C41.901 34.5973 41.3466 36.1807 40.3961 37.6057C40.1189 38.0412 40.2377 38.6349 40.6733 38.912C40.8317 39.0308 41.0298 39.0704 41.1882 39.0704C41.505 39.0704 41.7822 38.912 41.9803 38.6349C43.3268 36.6557 44 34.3598 44 31.9847C43.9604 30.243 43.5644 28.5408 42.8515 26.9574ZM31.0099 21.9302V23.7511C27.1684 24.1865 24.1188 27.2345 23.6832 31.0743H21.8614C22.3366 26.2449 26.1783 22.4052 31.0099 21.9302ZM31.0099 42.1184C26.1783 41.683 22.297 37.8037 21.8614 32.9743H23.6832C24.1188 36.814 27.1684 39.8621 31.0099 40.2975V42.1184Z" fill="black"/>
</svg>
