<svg width="64" height="64" viewBox="0 0 64 64" fill="none" xmlns="http://www.w3.org/2000/svg">
<circle cx="32" cy="32" r="32" fill="#E0F0FA"/>
<path d="M31.6036 30.8802C29.2276 30.8802 27.2871 32.8197 27.2871 35.1945C27.2871 36.4611 27.8416 37.6089 28.7524 38.4005V42.9919C28.7524 43.3085 28.9107 43.5856 29.1879 43.7835C29.4651 43.9418 29.7819 43.9814 30.0591 43.8627L31.5639 43.2294L33.0687 43.8627C33.1875 43.9022 33.3063 43.9418 33.4251 43.9418C33.6231 43.9418 33.7815 43.9022 33.9399 43.7835C34.2171 43.6252 34.3756 43.3085 34.3756 42.9919V38.4797C35.326 37.6881 35.9199 36.5007 35.9199 35.1945C35.9199 32.8197 33.9796 30.8802 31.6036 30.8802ZM32.5144 41.6066L31.9599 41.3691C31.7223 41.2503 31.4452 41.2503 31.2076 41.3691L30.6531 41.6066V39.3901C30.9699 39.4692 31.2867 39.5088 31.6431 39.5088C31.9599 39.5088 32.2372 39.4692 32.5144 39.4296V41.6066ZM31.6036 37.6089C30.2572 37.6089 29.1484 36.5007 29.1484 35.1549C29.1484 33.8092 30.2572 32.7009 31.6036 32.7009C32.95 32.7009 34.0587 33.8092 34.0587 35.1549C34.0587 36.5007 32.95 37.6089 31.6036 37.6089Z" fill="black"/>
<path d="M43.0867 34.205H39.7999V22.9642C39.7999 21.3018 38.4535 19.9561 36.7903 19.9561H23.762C21.7028 19.9561 20 21.6184 20 23.7162V25.6161C20 26.1306 20.4356 26.566 20.9504 26.566H23.2868V37.2527C23.2868 38.7568 24.1976 40.1421 25.5836 40.6962C25.7024 40.7358 25.8212 40.7754 25.94 40.7754C26.2964 40.7754 26.6527 40.5775 26.8111 40.1817C27.0091 39.7067 26.7715 39.1526 26.2963 38.9547C25.5835 38.6776 25.148 37.9652 25.148 37.2132V26.5264H34.6123C35.1271 26.5264 35.5627 26.091 35.5627 25.5765V22.9246C35.5627 22.2913 36.0775 21.7768 36.7111 21.7768H36.7903C37.4239 21.7768 37.9387 22.2913 37.9387 22.9246V37.9256C37.9387 38.3214 38.0179 38.7172 38.1763 39.0734H37.1863C36.6715 39.0734 36.2359 39.5088 36.2359 40.0234C36.2359 40.5379 36.6715 40.9733 37.1863 40.9733H41.0275C42.6907 40.9733 43.9975 39.6276 43.9975 37.9652V35.1154C44.0371 34.6404 43.6015 34.205 43.0867 34.205ZM33.7411 22.9642V24.6661H21.9403V23.6766C21.9403 22.6475 22.772 21.8163 23.8016 21.8163H33.9787C33.8203 22.1726 33.7411 22.5684 33.7411 22.9642ZM42.1759 37.9652C42.1759 38.5985 41.6611 39.113 41.0275 39.113H40.9482C40.3146 39.113 39.7999 38.5985 39.7999 37.9652V36.0653H42.1362V37.9652H42.1759Z" fill="black"/>
</svg>
