<svg width="33" height="33" viewBox="0 0 33 33" fill="none" xmlns="http://www.w3.org/2000/svg">
<path fill-rule="evenodd" clip-rule="evenodd" d="M14.0034 18.8642C15.6458 17.9695 17.2351 17.1274 18.8775 16.2327C17.2351 15.3379 15.5928 14.4958 14.0034 13.6011C14.0034 15.3905 14.0034 17.1274 14.0034 18.8642Z" fill="#08B1F3"/>
<path fill-rule="evenodd" clip-rule="evenodd" d="M16.0693 0.337891C7.22164 0.337891 0.0693359 7.49578 0.0693359 16.3379C0.0693359 25.18 7.22164 32.3379 16.0693 32.3379C24.917 32.3379 32.0693 25.18 32.0693 16.3379C32.0693 7.49578 24.917 0.337891 16.0693 0.337891ZM24.8111 20.5484C24.6521 21.4958 23.9105 22.2853 23.0098 22.4432C22.6919 22.4958 22.374 22.4958 22.0031 22.5484C19.3541 22.7063 16.7051 22.8642 14.0561 22.7063C12.4667 22.6537 10.9303 22.5484 9.34087 22.4432C8.38723 22.3905 7.48654 21.5484 7.3276 20.5484C7.0627 18.8642 6.95669 17.18 7.00967 15.4432C7.06265 14.2853 7.11568 13.1274 7.3276 12.0221C7.48654 11.0221 8.33425 10.2326 9.34087 10.18C11.566 10.0747 13.7912 9.96947 15.9104 9.86421C17.8706 9.96947 19.778 10.0221 21.6853 10.1274C22.1091 10.1274 22.586 10.1274 23.0098 10.2326C23.9634 10.3905 24.6521 11.18 24.8111 12.18C25.023 13.7063 25.129 15.2326 25.076 16.7589C25.076 18.0221 25.023 19.2853 24.8111 20.5484Z" fill="#08B1F3"/>
</svg>
