<svg width="47" height="47" viewBox="0 0 47 47" fill="none" xmlns="http://www.w3.org/2000/svg">
<rect x="1" y="1" width="45" height="45" fill="white"/>
<rect x="1" y="1" width="45" height="45" stroke="#D9D9D9"/>
<path d="M20.1101 29.58C19.8754 29.58 19.6727 29.4947 19.5021 29.324C19.3421 29.1533 19.2621 28.9453 19.2621 28.7C19.2621 28.4547 19.3421 28.252 19.5021 28.092C19.6727 27.9213 19.8754 27.836 20.1101 27.836C20.3447 27.836 20.5474 27.9213 20.7181 28.092C20.8887 28.252 20.9741 28.4547 20.9741 28.7C20.9741 28.9453 20.8887 29.1533 20.7181 29.324C20.5474 29.4947 20.3447 29.58 20.1101 29.58ZM23.5007 29.58C23.266 29.58 23.0634 29.4947 22.8927 29.324C22.7327 29.1533 22.6527 28.9453 22.6527 28.7C22.6527 28.4547 22.7327 28.252 22.8927 28.092C23.0634 27.9213 23.266 27.836 23.5007 27.836C23.7354 27.836 23.938 27.9213 24.1087 28.092C24.2794 28.252 24.3647 28.4547 24.3647 28.7C24.3647 28.9453 24.2794 29.1533 24.1087 29.324C23.938 29.4947 23.7354 29.58 23.5007 29.58ZM26.8913 29.58C26.6566 29.58 26.454 29.4947 26.2833 29.324C26.1233 29.1533 26.0433 28.9453 26.0433 28.7C26.0433 28.4547 26.1233 28.252 26.2833 28.092C26.454 27.9213 26.6566 27.836 26.8913 27.836C27.126 27.836 27.3286 27.9213 27.4993 28.092C27.67 28.252 27.7553 28.4547 27.7553 28.7C27.7553 28.9453 27.67 29.1533 27.4993 29.324C27.3286 29.4947 27.126 29.58 26.8913 29.58Z" fill="black"/>
</svg>
